<svg xmlns="http://www.w3.org/2000/svg" width="12.139" height="10.436" viewBox="0 0 12.139 10.436">
  <g id="money" transform="translate(0 -28.588)">
    <g id="Group_769" data-name="Group 769" transform="translate(0 28.588)">
      <g id="Group_768" data-name="Group 768" transform="translate(0 0)">
        <g id="Group_770" data-name="Group 770">
          <path id="Path_786" data-name="Path 786" d="M12.122,34.494h0L9.83,28.739a.238.238,0,0,0-.31-.133h0l-9.3,3.7a.234.234,0,0,0-.1.076A.236.236,0,0,0,0,32.59v6.2a.238.238,0,0,0,.238.238H10.247a.238.238,0,0,0,.238-.238V35.4l1.5-.6A.238.238,0,0,0,12.122,34.494Zm-2.114,4.054H.477V32.829h9.532ZM3.976,32.353l3.99-1.59a1.9,1.9,0,0,0,1.366.589l.4,1Zm6.509,2.537v-2.3a.238.238,0,0,0-.238-.238h0l-.5-1.268a.2.2,0,0,0-.02-.03.235.235,0,0,0-.249-.183,1.425,1.425,0,0,1-1.249-.538.236.236,0,0,0-.306-.053l-.034.006-4.871,1.94a.235.235,0,0,0-.131.127H1.4l8.076-3.216,2.116,5.313Z" transform="translate(0 -28.588)" fill="#494949"/>
        </g>
        <path id="Path_787" data-name="Path 787" d="M32.17,190.579a1.425,1.425,0,0,1,.962.961.238.238,0,0,0,.228.17.219.219,0,0,0,.037-.005l.033.007h5.719l.029-.006a.222.222,0,0,0,.268-.163h0a1.425,1.425,0,0,1,.962-.962.235.235,0,0,0,.163-.262.24.24,0,0,0,.007-.035v-1.906a.215.215,0,0,0-.007-.035.235.235,0,0,0-.163-.262,1.423,1.423,0,0,1-.962-.962.235.235,0,0,0-.264-.163l-.034-.007H33.43a.223.223,0,0,0-.036.007.235.235,0,0,0-.262.163,1.425,1.425,0,0,1-.962.962.235.235,0,0,0-.163.262.241.241,0,0,0-.007.035v1.906a.221.221,0,0,0,.007.033A.236.236,0,0,0,32.17,190.579Zm.306-2.107a1.891,1.891,0,0,0,1.05-1.05h5.525a1.891,1.891,0,0,0,1.05,1.05v1.713a1.893,1.893,0,0,0-1.05,1.05H33.527a1.893,1.893,0,0,0-1.05-1.05Z" transform="translate(-31.047 -182.228)" fill="#494949"/>
        <path id="Path_788" data-name="Path 788" d="M129.43,221.8a1.43,1.43,0,1,0-1.43-1.43A1.43,1.43,0,0,0,129.43,221.8Zm0-2.383a.953.953,0,1,1-.953.953A.953.953,0,0,1,129.43,219.422Z" transform="translate(-124.187 -213.275)" fill="#494949"/>
        <path id="Path_789" data-name="Path 789" d="M76.357,255.66A.357.357,0,1,0,76,255.3.357.357,0,0,0,76.357,255.66Zm0-.477a.119.119,0,1,1-.119.119A.119.119,0,0,1,76.357,255.183Z" transform="translate(-73.736 -248.203)" fill="#494949"/>
        <path id="Path_790" data-name="Path 790" d="M252.357,255.66A.357.357,0,1,0,252,255.3.357.357,0,0,0,252.357,255.66Zm0-.477a.119.119,0,1,1-.119.119A.119.119,0,0,1,252.357,255.183Z" transform="translate(-244.494 -248.203)" fill="#494949"/>
      </g>
    </g>
  </g>
</svg>
