<svg xmlns="http://www.w3.org/2000/svg" width="7.294" height="10.069" viewBox="0 0 7.294 10.069">
  <g id="maps-and-flags" opacity="0.7">
    <g id="Group_673" data-name="Group 673">
      <g id="Group_672" data-name="Group 672">
        <path id="Path_337" data-name="Path 337" d="M74.22,0a3.651,3.651,0,0,0-3.647,3.647c0,2.5,3.264,6.159,3.4,6.314a.328.328,0,0,0,.489,0c.139-.155,3.4-3.818,3.4-6.314A3.651,3.651,0,0,0,74.22,0Zm0,9.238c-1.1-1.3-2.99-3.879-2.99-5.591a2.99,2.99,0,1,1,5.98,0C77.21,5.36,75.318,7.933,74.22,9.238Z" transform="translate(-70.573)"/>
      </g>
    </g>
    <g id="Group_675" data-name="Group 675" transform="translate(1.812 1.812)">
      <g id="Group_674" data-name="Group 674">
        <path id="Path_338" data-name="Path 338" d="M164.543,92.134a1.835,1.835,0,1,0,1.835,1.835A1.837,1.837,0,0,0,164.543,92.134Zm0,3.013a1.178,1.178,0,1,1,1.178-1.178A1.179,1.179,0,0,1,164.543,95.147Z" transform="translate(-162.708 -92.134)"/>
      </g>
    </g>
  </g>
</svg>
