<svg xmlns="http://www.w3.org/2000/svg" width="279.309" height="166.361" viewBox="0 0 279.309 166.361">
  <g id="Group_746" data-name="Group 746" transform="translate(138 -381.066)">
    <g id="Group_745" data-name="Group 745" transform="translate(-138 381.065)">
      <path id="Path_461" data-name="Path 461" d="M577.793,698.993c1.016-1.284,2.357,1.27,3.7.326h-7.43C575.574,700.159,576.754,697.621,577.793,698.993Z" transform="translate(-442.86 -534.379)" fill="none"/>
      <path id="Path_462" data-name="Path 462" d="M657.821,700.852H656.54c.275.193.551.386.814.595C657.5,701.244,657.664,701.049,657.821,700.852Z" transform="translate(-498.457 -535.912)" fill="none"/>
      <path id="Path_463" data-name="Path 463" d="M543.483,696.125a12.263,12.263,0,0,0-5.962,1.541H549.43A12.209,12.209,0,0,0,543.483,696.125Z" transform="translate(-418.23 -532.726)" fill="#e6e6e6"/>
      <path id="Path_464" data-name="Path 464" d="M606.591,691.4a16.848,16.848,0,0,0-9.732,3.081H616.31A16.845,16.845,0,0,0,606.591,691.4Z" transform="translate(-458.228 -529.54)" fill="#e6e6e6"/>
      <path id="Path_465" data-name="Path 465" d="M780.375,569.926a31.582,31.582,0,0,0-61.965-6.659c-.383-.014-.765-.029-1.151-.029a31.589,31.589,0,0,0-30.3,22.679,22.321,22.321,0,0,0-26.487,6.594h98.518a21.363,21.363,0,0,0,21.41-22.119Q780.388,570.159,780.375,569.926Z" transform="translate(-501.106 -427.571)" fill="#e6e6e6"/>
      <rect id="Rectangle_979" data-name="Rectangle 979" width="276.711" height="0.652" transform="translate(0 164.614)" fill="#3f3d56"/>
      <path id="Path_466" data-name="Path 466" d="M432.453,372.589s-12.559-3.912-10.631,2.524,12.507,3.185,12.507,3.185Z" transform="translate(-340.104 -313.845)" fill="#ffb8b8"/>
      <path id="Path_467" data-name="Path 467" d="M500.1,293.017s-6.437-8.8-12.69.335c-6.266,9.149-12.091,16.66-12.091,16.66l-15.562,5.074-9,.8,2.48,8,26.176-3.8S508.557,302.78,500.1,293.017Z" transform="translate(-359.746 -258.432)" fill="#2f2e41"/>
      <path id="Path_468" data-name="Path 468" d="M495.074,450.352s-9.778,6.844-9.126,13.037,4.889,23.141,4.889,23.141l8.8-1.3s.978-13.037-2.281-17.926L513,458.5Z" transform="translate(-383.445 -367.057)" fill="#ffb8b8"/>
      <path id="Path_469" data-name="Path 469" d="M580.247,499.852s-.652,12.059.978,16.948,3.259,23.141,3.259,23.141h9.126s4.237-15.97-.978-23.141c0,0-1.63-9.452,2.933-14.015Z" transform="translate(-446.943 -400.423)" fill="#ffb8b8"/>
      <path id="Path_470" data-name="Path 470" d="M530.2,391.959s-21.185,13.363-21.185,17.6l16.948,14.015,5.867-6.519-.652,9.778,18.252,3.585s6.519-24.77,6.193-25.748-1.3-15.318-1.3-15.318Z" transform="translate(-399.013 -325.938)" fill="#2f2e41"/>
      <path id="Path_471" data-name="Path 471" d="M508.465,552.352l-9.452,1.956,1.679,6.9a24.653,24.653,0,0,1,.276,10.37h0s9.778,2.607,9.778,1.3-2.281-6.518-1.63-10.1S508.465,552.352,508.465,552.352Z" transform="translate(-392.272 -435.812)" fill="#028090"/>
      <path id="Path_472" data-name="Path 472" d="M492.185,613.8c-.326-1.3-3.034-7.215-3.147-6.215s-5.328,2.63-7.283.674c0,0-2.607-2.281-3.585,0s-2.933,6.193-2.933,6.193-8.8,4.237-7.5,6.518c.264.461.994.656,1.992.673a.533.533,0,0,0-.036.189v.231a.536.536,0,0,0,.536.536h.231a.536.536,0,0,0,.536-.536v-.231a.53.53,0,0,0-.059-.239c.267-.023.543-.054.827-.092a.532.532,0,0,0-.117.331v.231a.536.536,0,0,0,.536.536h.231a.536.536,0,0,0,.536-.536v-.231a.534.534,0,0,0-.277-.467c.75-.125,1.533-.284,2.312-.461a.532.532,0,0,0-.079.276v.231a.536.536,0,0,0,.536.536h.231a.536.536,0,0,0,.536-.536v-.231a.536.536,0,0,0-.319-.489c.584-.142,1.156-.291,1.7-.438a.531.531,0,0,0-.078.276v.231a.536.536,0,0,0,.536.536h.231a.536.536,0,0,0,.536-.536v-.231a.535.535,0,0,0-.377-.51c1.914-.539,3.31-1,3.31-1s1.622-.59,3.585-1.387v.2a.536.536,0,0,0,.536.536h.231a.536.536,0,0,0,.536-.536v-.231a.533.533,0,0,0-.207-.421c.394-.166.792-.336,1.185-.509v.183a.536.536,0,0,0,.536.536h.231a.536.536,0,0,0,.536-.536v-.231a.535.535,0,0,0-.23-.439c.425-.2.835-.4,1.213-.591,0,.017-.005.034-.005.052v.231a.536.536,0,0,0,.536.536h.231a.536.536,0,0,0,.536-.536v-.231a.536.536,0,0,0-.429-.526C491.689,614.581,492.264,614.111,492.185,613.8Z" transform="translate(-371.104 -472.812)" fill="#2f2e41"/>
      <path id="Path_473" data-name="Path 473" d="M599.246,617l-10.325-.652s.626,10.756-.626,14.341-.626,4.889-.626,4.889l9.074.652Z" transform="translate(-451.928 -478.953)" fill="#028090"/>
      <path id="Path_474" data-name="Path 474" d="M571.268,672.5c-.047-1.343-1.463-7.689-1.782-6.734s-5.759,1.461-7.263-.859c0,0-2.074-2.775-3.506-.748s-4.16,5.445-4.16,5.445-9.49,2.309-8.691,4.812c.162.506.836.849,1.807,1.074a.532.532,0,0,0-.075.177l-.048.226a.536.536,0,0,0,.413.636l.226.048a.536.536,0,0,0,.636-.413l.048-.226a.529.529,0,0,0-.008-.246c.266.033.542.06.828.083a.532.532,0,0,0-.183.3l-.048.226a.536.536,0,0,0,.413.636l.226.048a.537.537,0,0,0,.636-.413l.048-.226a.534.534,0,0,0-.174-.515c.76.034,1.559.042,2.357.031a.531.531,0,0,0-.135.254l-.048.226a.536.536,0,0,0,.413.636l.226.048a.536.536,0,0,0,.636-.413l.048-.226a.536.536,0,0,0-.21-.545c.6-.017,1.191-.043,1.755-.074a.532.532,0,0,0-.134.253l-.048.226a.536.536,0,0,0,.413.636l.226.048a.536.536,0,0,0,.636-.413l.048-.226a.535.535,0,0,0-.263-.577c1.984-.128,3.447-.292,3.447-.292s1.709-.239,3.8-.609l-.041.195a.536.536,0,0,0,.413.636l.226.048a.536.536,0,0,0,.636-.413l.048-.226a.533.533,0,0,0-.115-.455c.42-.08.845-.164,1.265-.251l-.038.179a.536.536,0,0,0,.413.636l.226.048a.536.536,0,0,0,.636-.413l.048-.226a.535.535,0,0,0-.133-.477c.457-.105.9-.214,1.309-.325-.005.017-.012.032-.016.05l-.048.226a.536.536,0,0,0,.413.636l.226.048a.537.537,0,0,0,.636-.413l.048-.226a.536.536,0,0,0-.31-.6C570.619,673.167,571.279,672.828,571.268,672.5Z" transform="translate(-423.822 -510.68)" fill="#2f2e41"/>
      <circle id="Ellipse_90" data-name="Ellipse 90" cx="9.452" cy="9.452" r="9.452" transform="translate(121.733 4.747)" fill="#ffb8b8"/>
      <path id="Path_475" data-name="Path 475" d="M586.086,235.352s5.215,6.519,7.822,6.193l-11.407,8.8s-1.3-5.541-2.933-6.193S586.086,235.352,586.086,235.352Z" transform="translate(-446.427 -222.131)" fill="#ffb8b8"/>
      <path id="Path_476" data-name="Path 476" d="M583.968,293s0-35.965-6.034-39.063-10.018-4.863-10.018-4.863h0a8.46,8.46,0,0,1-3.253,6.051c-2,1.543-3.991,2.823-5.1,2.827l-.036-.153-.136-.387L556.1,262.53s-2.933.652-3.911,2.607c-.529,1.058,1.966,11.708.489,21.348-1.253,8.179-6.532,15.562-6.681,16.459-.253,1.517,6.163-2.458,9.053-4.317.043.048.073.08.073.08s-1.63.652,1.63-.326a21.258,21.258,0,0,1,6.314-.507c0,.566.011,1.016.042,1.322.326,3.259,16.622,7.822,18.9,6.844S583.968,293,583.968,293Z" transform="translate(-423.939 -231.383)" fill="#2f2e41"/>
      <path id="Path_477" data-name="Path 477" d="M616.138,421.852s-9.778,8.8-3.259,10.43S622,423.156,622,423.156Z" transform="translate(-467.516 -347.846)" fill="#ffb8b8"/>
      <path id="Path_478" data-name="Path 478" d="M592.513,486.412s4.563-4.237,7.17-1.956,4.237,3.911,4.237,3.911S596.424,483.8,592.513,486.412Z" transform="translate(-455.298 -389.591)" fill="#028090"/>
      <path id="Path_479" data-name="Path 479" d="M596.15,644.334s2.572-2.388,4.041-1.1,2.388,2.2,2.388,2.2S598.354,642.864,596.15,644.334Z" transform="translate(-457.75 -496.816)" fill="#2f2e41"/>
      <path id="Path_480" data-name="Path 480" d="M507.746,574.353s1.766-3.033,3.546-2.231,2.926,1.414,2.926,1.414S509.427,572.305,507.746,574.353Z" transform="translate(-398.159 -449.048)" fill="#2f2e41"/>
      <path id="Path_481" data-name="Path 481" d="M630.887,270.655c-3.231-6.494-13.061-2.952-11.464,4.123q.036.158.075.32a64.321,64.321,0,0,0,8.148,18.9l-3.585,15.97-3.911,8.148,8.148,1.956,10.1-24.444S635.615,280.159,630.887,270.655Z" transform="translate(-473.321 -243.625)" fill="#2f2e41"/>
      <path id="Path_482" data-name="Path 482" d="M456.193,156.065,450,179.532l5.215-11.081Z" transform="translate(-303.334 -105.199)" opacity="0.2"/>
      <path id="Path_483" data-name="Path 483" d="M555.437,197.968s-5.225-5.5-10.484-2.036-7.754,6.829-7.238,9.172a34.014,34.014,0,0,0,2.042,5.6s-.948-4.854,3.406-5.213,10.371-3.241,10.371-3.241l4.069,8.69s.575-2.014,2.17-1.436S560.133,198.612,555.437,197.968Z" transform="translate(-418.316 -194.787)" fill="#2f2e41"/>
      <path id="Path_484" data-name="Path 484" d="M428.846,555.519a14.963,14.963,0,0,1-.205,2.464v0a14.67,14.67,0,0,1-20.286,10.993h0a14.3,14.3,0,0,1-1.75-.9,14.689,14.689,0,0,1-6.805-9.664,14.847,14.847,0,0,1-.284-2.894c0-.443.02-.883.059-1.317v0a14.666,14.666,0,0,1,29.271,1.118v0C428.846,555.388,428.846,555.45,428.846,555.519Z" transform="translate(-325.202 -428.061)" fill="#028090"/>
      <path id="Path_485" data-name="Path 485" d="M435.212,549.946h-6.569l-3.285-5.687,2.228-3.861.13-.035a15.044,15.044,0,0,1,8.573.24l.118.039,2.089,3.618Zm-6.193-.652h5.816l2.908-5.036-1.776-3.076a14.456,14.456,0,0,0-7.952-.225l-1.9,3.3Z" transform="translate(-342.624 -427.387)" fill="#fff"/>
      <path id="Path_486" data-name="Path 486" d="M434.212,583.292h-6.569l-3.285-5.689,3.285-5.689h6.569L437.5,577.6Zm-6.193-.652h5.816l2.908-5.037-2.908-5.037h-5.816l-2.908,5.037Z" transform="translate(-341.95 -448.999)" fill="#fff"/>
      <path id="Path_487" data-name="Path 487" d="M431.506,617.063a14.857,14.857,0,0,1-5.954-1.233l-.335-.145,3.331-5.772h6.569l3.19,5.526-.317.152a14.853,14.853,0,0,1-6.484,1.473Zm-5.357-1.689a14.357,14.357,0,0,0,11.24-.222l-2.648-4.587h-5.816Z" transform="translate(-342.528 -474.612)" fill="#fff"/>
      <path id="Path_488" data-name="Path 488" d="M468.212,565.29h-6.569l-3.285-5.687,3.284-5.691h2.991l.1.1a14.921,14.921,0,0,1,4.1,10.1v.094Zm-6.193-.652h5.816l.347-.6a14.268,14.268,0,0,0-3.829-9.474h-2.333l-2.908,5.039Z" transform="translate(-364.868 -436.864)" fill="#fff"/>
      <path id="Path_489" data-name="Path 489" d="M461.552,602.13l-3.194-5.528,3.284-5.691h6.569l.422.727,0,.146a15.024,15.024,0,0,1-6.79,10.165Zm-2.441-5.528,2.664,4.611a14.37,14.37,0,0,0,6.191-9.425l-.13-.225h-5.816Z" transform="translate(-364.868 -461.804)" fill="#fff"/>
      <path id="Path_490" data-name="Path 490" d="M406.594,602.271l-.285-.172a15.03,15.03,0,0,1-6.956-9.879l-.024-.121.687-1.188h6.569l3.284,5.691Zm-6.577-10.059a14.377,14.377,0,0,0,6.347,9.154l2.752-4.764-2.908-5.039h-5.816Z" transform="translate(-325.078 -461.804)" fill="#fff"/>
      <path id="Path_491" data-name="Path 491" d="M406.156,563.29h-6.569l-.894-1.545v-.088A14.947,14.947,0,0,1,403.415,552l.094-.087h2.647l3.284,5.691Zm-6.193-.652h5.817l2.908-5.036-2.908-5.039h-2.013a14.281,14.281,0,0,0-4.414,9.02Z" transform="translate(-324.649 -435.515)" fill="#fff"/>
    </g>
  </g>
</svg>
