<svg xmlns="http://www.w3.org/2000/svg" xmlns:xlink="http://www.w3.org/1999/xlink" width="263.913" height="184.23" viewBox="0 0 263.913 184.23">
  <defs>
    <linearGradient id="linear-gradient" x1="2024.027" y1="1" x2="2024.027" gradientUnits="objectBoundingBox">
      <stop offset="0" stop-color="gray" stop-opacity="0.251"/>
      <stop offset="0.54" stop-color="gray" stop-opacity="0.122"/>
      <stop offset="1" stop-color="gray" stop-opacity="0.102"/>
    </linearGradient>
    <linearGradient id="linear-gradient-2" x1="-0.328" y1="1" x2="-0.328" y2="0" xlink:href="#linear-gradient"/>
    <linearGradient id="linear-gradient-3" x1="-1.465" y1="1" x2="-1.465" y2="0" xlink:href="#linear-gradient"/>
    <linearGradient id="linear-gradient-4" x1="13.984" y1="1" x2="13.984" y2="0" xlink:href="#linear-gradient"/>
    <linearGradient id="linear-gradient-5" x1="14.718" y1="1" x2="14.718" y2="0" xlink:href="#linear-gradient"/>
  </defs>
  <g id="Group_750" data-name="Group 750" transform="translate(0.005 0.005)">
    <path id="Path_492" data-name="Path 492" d="M27.886,66.5c.858,7.29,6.874,13.062,8.3,20.261a19.645,19.645,0,0,1,.327,2.86c.205,4.135-.613,8.355-.191,12.5.786,7.767,5.507,13.837,11.5,19.1a168.425,168.425,0,0,0,14.637,10.839c12.324,8.609,23.882,19.477,28.944,33.632,3.374,9.439,3.632,19.7,6.109,29.41s8.117,19.653,17.651,22.75c10.232,3.325,21.507-2.218,32.036-.028,11.3,2.352,19.314,13.032,30.464,16.048,14.166,3.833,28.284-5.585,42.827-7.548,6.983-.943,14.09-.143,21.11-.747a53.059,53.059,0,0,0,22.155-7.038c2.306-1.354,4.638-3.016,5.71-5.475a13.141,13.141,0,0,0,.5-6.845c-1.061-8.533-3.745-17.808.477-25.307,3.9-6.918,13.334-11.867,11.934-19.678-.842-4.7-5.463-7.638-9.748-9.743-8.837-4.342-18.25-7.742-26.149-13.606-5.65-4.2-10.516-10.064-12.591-16.657a22.21,22.21,0,0,1-1.033-8.173c.291-4.359,1.8-9.252-.83-12.741a10.576,10.576,0,0,0-4.64-3.152c-6.619-2.675-13.97-2.83-20.852-4.73a28.765,28.765,0,0,1-6.748-2.8c-4.2-2.431-7.576-6.012-8.392-10.686-.477-2.74-.053-5.731-1.421-8.152-2.306-4.1-6.865-5.821-11.957-6.379-6.3-.692-13.44.39-18.218.922l-.477.051c-6.137.639-12.222-.719-18.2-2.767-6.457-2.193-12.769-5.177-18.91-7.3q-.865-.3-1.725-.574a88.323,88.323,0,0,0-13.726-3.194,89.735,89.735,0,0,0-19.832-.766,87.984,87.984,0,0,0-10,1.3q-1.457.277-2.91.593c-5.631,1.206-11.233,2.68-16.978,2.767H55.792c-6.851-.118-13.857-1.859-20.358.244-2.956.962-5.791,2.853-6.981,5.721A10.236,10.236,0,0,0,27.886,66.5Z" transform="translate(-27.8 -50.55)" fill="#028090"/>
    <path id="Path_493" data-name="Path 493" d="M64.577,131.5H70.5a7.841,7.841,0,0,1,5.152-6.918,5.535,5.535,0,1,1,5.339,0,7.841,7.841,0,0,1,5.152,6.918h.051a7.841,7.841,0,0,1,5.138-6.688,5.535,5.535,0,1,1,8.111-5.86,7.824,7.824,0,0,1,2.267-1.289,5.535,5.535,0,1,1,5.339,0,7.841,7.841,0,0,1,5.17,7.38V131.5h2.537v-5.073a7.841,7.841,0,0,1,5.17-7.38,5.535,5.535,0,1,1,5.339,0,7.864,7.864,0,0,1,4.52,4.252,7.861,7.861,0,0,1,3.754-2.869,5.535,5.535,0,1,1,5.339,0,7.866,7.866,0,0,1,4.017,3.282v-.975a7.841,7.841,0,0,1,5.17-7.38,5.535,5.535,0,1,1,5.339,0,7.841,7.841,0,0,1,5.17,7.38V131.5h2.767a7.861,7.861,0,0,1,4.472-4.151,5.535,5.535,0,1,1,5.339,0,7.81,7.81,0,0,1,1.559.773,7.841,7.841,0,0,1,5.106-6.307,5.535,5.535,0,1,1,5.339,0,7.857,7.857,0,0,1,4.843,5.166,7.841,7.841,0,0,1,3.187-2.168,5.535,5.535,0,1,1,5.339,0,7.825,7.825,0,0,1,2.325,1.338,7.864,7.864,0,0,1,4.566-4.335,5.535,5.535,0,1,1,5.339,0,7.841,7.841,0,0,1,5.17,7.38V131.5h13.929a28.765,28.765,0,0,0,6.745,2.8c6.881,1.9,14.233,2.055,20.852,4.73a10.575,10.575,0,0,1,4.64,3.152c2.629,3.489,1.121,8.383.83,12.741a22.209,22.209,0,0,0,1.026,8.168H75.886c-6-5.249-10.714-11.33-11.5-19.1C63.975,139.859,64.782,135.639,64.577,131.5Z" transform="translate(-55.862 -92.428)" opacity="0.2"/>
    <path id="Path_494" data-name="Path 494" d="M950.814,73.123V162.6l-4.612-3V73.123h-2.767L942.282,156.6l-4.382-3.229,3-81.4" transform="translate(-721.615 -55.377)" fill="none" stroke="#e0e0e0" stroke-miterlimit="10" stroke-width="1"/>
    <line id="Line_14" data-name="Line 14" x1="18.679" y2="1.038" transform="translate(216.288 24.204)" fill="none" stroke="#e0e0e0" stroke-miterlimit="10" stroke-width="1"/>
    <line id="Line_15" data-name="Line 15" x1="17.526" y2="0.692" transform="translate(216.288 28.816)" fill="none" stroke="#e0e0e0" stroke-miterlimit="10" stroke-width="1"/>
    <line id="Line_16" data-name="Line 16" x1="17.526" y2="0.461" transform="translate(216.288 34.35)" fill="none" stroke="#e0e0e0" stroke-miterlimit="10" stroke-width="1"/>
    <line id="Line_17" data-name="Line 17" x1="17.526" y2="0.692" transform="translate(216.288 39.424)" fill="none" stroke="#e0e0e0" stroke-miterlimit="10" stroke-width="1"/>
    <line id="Line_18" data-name="Line 18" x1="18.218" transform="translate(215.596 45.189)" fill="none" stroke="#e0e0e0" stroke-miterlimit="10" stroke-width="1"/>
    <line id="Line_19" data-name="Line 19" x1="18.679" y1="0.692" transform="translate(215.134 50.263)" fill="none" stroke="#e0e0e0" stroke-miterlimit="10" stroke-width="1"/>
    <line id="Line_20" data-name="Line 20" x1="18.679" y1="0.922" transform="translate(215.134 55.336)" fill="none" stroke="#e0e0e0" stroke-miterlimit="10" stroke-width="1"/>
    <line id="Line_21" data-name="Line 21" x1="18.679" y1="1.384" transform="translate(215.134 60.64)" fill="none" stroke="#e0e0e0" stroke-miterlimit="10" stroke-width="1"/>
    <line id="Line_22" data-name="Line 22" x1="19.832" y1="1.845" transform="translate(214.443 65.252)" fill="none" stroke="#e0e0e0" stroke-miterlimit="10" stroke-width="1"/>
    <line id="Line_23" data-name="Line 23" x1="19.832" y1="2.998" transform="translate(214.443 69.864)" fill="none" stroke="#e0e0e0" stroke-miterlimit="10" stroke-width="1"/>
    <line id="Line_24" data-name="Line 24" x1="20.524" y1="3.69" transform="translate(213.751 75.86)" fill="none" stroke="#e0e0e0" stroke-miterlimit="10" stroke-width="1"/>
    <line id="Line_25" data-name="Line 25" x1="20.524" y1="5.996" transform="translate(213.751 81.164)" fill="none" stroke="#e0e0e0" stroke-miterlimit="10" stroke-width="1"/>
    <line id="Line_26" data-name="Line 26" x1="21.677" y1="8.533" transform="translate(213.059 86.468)" fill="none" stroke="#e0e0e0" stroke-miterlimit="10" stroke-width="1"/>
    <line id="Line_27" data-name="Line 27" x1="21.677" y1="10.608" transform="translate(213.059 91.542)" fill="none" stroke="#e0e0e0" stroke-miterlimit="10" stroke-width="1"/>
    <path id="Path_495" data-name="Path 495" d="M471.962,72.892l-3.69,78.636h-4.843l3-78.636h-5.3l-3.459,78.636h-5.3l3-78.636H448.9l-2.306,78.636H440.83l2.537-77.944h-6l-1.384,77.944h-5.3L432.3,72.892h-5.3l-1.153,78.636h-5.073l1.153-78.636h-6v78.636h-6V72.892h-5.535l.922,78.636h-4.843l-1.384-78.636h-5.535l1.845,78.636h-4.843l-2.306-78.636h-4.843l1.845,78.636h-4.382l-3.459-78.636H372.8l3.69,78.636h-4.612L366.8,72.892h-5.535l6.457,78.636h-4.382l-6.226-78.636h-4.382l6.457,78.636h-4.843L348.124,71.97h-4.382l7.149,79.558H346.28L338.9,71.97" transform="translate(-260.75 -55.377)" fill="none" stroke="#e0e0e0" stroke-miterlimit="10" stroke-width="1"/>
    <path id="Path_496" data-name="Path 496" d="M263.132,73.123l6.918,79.789-3.459,2.767-5.3-82.556H257.6l3.69,85.554-5.3,3.459L253.91,71.97" transform="translate(-195.36 -55.377)" fill="none" stroke="#e0e0e0" stroke-miterlimit="10" stroke-width="1"/>
    <line id="Line_28" data-name="Line 28" x2="21.216" transform="translate(53.477 26.74)" fill="none" stroke="#e0e0e0" stroke-miterlimit="10" stroke-width="1"/>
    <line id="Line_29" data-name="Line 29" x2="21.216" transform="translate(53.477 32.506)" fill="none" stroke="#e0e0e0" stroke-miterlimit="10" stroke-width="1"/>
    <line id="Line_30" data-name="Line 30" y1="0.692" x2="21.216" transform="translate(53.477 38.271)" fill="none" stroke="#e0e0e0" stroke-miterlimit="10" stroke-width="1"/>
    <line id="Line_31" data-name="Line 31" y1="1.153" x2="22.139" transform="translate(53.477 43.344)" fill="none" stroke="#e0e0e0" stroke-miterlimit="10" stroke-width="1"/>
    <line id="Line_32" data-name="Line 32" y1="0.922" x2="22.139" transform="translate(53.477 49.801)" fill="none" stroke="#e0e0e0" stroke-miterlimit="10" stroke-width="1"/>
    <line id="Line_33" data-name="Line 33" y1="1.153" x2="23.061" transform="translate(53.477 56.258)" fill="none" stroke="#e0e0e0" stroke-miterlimit="10" stroke-width="1"/>
    <line id="Line_34" data-name="Line 34" y1="2.306" x2="23.061" transform="translate(53.477 61.562)" fill="none" stroke="#e0e0e0" stroke-miterlimit="10" stroke-width="1"/>
    <line id="Line_35" data-name="Line 35" y1="5.535" x2="23.061" transform="translate(53.477 65.713)" fill="none" stroke="#e0e0e0" stroke-miterlimit="10" stroke-width="1"/>
    <line id="Line_36" data-name="Line 36" y1="8.071" x2="23.983" transform="translate(53.477 69.634)" fill="none" stroke="#e0e0e0" stroke-miterlimit="10" stroke-width="1"/>
    <line id="Line_37" data-name="Line 37" y1="9.224" x2="23.983" transform="translate(53.477 75.168)" fill="none" stroke="#e0e0e0" stroke-miterlimit="10" stroke-width="1"/>
    <line id="Line_38" data-name="Line 38" y1="10.02" x2="23.875" transform="translate(52.785 80.83)" fill="none" stroke="#e0e0e0" stroke-miterlimit="10" stroke-width="1"/>
    <line id="Line_39" data-name="Line 39" y1="12.453" x2="24.675" transform="translate(52.785 85.776)" fill="none" stroke="#e0e0e0" stroke-miterlimit="10" stroke-width="1"/>
    <line id="Line_40" data-name="Line 40" y1="14.067" x2="25.367" transform="translate(52.785 90.85)" fill="none" stroke="#e0e0e0" stroke-miterlimit="10" stroke-width="1"/>
    <line id="Line_41" data-name="Line 41" x1="141.595" y2="1.153" transform="translate(74.693 24.204)" fill="none" stroke="#e0e0e0" stroke-miterlimit="10" stroke-width="1"/>
    <line id="Line_42" data-name="Line 42" x1="141.595" y2="1.153" transform="translate(74.578 28.355)" fill="none" stroke="#e0e0e0" stroke-miterlimit="10" stroke-width="1"/>
    <line id="Line_43" data-name="Line 43" x1="141.595" y2="1.153" transform="translate(74.462 32.506)" fill="none" stroke="#e0e0e0" stroke-miterlimit="10" stroke-width="1"/>
    <line id="Line_44" data-name="Line 44" x1="141.595" y2="1.153" transform="translate(74.347 36.657)" fill="none" stroke="#e0e0e0" stroke-miterlimit="10" stroke-width="1"/>
    <line id="Line_45" data-name="Line 45" x1="141.595" y2="1.153" transform="translate(74.232 40.808)" fill="none" stroke="#e0e0e0" stroke-miterlimit="10" stroke-width="1"/>
    <line id="Line_46" data-name="Line 46" x1="139.75" y2="1.153" transform="translate(75.961 44.959)" fill="none" stroke="#e0e0e0" stroke-miterlimit="10" stroke-width="1"/>
    <line id="Line_47" data-name="Line 47" x1="139.75" y2="1.153" transform="translate(75.846 49.109)" fill="none" stroke="#e0e0e0" stroke-miterlimit="10" stroke-width="1"/>
    <line id="Line_48" data-name="Line 48" x1="139.75" y2="1.153" transform="translate(75.731 53.26)" fill="none" stroke="#e0e0e0" stroke-miterlimit="10" stroke-width="1"/>
    <line id="Line_49" data-name="Line 49" x1="139.75" y2="1.153" transform="translate(75.615 57.411)" fill="none" stroke="#e0e0e0" stroke-miterlimit="10" stroke-width="1"/>
    <line id="Line_50" data-name="Line 50" x1="138.366" y2="1.153" transform="translate(76.884 61.562)" fill="none" stroke="#e0e0e0" stroke-miterlimit="10" stroke-width="1"/>
    <line id="Line_51" data-name="Line 51" x1="138.366" y2="1.153" transform="translate(76.768 65.713)" fill="none" stroke="#e0e0e0" stroke-miterlimit="10" stroke-width="1"/>
    <line id="Line_52" data-name="Line 52" x1="138.366" y2="1.153" transform="translate(76.653 69.864)" fill="none" stroke="#e0e0e0" stroke-miterlimit="10" stroke-width="1"/>
    <line id="Line_53" data-name="Line 53" x1="137.444" y2="1.153" transform="translate(77.46 74.015)" fill="none" stroke="#e0e0e0" stroke-miterlimit="10" stroke-width="1"/>
    <line id="Line_54" data-name="Line 54" x1="137.444" y2="1.153" transform="translate(77.345 78.166)" fill="none" stroke="#e0e0e0" stroke-miterlimit="10" stroke-width="1"/>
    <line id="Line_55" data-name="Line 55" x1="136.752" y2="1.153" transform="translate(77.922 82.317)" fill="none" stroke="#e0e0e0" stroke-miterlimit="10" stroke-width="1"/>
    <line id="Line_56" data-name="Line 56" x1="136.752" y2="1.153" transform="translate(77.806 86.468)" fill="none" stroke="#e0e0e0" stroke-miterlimit="10" stroke-width="1"/>
    <line id="Line_57" data-name="Line 57" x1="136.752" y2="1.153" transform="translate(77.691 90.619)" fill="none" stroke="#e0e0e0" stroke-miterlimit="10" stroke-width="1"/>
    <path id="Path_497" data-name="Path 497" d="M413.167,431.95l-20.986-14.99H255.891L231.91,431.95" transform="translate(-178.433 -320.808)" fill="none" stroke="#e0e0e0" stroke-miterlimit="10" stroke-width="3"/>
    <path id="Path_498" data-name="Path 498" d="M1051.35,310.133s.533-15.741,9.047-24.631a23.864,23.864,0,0,0,6.545-13.606,40.138,40.138,0,0,0,.2-7.336" transform="translate(-815.313 -215.211)" fill="none" stroke="#535461" stroke-miterlimit="10" stroke-width="2"/>
    <path id="Path_506" data-name="Path 506" d="M1066.35,371.133s.533-15.741,9.047-24.631a23.864,23.864,0,0,0,6.545-13.606,40.116,40.116,0,0,0,.2-7.336" transform="translate(-826.854 -262.143)" fill="none" stroke="#535461" stroke-miterlimit="10" stroke-width="2"/>
    <g id="Group_777" data-name="Group 777">
      <path id="Path_499" data-name="Path 499" d="M1121.271,225.412c-.583,1.757-5.454,5.8-5.454,5.8s-1.492-6.153-.909-7.91a3.353,3.353,0,1,1,6.365,2.11Z" transform="translate(-864.11 -181.697)" fill="#028090" opacity="0.5"/>
      <path id="Path_500" data-name="Path 500" d="M1125.97,270c-1.443,1.153-7.73,1.9-7.73,1.9s2.092-5.975,3.535-7.133a3.353,3.353,0,1,1,4.2,5.231Z" transform="translate(-866.778 -214.803)" fill="#028090" opacity="0.5"/>
      <path id="Path_501" data-name="Path 501" d="M1101.373,339.475c-1.831.27-7.633-2.26-7.633-2.26s4.822-4.1,6.653-4.382a3.353,3.353,0,0,1,.98,6.632Z" transform="translate(-847.927 -267.72)" fill="#028090" opacity="0.5"/>
      <path id="Path_502" data-name="Path 502" d="M1069.375,389.974c-1.76.577-7.905-.939-7.905-.939s4.059-4.857,5.818-5.435a3.353,3.353,0,1,1,2.087,6.372Z" transform="translate(-823.099 -306.67)" fill="#028090" opacity="0.5"/>
      <path id="Path_503" data-name="Path 503" d="M1087.505,273.648c.856,1.642,6.307,4.859,6.307,4.859s.5-6.309-.357-7.954a3.353,3.353,0,0,0-5.95,3.095Z" transform="translate(-842.839 -218.432)" fill="#028090" opacity="0.5"/>
      <path id="Path_504" data-name="Path 504" d="M1049.9,329.979c1.308,1.312,7.472,2.749,7.472,2.749s-1.414-6.169-2.721-7.481a3.353,3.353,0,1,0-4.751,4.732Z" transform="translate(-813.443 -261.143)" fill="#028090" opacity="0.5"/>
      <path id="Path_505" data-name="Path 505" d="M1024.376,393.535c1.065,1.513,6.9,3.971,6.9,3.971s-.351-6.321-1.418-7.841a3.353,3.353,0,1,0-5.482,3.863Z" transform="translate(-794.089 -310.372)" fill="#028090" opacity="0.5"/>
      <path id="Path_507" data-name="Path 507" d="M1136.271,286.412c-.583,1.757-5.454,5.8-5.454,5.8s-1.492-6.153-.909-7.91a3.353,3.353,0,1,1,6.365,2.11Z" transform="translate(-875.651 -228.63)" fill="#028090" opacity="0.5"/>
      <path id="Path_508" data-name="Path 508" d="M1140.97,331c-1.444,1.153-7.73,1.9-7.73,1.9s2.092-5.975,3.535-7.133a3.353,3.353,0,1,1,4.2,5.231Z" transform="translate(-878.318 -261.736)" fill="#028090" opacity="0.5"/>
      <path id="Path_509" data-name="Path 509" d="M1116.373,400.475c-1.831.27-7.633-2.26-7.633-2.26s4.822-4.1,6.653-4.382a3.353,3.353,0,0,1,.98,6.632Z" transform="translate(-859.468 -314.652)" fill="#028090" opacity="0.5"/>
      <path id="Path_510" data-name="Path 510" d="M1084.375,450.974c-1.76.577-7.905-.939-7.905-.939s4.059-4.857,5.818-5.435a3.353,3.353,0,1,1,2.087,6.372Z" transform="translate(-834.64 -353.603)" fill="#028090" opacity="0.5"/>
      <path id="Path_511" data-name="Path 511" d="M1102.505,334.648c.855,1.642,6.307,4.859,6.307,4.859s.5-6.31-.357-7.954a3.353,3.353,0,0,0-5.95,3.095Z" transform="translate(-854.38 -265.364)" fill="#028090" opacity="0.5"/>
      <path id="Path_512" data-name="Path 512" d="M1064.9,390.979c1.308,1.312,7.472,2.749,7.472,2.749s-1.414-6.169-2.721-7.481a3.353,3.353,0,1,0-4.751,4.732Z" transform="translate(-824.984 -308.076)" fill="#028090" opacity="0.5"/>
      <path id="Path_513" data-name="Path 513" d="M1039.376,454.535c1.065,1.513,6.9,3.971,6.9,3.971s-.35-6.321-1.418-7.841a3.353,3.353,0,1,0-5.482,3.863Z" transform="translate(-805.629 -357.305)" fill="#028090" opacity="0.5"/>
    </g>
    <path id="Path_514" data-name="Path 514" d="M237.891,126.935a9.775,9.775,0,0,1,7.564-9.34l.125-.025a2.634,2.634,0,0,1,.535-.051H418.7a7.379,7.379,0,0,1,6.358,3.533l.044.076a3.025,3.025,0,0,1,.4,1.46l1.6,90.63h-5.535l-1.845-88.554s0-2.537-2.306-2.767c-.353-.035-4.633-.06-11.625-.076l-4.054,76.641h-2.306l4.508-76.643c-30.74-.06-105.981.016-140.9.058L267.517,198h-2.306l-4.022-76.122-13.292.016a5.583,5.583,0,0,0-4.817,2.767l-1.845,88.554H235.7Z" transform="translate(-187.76 -102.079)" fill="#e0e0e0"/>
    <path id="Path_515" data-name="Path 515" d="M235.469,419.344s-.747-12.19,5.173-19.68a18.5,18.5,0,0,0,4.052-10.982,31.133,31.133,0,0,0-.387-5.682" transform="translate(-187.559 -306.337)" fill="none" stroke="#535461" stroke-miterlimit="10" stroke-width="2"/>
    <path id="Path_516" data-name="Path 516" d="M272.891,351.832c-.321,1.4-3.784,4.877-3.784,4.877s-1.614-4.64-1.285-6.037a2.6,2.6,0,0,1,5.073,1.153Z" transform="translate(-212.44 -279.906)" fill="#6c63ff"/>
    <path id="Path_517" data-name="Path 517" d="M280.967,385.354c-1.031,1-5.827,2.039-5.827,2.039s1.174-4.767,2.2-5.765a2.6,2.6,0,0,1,3.623,3.729Z" transform="translate(-218.105 -304.716)" fill="#6c63ff"/>
    <path id="Path_518" data-name="Path 518" d="M266.248,440.4c-1.384.344-6.058-1.183-6.058-1.183s3.415-3.521,4.813-3.865a2.6,2.6,0,0,1,1.245,5.048Z" transform="translate(-206.602 -346.56)" fill="#6c63ff"/>
    <path id="Path_519" data-name="Path 519" d="M245.551,481.86c-1.317.574-6.171-.143-6.171-.143s2.767-4.049,4.091-4.612a2.6,2.6,0,1,1,2.076,4.765Z" transform="translate(-190.591 -378.574)" fill="#6c63ff"/>
    <path id="Path_520" data-name="Path 520" d="M250.4,391.61c.779,1.206,5.226,3.286,5.226,3.286s-.081-4.907-.862-6.113a2.6,2.6,0,1,0-4.363,2.827Z" transform="translate(-198.752 -309.874)" fill="#6c63ff"/>
    <path id="Path_521" data-name="Path 521" d="M225.511,437.8c1.1.922,5.97,1.573,5.97,1.573s-1.545-4.658-2.652-5.576a2.6,2.6,0,1,0-3.318,4Z" transform="translate(-179.197 -344.957)" fill="#6c63ff"/>
    <path id="Path_522" data-name="Path 522" d="M210.482,488.764c.934,1.091,5.618,2.56,5.618,2.56s-.736-4.843-1.672-5.943a2.6,2.6,0,1,0-3.948,3.385Z" transform="translate(-167.874 -384.41)" fill="#6c63ff"/>
    <path id="Path_523" data-name="Path 523" d="M272.891,351.832c-.321,1.4-3.784,4.877-3.784,4.877s-1.614-4.64-1.285-6.037a2.6,2.6,0,0,1,5.073,1.153Z" transform="translate(-212.44 -279.906)" fill="#fff" opacity="0.5"/>
    <path id="Path_524" data-name="Path 524" d="M280.967,385.354c-1.031,1-5.827,2.039-5.827,2.039s1.174-4.767,2.2-5.765a2.6,2.6,0,0,1,3.623,3.729Z" transform="translate(-218.105 -304.716)" fill="#fff" opacity="0.5"/>
    <path id="Path_525" data-name="Path 525" d="M266.248,440.4c-1.384.344-6.058-1.183-6.058-1.183s3.415-3.521,4.813-3.865a2.6,2.6,0,0,1,1.245,5.048Z" transform="translate(-206.602 -346.56)" fill="#fff" opacity="0.5"/>
    <path id="Path_526" data-name="Path 526" d="M245.551,481.86c-1.317.574-6.171-.143-6.171-.143s2.767-4.049,4.091-4.612a2.6,2.6,0,1,1,2.076,4.765Z" transform="translate(-190.591 -378.574)" fill="#fff" opacity="0.5"/>
    <path id="Path_527" data-name="Path 527" d="M250.4,391.61c.779,1.206,5.226,3.286,5.226,3.286s-.081-4.907-.862-6.113a2.6,2.6,0,1,0-4.363,2.827Z" transform="translate(-198.752 -309.874)" fill="#fff" opacity="0.5"/>
    <path id="Path_528" data-name="Path 528" d="M225.511,437.8c1.1.922,5.97,1.573,5.97,1.573s-1.545-4.658-2.652-5.576a2.6,2.6,0,1,0-3.318,4Z" transform="translate(-179.197 -344.957)" fill="#fff" opacity="0.5"/>
    <path id="Path_529" data-name="Path 529" d="M210.482,488.764c.934,1.091,5.618,2.56,5.618,2.56s-.736-4.843-1.672-5.943a2.6,2.6,0,1,0-3.948,3.385Z" transform="translate(-167.874 -384.41)" fill="#fff" opacity="0.5"/>
    <g id="Group_747" data-name="Group 747" transform="translate(88.094 66.078)" opacity="0.1">
      <path id="Path_530" data-name="Path 530" d="M409.862,337.158a.582.582,0,0,1-.042-.058Z" transform="translate(-409.82 -337.1)" fill="url(#linear-gradient)"/>
    </g>
    <path id="Path_531" data-name="Path 531" d="M575.317,299.477a2.235,2.235,0,0,0,.867,2.02l8.51,7.536c3.284,1.19,3.69,7.433,3.69,7.433a6.2,6.2,0,0,1,.461,2.767,58.377,58.377,0,0,1-1.082,8.832l.03.048-.03.15.03.048-.03.15a9.124,9.124,0,0,0,.528.763,28.536,28.536,0,0,1-3.383,5.576c-1.026.892-3.079,7.532-3.079,7.532l.067-.016-.067.214h.044a9.655,9.655,0,0,0-1.114,3.427,10.385,10.385,0,0,1-.5,2.359,4.648,4.648,0,0,0-.076,2.751,11.907,11.907,0,0,1,.4,2.212,13.838,13.838,0,0,0,1.049,4.186,52.53,52.53,0,0,1,2.246,5.89c.035.332.115.821.208,1.326l-.053.014-2.207,5s-.616,1.384-1.845,1.384a.846.846,0,0,0-.846.943.857.857,0,0,0,.053.411h0v.014c0,.023.021.046.03.069l.021.039a.52.52,0,0,0,.042.067l.028.039.051.062.035.039.06.06.042.039.069.055.051.037.081.051.06.037.09.046.069.035.1.042.078.032.111.037.088.028.125.03.1.023.136.023.108.018.15.016.118.014h.948a2.345,2.345,0,0,0,.367-.03,12.692,12.692,0,0,0,6.978-3.459v-.115h0v-.058l.014-.016s-.258-3.987-1.723-4.889a12.28,12.28,0,0,1-.231-2.248c0-2.767.821-5.551-1.437-10.11a6.473,6.473,0,0,1,.719-2.973,29.508,29.508,0,0,1,1.6-2.781l.1-.012-.164.217s2.668-.2,2.873-1.983a2.156,2.156,0,0,1,.1-.436c.618-1.794,3.6-4.338,4.926-4.52,1.437-.2,4.31,3.171,5.44,5.551.065.136.131.265.2.383,1.1,1.939,2.47,1.5,2.47,1.5-.048-.058-.09-.113-.134-.171a.9.9,0,0,0,.134-.028,4.572,4.572,0,0,1-.334-.461c1.026,1.112,2.117,2.135,2.592,2.733a2.691,2.691,0,0,1,.514,2.576c0,1.787-2.361,7.036-1.746,9.916a8.959,8.959,0,0,1-.475,4.407h-.09c-1.746.66-1.949,3.026-1.935,4.216v.108h0v.5h0v.277a41.314,41.314,0,0,0,9.134,2.767c.148.021.288.037.424.048h.125l.265.016h.475a.946.946,0,0,0,.231-.018h.074q.143-.018.27-.046l.055-.014c.065-.016.125-.03.182-.048l.076-.025.136-.053.069-.032c.041-.021.081-.042.12-.065l.062-.048a1.327,1.327,0,0,0,.134-.1h0a1.15,1.15,0,0,0,.118-.118l.03-.037a1.051,1.051,0,0,0,.065-.088l.028-.046a.771.771,0,0,0,.044-.088l.021-.046a.99.99,0,0,0,.032-.1v-.035a1.025,1.025,0,0,0,.021-.136v-.025a1.079,1.079,0,0,0,0-.111v-.044h0c.06-.609-.422-1.215-.9-1.123-1.026.2-2.361-.992-2.361-.992l-2.807-4.585a6.378,6.378,0,0,1,.754-3.542,49.026,49.026,0,0,0,2.977-6.838s-.205-2.873.616-4.262,0-3.568,0-3.568L610.7,343.24h.461l-.09-.2h.09s-3.079-6.838-4.31-7.631c-.879-.565-2.119-3.747-2.767-5.535.258-.136.4-.231.4-.231s.719-8.622.719-14.067a8.841,8.841,0,0,1,3.69-7.631l8.549-5.06a4.245,4.245,0,0,0,2.567-3.171l-.025-.065c.018-.085.025-.134.025-.134l-.025-.065c.018-.085.025-.134.025-.134l-4.1-10.5c0,.032-.025.06-.037.09-.291-1.81-1.188-4.644-3.966-4.843-4.1-.3-5.535,1.785-4.721,1.983s4.31,1.587,4.31,1.587l1.384,2.23c-.09-.03-.141-.051-.141-.051a.484.484,0,0,1,.2.145l.092.148c-.18-.051-.291-.095-.291-.095a.384.384,0,0,1,.071.039.436.436,0,0,1,.058.037.68.68,0,0,1,.053.053.776.776,0,0,1,.053.058c.018.023.035.048.053.074l.028.042q-.159-.043-.314-.1c1.075.346,1.524,6.865,1.614,8.533l-5.316,2.368s-5.336,0-7.594,1.289c-1.981,1.13-2.936.2-3.139-.044q.208.265.367.512h0l-.058-.039-.053-.037-.044-.035-.048-.042-.016-.014a8.361,8.361,0,0,1-.909-2.8,4.674,4.674,0,0,0-.074-3.782,1.152,1.152,0,0,0,.281.145,4.339,4.339,0,0,1-.461-1.384,4.811,4.811,0,0,0-.127-1.614,1.252,1.252,0,0,0-.083-.145.065.065,0,0,0-.018-.053c-.231-.5-.8-.779-1.153-1.218-.231-.3-.362-.655-.583-.959a2.131,2.131,0,0,0-2.438-.678,3,3,0,0,1-1.015.371,2.279,2.279,0,0,1-.556-.1,4.381,4.381,0,0,0-3.275.613,5.927,5.927,0,0,0-2.149,2.537,5.073,5.073,0,0,0-.48,1.614,14.371,14.371,0,0,0,.028,1.764,6.977,6.977,0,0,0,.291,2.86c.025.055.058.1.085.157a.046.046,0,0,0,.016.042,5.234,5.234,0,0,0,2,1.912l1.017.671.115.076a5.565,5.565,0,0,0-.876-.018c-1.54.1-4.612-1.384-4.612-1.384l-3.206-2.9,1.564-6.416-.06.044.06-.242-.06.044.06-.242c-.03.023-.058.044-.088.065l1.626-2.643s3.489-1.384,4.31-1.587-.616-2.278-4.721-1.983c-3.021.219-3.819,3.549-4.029,5.3-.178-.2-.281-.339-.281-.339l-2.878,6.808a4.856,4.856,0,0,0-.461,2.043C575.315,299.35,575.315,299.417,575.317,299.477Zm23.259,3.459.083.125h0Zm-8.226.028a1.366,1.366,0,0,0,.593-.392,5.114,5.114,0,0,0,.793.231,3.314,3.314,0,0,1-.307.722c-.039-.154-.058-.249-.058-.249a9.722,9.722,0,0,0-1.022-.314Zm-1.737,43.147c.231-.371.461-.733.692-1.075A9.974,9.974,0,0,1,588.614,346.111Z" transform="translate(-449.053 -230.194)" fill="url(#linear-gradient-2)"/>
    <path id="Path_532" data-name="Path 532" d="M696.746,535.33l2.94,5.881s.784,2.156,0,3.528-.588,4.216-.588,4.216a49.209,49.209,0,0,1-2.843,6.764c-1.275,2.152-.491,5.3-.491,5.3l-5.1.588s1.96-3.824,1.384-6.667,1.667-8.034,1.667-9.8a2.732,2.732,0,0,0-.491-2.548c-.982-1.273-4.7-4.508-4.612-6.372Z" transform="translate(-536.227 -423.538)" fill="#f7bbc3"/>
    <path id="Path_533" data-name="Path 533" d="M601.9,529.38a12.307,12.307,0,0,0-2.1,5.143,10.614,10.614,0,0,1-.461,2.331,4.75,4.75,0,0,0-.074,2.721,12.162,12.162,0,0,1,.383,2.188,14.1,14.1,0,0,0,1,4.151,54.727,54.727,0,0,1,2.145,5.825c.1.98.588,3.332.588,3.332l3.92,1.471a16.972,16.972,0,0,1-1.176-5.588c0-2.744.784-5.488-1.384-10a6.573,6.573,0,0,1,.692-2.94c.791-1.764,3.824-6.372,3.824-6.372Z" transform="translate(-467.356 -418.961)" fill="#f7bbc3"/>
    <path id="Path_534" data-name="Path 534" d="M613.976,490.074c.323.351-1.34,2.583-1.34,2.583s2.548-.2,2.744-1.96a2.2,2.2,0,0,1,.1-.431c.59-1.773,3.441-4.289,4.7-4.469,1.384-.2,4.116,3.136,5.2,5.489.062.136.125.261.189.378,1.054,1.919,2.359,1.485,2.359,1.485-.692-.853-.835-1.529-.618-2.076.858-2.115,7.283-2.052,7.283-2.052s-2.94-6.764-4.116-7.548-3.039-6.667-3.039-6.667-14.019-1.568-14.116-.883-2.843,6.079-3.823,6.96-2.938,7.453-2.938,7.453c3.332-.98,7.008,1.421,7.4,1.716Z" transform="translate(-473.096 -376.159)" opacity="0.1"/>
    <path id="Path_535" data-name="Path 535" d="M613.969,489.224c.323.351-1.34,2.583-1.34,2.583s2.548-.2,2.744-1.96a2.2,2.2,0,0,1,.1-.431c.59-1.773,3.441-4.289,4.7-4.469,1.384-.2,4.116,3.136,5.2,5.489.062.136.125.261.189.378,1.054,1.919,2.359,1.485,2.359,1.485-.692-.853-.835-1.529-.618-2.075.858-2.115,7.283-2.052,7.283-2.052s-2.94-6.764-4.116-7.548-3.039-6.667-3.039-6.667-14.019-1.568-14.116-.883-2.843,6.079-3.823,6.96-2.94,7.451-2.94,7.451c3.332-.98,7.008,1.421,7.4,1.716Z" transform="translate(-473.088 -375.505)" fill="#565171"/>
    <path id="Path_536" data-name="Path 536" d="M699,638.84l2.7,4.559s1.275,1.176,2.255.98,1.96,2.744-2.059,2.156a38.689,38.689,0,0,1-8.724-2.744s-.44-3.971,1.813-4.843Z" transform="translate(-539.701 -503.178)" opacity="0.1"/>
    <path id="Path_537" data-name="Path 537" d="M600.062,631.435l-2.108,4.951s-.588,1.384-1.764,1.384-1.568,2.451,2.255,2.059a12,12,0,0,0,6.667-3.431s-.3-4.7-2.059-5A7.519,7.519,0,0,0,600.062,631.435Z" transform="translate(-464.49 -497.351)" opacity="0.1"/>
    <path id="Path_538" data-name="Path 538" d="M699,639.69l2.7,4.559s1.275,1.176,2.255.98,1.96,2.744-2.059,2.156a38.69,38.69,0,0,1-8.724-2.744s-.44-3.971,1.813-4.843Z" transform="translate(-539.701 -503.832)" fill="#b77983"/>
    <path id="Path_539" data-name="Path 539" d="M600.062,632.325l-2.108,4.951s-.588,1.384-1.764,1.384-1.568,2.451,2.255,2.059a12,12,0,0,0,6.667-3.431s-.3-4.7-2.059-5A7.52,7.52,0,0,0,600.062,632.325Z" transform="translate(-464.49 -498.035)" fill="#b77983"/>
    <g id="Group_748" data-name="Group 748" transform="translate(133.459 97.404)" opacity="0.1">
      <path id="Path_540" data-name="Path 540" d="M613.795,473.115c-.1.692-2.843,6.079-3.823,6.96-.9.809-2.627,6.416-2.9,7.324-.178.035-.353.074-.528.125,0,0,1.96-6.568,2.94-7.451s3.724-6.275,3.824-6.96c.018-.136.593-.185,1.494-.171C614.189,472.954,613.813,473,613.795,473.115Z" transform="translate(-606.54 -472.94)"/>
      <path id="Path_541" data-name="Path 541" d="M667.362,525.1c1.384-.2,4.116,3.136,5.2,5.489.062.136.124.261.189.378a2.567,2.567,0,0,0,1.776,1.506c-.316.058-1.384.106-2.267-1.506-.065-.118-.127-.242-.189-.378-.989-2.159-3.379-5.138-4.827-5.466Z" transform="translate(-653.242 -513.067)"/>
      <path id="Path_542" data-name="Path 542" d="M620.47,537.137l-.016-.016A11.375,11.375,0,0,0,615,535.177a10.993,10.993,0,0,1,5.945,1.944l.016.016c.284.309-.966,2.075-1.273,2.491a4.454,4.454,0,0,1-.556.09S620.793,537.487,620.47,537.137Z" transform="translate(-613.049 -520.821)"/>
    </g>
    <path id="Path_543" data-name="Path 543" d="M719.269,292.409s0-5.98-3.92-6.275-5.3,1.764-4.508,1.96,4.116,1.568,4.116,1.568l2.156,3.628Z" transform="translate(-553.162 -231.787)" fill="#f7bbc3"/>
    <path id="Path_544" data-name="Path 544" d="M594.23,298.359s0-5.98,3.92-6.275,5.3,1.764,4.508,1.96-4.116,1.568-4.116,1.568l-2.156,3.627Z" transform="translate(-463.609 -236.365)" fill="#f7bbc3"/>
    <path id="Path_545" data-name="Path 545" d="M647.3,346.17s-.3,3.92,2.156,6.176-5.684,5.1-5.684,5.1l-3.628-4.312a3.627,3.627,0,0,0,1.384-4.8Z" transform="translate(-498.932 -278.001)" fill="#f7bbc3"/>
    <path id="Path_546" data-name="Path 546" d="M601.488,321.633s.883,1.384,3.039.1,7.255-1.287,7.255-1.287l5.1-2.352s-.392-8.431-1.568-8.823c0,0,2.352.98,3.039-.98l3.92,10.391a4.191,4.191,0,0,1-2.451,3.136l-8.136,5s-3.528,2.156-3.528,7.548-.692,13.92-.692,13.92-11.371,6.863-15.979-1.176c0,0,1.863-9.508.588-11.863,0,0-.392-6.176-3.528-7.352l-8.131-7.449s-1.568-.98-.392-3.824l2.744-6.764s1.667,2.352,3.039,1.176l-1.568,6.667,3.136,2.94s2.94,1.471,4.412,1.384a8.511,8.511,0,0,1,3.136.588s.692,3.92,3.823,3.528C598.744,326.142,604.724,325.849,601.488,321.633Z" transform="translate(-452.34 -248.856)" opacity="0.1"/>
    <path id="Path_547" data-name="Path 547" d="M601.473,319.972s.883,1.384,3.039.1,7.255-1.275,7.255-1.275l5.1-2.352s-.392-8.431-1.568-8.823c0,0,2.352.98,3.039-.98l3.92,10.391a4.191,4.191,0,0,1-2.451,3.136l-8.136,5s-3.528,2.156-3.528,7.548-.692,13.92-.692,13.92-11.371,6.863-15.979-1.176c0,0,1.863-9.508.588-11.863,0,0-.392-6.176-3.528-7.352l-8.136-7.451s-1.568-.98-.392-3.823l2.744-6.764s1.667,2.352,3.039,1.176l-1.568,6.667,3.136,2.94s2.94,1.471,4.412,1.384a8.51,8.51,0,0,1,3.136.588s.692,3.92,3.824,3.528C598.729,324.48,604.708,324.187,601.473,319.972Z" transform="translate(-452.325 -247.587)" opacity="0.1"/>
    <path id="Path_548" data-name="Path 548" d="M674.59,365.33l.039.053Z" transform="translate(-525.438 -292.742)" fill="#d39999"/>
    <path id="Path_549" data-name="Path 549" d="M580.416,319.653l8.136,7.451c3.136,1.176,3.528,7.352,3.528,7.352,1.275,2.352-.588,11.863-.588,11.863,4.612,8.039,15.979,1.176,15.979,1.176s.023-.281.06-.777c.032-.434.076-1.033.125-1.746.065-.922.138-2.036.208-3.245.155-2.64.3-5.717.3-8.152,0-5.392,3.528-7.548,3.528-7.548l6.1-3.75,2.034-1.25a4.194,4.194,0,0,0,2.451-3.136l-3.92-10.391c-.641,1.831-2.737,1.1-3.009.992,1.153.521,1.538,8.812,1.538,8.812l-5.1,2.352s-5.1,0-7.255,1.275c-1.845,1.084-2.747.254-2.977-.021,3.1,4.151-2.807,4.43-2.807,4.43-3.136.392-3.824-3.528-3.824-3.528a8.173,8.173,0,0,0-3.136-.588c-1.469.1-4.411-1.384-4.411-1.384l-3.136-2.94,1.568-6.667c-1.384,1.176-3.039-1.176-3.039-1.176l-2.744,6.764C578.847,318.673,580.416,319.653,580.416,319.653Z" transform="translate(-452.343 -248.248)" fill="#3dc7c7"/>
    <path id="Path_550" data-name="Path 550" d="M651.858,347.87a9.423,9.423,0,0,0,.095,1.845,4.8,4.8,0,0,1-5.535,2.89,3.459,3.459,0,0,0-.348-2.574Z" transform="translate(-503.495 -279.309)" opacity="0.1"/>
    <circle id="Ellipse_91" data-name="Ellipse 91" cx="4.804" cy="4.804" r="4.804" transform="translate(139.199 63.417)" fill="#f7bbc3"/>
    <path id="Path_551" data-name="Path 551" d="M628.866,317.8a2.641,2.641,0,0,1-.148,1.439,2.606,2.606,0,0,1-.461.59l-1.005,1.035a2.65,2.65,0,0,0-.717,1.022c-.291.969.567,1.93.54,2.943a1.31,1.31,0,0,1-1.485.549,2.534,2.534,0,0,1-.62-.344l-.985-.671a5.046,5.046,0,0,1-1.909-1.891,7.117,7.117,0,0,1-.279-2.83,14.7,14.7,0,0,1-.025-1.746,5.142,5.142,0,0,1,.461-1.6,5.814,5.814,0,0,1,2.052-2.5,4.07,4.07,0,0,1,3.127-.607,2.109,2.109,0,0,0,.53.095,2.634,2.634,0,0,0,.969-.367,1.993,1.993,0,0,1,2.327.671c.212.3.334.657.556.948.33.434.867.708,1.091,1.2a4.851,4.851,0,0,1,.122,1.6,4.4,4.4,0,0,0,.436,1.372c-.544-.189-.809-.784-1.153-1.241a3.055,3.055,0,0,0-2.248-1.139c-.3-.014-.856-.037-1.093.191C628.645,316.821,628.836,317.448,628.866,317.8Z" transform="translate(-484.788 -252.316)" opacity="0.1"/>
    <path id="Path_552" data-name="Path 552" d="M628.447,316.977a2.641,2.641,0,0,1-.148,1.439,2.607,2.607,0,0,1-.461.59l-1.019,1.04a2.649,2.649,0,0,0-.717,1.015c-.291.969.567,1.93.54,2.943a1.31,1.31,0,0,1-1.485.549,2.536,2.536,0,0,1-.62-.344l-.971-.662a5.046,5.046,0,0,1-1.909-1.891,7.117,7.117,0,0,1-.279-2.83,14.717,14.717,0,0,1-.025-1.746,5.143,5.143,0,0,1,.461-1.6,5.814,5.814,0,0,1,2.052-2.5,4.07,4.07,0,0,1,3.127-.607,2.109,2.109,0,0,0,.53.095,2.634,2.634,0,0,0,.969-.367,1.993,1.993,0,0,1,2.327.671c.212.3.334.657.556.948.33.434.867.708,1.091,1.2a4.851,4.851,0,0,1,.122,1.6,4.4,4.4,0,0,0,.436,1.372c-.544-.189-.809-.784-1.153-1.241a3.056,3.056,0,0,0-2.248-1.139c-.3-.014-.856-.037-1.093.191C628.223,315.994,628.407,316.619,628.447,316.977Z" transform="translate(-484.464 -251.685)" fill="#74585e"/>
    <g id="Group_749" data-name="Group 749" transform="translate(127.243 59.249)" opacity="0.1">
      <path id="Path_553" data-name="Path 553" d="M674.612,365.355c-.028-.035-.042-.055-.042-.055Z" transform="translate(-652.665 -351.968)"/>
      <path id="Path_554" data-name="Path 554" d="M602.77,319.717a1.262,1.262,0,0,0,.874-.327l-.095.4A1.384,1.384,0,0,1,602.77,319.717Z" transform="translate(-597.423 -316.646)"/>
      <path id="Path_555" data-name="Path 555" d="M663.673,366.07c2.456,3.77-3.074,4.045-3.074,4.045a3.051,3.051,0,0,1-1.259-.09,3.277,3.277,0,0,0,.768,0s5.927-.293,2.786-4.455a1.6,1.6,0,0,0,.779.5Z" transform="translate(-640.947 -352.176)"/>
      <path id="Path_556" data-name="Path 556" d="M630.688,366.961a4.136,4.136,0,0,1-1.178-.141,3.193,3.193,0,0,0,.692.044,6.429,6.429,0,0,1,1.815.182A5.766,5.766,0,0,0,630.688,366.961Z" transform="translate(-617.996 -353.138)"/>
      <path id="Path_557" data-name="Path 557" d="M580.021,321.054l2.744-6.764a5,5,0,0,0,.355.431l-2.608,6.42c-1.176,2.843.392,3.824.392,3.824l8.136,7.451c3.136,1.176,3.528,7.352,3.528,7.352,1.275,2.352-.588,11.863-.588,11.863a7.323,7.323,0,0,0,4.82,3.671,7.285,7.285,0,0,1-5.3-3.77s1.863-9.508.588-11.863c0,0-.392-6.176-3.528-7.352l-8.143-7.439S578.845,323.9,580.021,321.054Z" transform="translate(-579.583 -312.722)"/>
      <path id="Path_558" data-name="Path 558" d="M692.471,311.74a3.637,3.637,0,0,0,.62.178c1.075.943,1.437,8.742,1.437,8.742l-5.1,2.352s-5.1,0-7.255,1.275a2.71,2.71,0,0,1-2.306.44,3.2,3.2,0,0,0,1.806-.537c2.156-1.275,7.255-1.275,7.255-1.275l5.1-2.352S693.647,312.132,692.471,311.74Z" transform="translate(-656.743 -310.76)"/>
      <path id="Path_559" data-name="Path 559" d="M738.22,308.687a1.84,1.84,0,0,0,2.184-1.2l.231.611A2.176,2.176,0,0,1,738.22,308.687Z" transform="translate(-701.637 -307.49)"/>
    </g>
    <path id="Path_560" data-name="Path 560" d="M701.02,391.02c.154-2.64.3-5.717.3-8.152,0-5.392,3.528-7.548,3.528-7.548l6.1-3.75c-3.551.922-8.277,2.511-8.7,4.382-.692,3.039-1.96,3.332-1.471,8.533A58.77,58.77,0,0,1,701.02,391.02Z" transform="translate(-545.5 -297.543)" opacity="0.1"/>
    <path id="Path_561" data-name="Path 561" d="M697.643,488.36a4.146,4.146,0,0,0,1.568,4.508" transform="translate(-543.055 -387.4)" opacity="0.1"/>
    <path id="Path_562" data-name="Path 562" d="M633.741,488.36a4.725,4.725,0,0,1-1.471,2.843" transform="translate(-492.877 -387.4)" opacity="0.1"/>
    <path id="Path_563" data-name="Path 563" d="M693.163,657.5a38.686,38.686,0,0,0,8.724,2.744c2.039.3,2.79-.311,2.908-.957.134.754-.461,1.709-2.908,1.349a38.687,38.687,0,0,1-8.724-2.744,8.287,8.287,0,0,1-.032-.98C693.137,657.267,693.163,657.5,693.163,657.5Z" transform="translate(-539.7 -517.081)" opacity="0.1"/>
    <path id="Path_564" data-name="Path 564" d="M598.527,644.244a12,12,0,0,0,6.667-3.431,12.812,12.812,0,0,0-.842-3.8,12.179,12.179,0,0,1,.941,4,12,12,0,0,1-6.667,3.432c-1.953.2-2.807-.341-3.016-.922C595.93,644.018,596.8,644.422,598.527,644.244Z" transform="translate(-464.671 -501.77)" opacity="0.1"/>
    <path id="Path_565" data-name="Path 565" d="M628.2,203.667a8.648,8.648,0,1,0,1.8-5.276,8.648,8.648,0,0,0-1.8,5.276Z" transform="translate(-489.746 -161.709)" fill="url(#linear-gradient-3)"/>
    <path id="Path_566" data-name="Path 566" d="M629.58,204.75a8.332,8.332,0,1,0,1.732-5.073A8.332,8.332,0,0,0,629.58,204.75Z" transform="translate(-490.807 -162.791)" fill="#e0e0e0"/>
    <line id="Line_58" data-name="Line 58" y2="3.233" transform="translate(142.435 37.865)" fill="none" stroke="#535461" stroke-miterlimit="10" stroke-width="1"/>
    <line id="Line_59" data-name="Line 59" x1="3.374" y2="2.228" transform="translate(145.237 40.81)" fill="none" stroke="#535461" stroke-miterlimit="10" stroke-width="1"/>
    <line id="Line_60" data-name="Line 60" x2="3.95" y2="1.651" transform="translate(145.237 35.856)" fill="none" stroke="#535461" stroke-miterlimit="10" stroke-width="1"/>
    <line id="Line_61" data-name="Line 61" x1="0.217" y2="5.027" transform="translate(151.627 41.384)" fill="none" stroke="#535461" stroke-miterlimit="10" stroke-width="1"/>
    <line id="Line_62" data-name="Line 62" x1="4.453" y1="2.225" transform="translate(144.734 45.694)" fill="none" stroke="#535461" stroke-miterlimit="10" stroke-width="1"/>
    <line id="Line_63" data-name="Line 63" y2="2.807" transform="translate(142.435 46.054)" fill="none" stroke="#535461" stroke-miterlimit="10" stroke-width="1"/>
    <line id="Line_64" data-name="Line 64" x1="1.942" y1="0.86" transform="translate(138.842 43.038)" fill="none" stroke="#535461" stroke-miterlimit="10" stroke-width="1"/>
    <line id="Line_65" data-name="Line 65" x1="0.148" y1="2.35" transform="translate(151.479 34.869)" fill="none" stroke="#535461" stroke-miterlimit="10" stroke-width="1"/>
    <line id="Line_66" data-name="Line 66" x2="2.408" y2="0.687" transform="translate(152.921 39.95)" fill="none" stroke="#535461" stroke-miterlimit="10" stroke-width="1"/>
    <path id="Path_567" data-name="Path 567" d="M649.4,162.463l-1.866-3.233-3.088.5v3.591l3.3,1.725Z" transform="translate(-495.837 -122.513)" fill="#028090"/>
    <path id="Path_568" data-name="Path 568" d="M637.09,200.176l1.932.989c.646-.862,3.3-1.868,3.3-1.868l-.277-2.207A8.32,8.32,0,0,0,637.09,200.176Z" transform="translate(-496.586 -163.3)" fill="#028090"/>
    <path id="Path_569" data-name="Path 569" d="M614.494,179.81l-3.376-1.58-1.868,2.657,1.939,3.088,3.3-.5Z" transform="translate(-468.755 -137.132)" fill="#028090"/>
    <path id="Path_570" data-name="Path 570" d="M672.24,250.466v2.654a8.33,8.33,0,0,0,5.371-3.494l-2.354-.966Z" transform="translate(-523.63 -202.977)" fill="#028090"/>
    <path id="Path_571" data-name="Path 571" d="M136.3,473.9a7.255,7.255,0,1,0,1.506-4.425A7.255,7.255,0,0,0,136.3,473.9Z" transform="translate(-111.283 -370.694)" fill="url(#linear-gradient-4)"/>
    <path id="Path_572" data-name="Path 572" d="M137.46,474.79a6.987,6.987,0,1,0,1.451-4.264A6.987,6.987,0,0,0,137.46,474.79Z" transform="translate(-112.175 -371.582)" fill="#e0e0e0"/>
    <line id="Line_67" data-name="Line 67" y2="2.712" transform="translate(28.357 99.774)" fill="none" stroke="#535461" stroke-miterlimit="10" stroke-width="1"/>
    <line id="Line_68" data-name="Line 68" x1="2.832" y2="1.868" transform="translate(30.704 102.244)" fill="none" stroke="#535461" stroke-miterlimit="10" stroke-width="1"/>
    <line id="Line_69" data-name="Line 69" x2="3.314" y2="1.386" transform="translate(30.704 98.089)" fill="none" stroke="#535461" stroke-miterlimit="10" stroke-width="1"/>
    <line id="Line_70" data-name="Line 70" x1="0.18" y2="4.218" transform="translate(36.066 102.726)" fill="none" stroke="#535461" stroke-miterlimit="10" stroke-width="1"/>
    <line id="Line_71" data-name="Line 71" x1="3.736" y1="1.868" transform="translate(30.282 106.34)" fill="none" stroke="#535461" stroke-miterlimit="10" stroke-width="1"/>
    <line id="Line_72" data-name="Line 72" y2="2.355" transform="translate(28.357 106.642)" fill="none" stroke="#535461" stroke-miterlimit="10" stroke-width="1"/>
    <line id="Line_73" data-name="Line 73" x1="1.628" y1="0.722" transform="translate(25.342 104.112)" fill="none" stroke="#535461" stroke-miterlimit="10" stroke-width="1"/>
    <line id="Line_74" data-name="Line 74" x1="0.125" y1="1.969" transform="translate(35.941 97.263)" fill="none" stroke="#535461" stroke-miterlimit="10" stroke-width="1"/>
    <line id="Line_75" data-name="Line 75" x2="2.02" y2="0.577" transform="translate(37.15 101.523)" fill="none" stroke="#535461" stroke-miterlimit="10" stroke-width="1"/>
    <path id="Path_577" data-name="Path 577" d="M113.2,511.713a7.255,7.255,0,1,0,1.506-4.425A7.255,7.255,0,0,0,113.2,511.713Z" transform="translate(-93.51 -399.785)" fill="url(#linear-gradient-5)"/>
    <path id="Path_578" data-name="Path 578" d="M114.36,512.6a6.987,6.987,0,1,0,1.451-4.264A6.987,6.987,0,0,0,114.36,512.6Z" transform="translate(-94.402 -400.672)" fill="#e0e0e0"/>
    <line id="Line_76" data-name="Line 76" y2="2.71" transform="translate(23.029 108.494)" fill="none" stroke="#535461" stroke-miterlimit="10" stroke-width="1"/>
    <line id="Line_77" data-name="Line 77" x1="2.83" y2="1.868" transform="translate(25.379 110.964)" fill="none" stroke="#535461" stroke-miterlimit="10" stroke-width="1"/>
    <line id="Line_78" data-name="Line 78" x2="3.312" y2="1.386" transform="translate(25.379 106.808)" fill="none" stroke="#535461" stroke-miterlimit="10" stroke-width="1"/>
    <line id="Line_79" data-name="Line 79" x1="0.18" y2="4.216" transform="translate(30.739 111.446)" fill="none" stroke="#535461" stroke-miterlimit="10" stroke-width="1"/>
    <line id="Line_80" data-name="Line 80" x1="3.734" y1="1.868" transform="translate(24.957 115.059)" fill="none" stroke="#535461" stroke-miterlimit="10" stroke-width="1"/>
    <line id="Line_81" data-name="Line 81" y2="2.355" transform="translate(23.029 115.361)" fill="none" stroke="#535461" stroke-miterlimit="10" stroke-width="1"/>
    <line id="Line_82" data-name="Line 82" x1="1.628" y1="0.722" transform="translate(20.015 112.832)" fill="none" stroke="#535461" stroke-miterlimit="10" stroke-width="1"/>
    <line id="Line_83" data-name="Line 83" x1="0.125" y1="1.969" transform="translate(30.614 105.983)" fill="none" stroke="#535461" stroke-miterlimit="10" stroke-width="1"/>
    <line id="Line_84" data-name="Line 84" x2="2.02" y2="0.577" transform="translate(31.823 110.242)" fill="none" stroke="#535461" stroke-miterlimit="10" stroke-width="1"/>
    <g id="Group_778" data-name="Group 778">
      <path id="Path_573" data-name="Path 573" d="M149.6,431.21l-1.566-2.71-2.59.42v3.012l2.77,1.446Z" transform="translate(-111.904 -329.687)" fill="#028090"/>
      <path id="Path_574" data-name="Path 574" d="M143.75,471.01l1.614.83a9.044,9.044,0,0,1,2.767-1.566l-.231-1.845A6.978,6.978,0,0,0,143.75,471.01Z" transform="translate(-117.015 -372.066)" fill="#028090"/>
      <path id="Path_575" data-name="Path 575" d="M120.318,445.754l-2.83-1.324-1.568,2.228,1.628,2.59,2.77-.422Z" transform="translate(-89.192 -341.944)" fill="#028090"/>
      <path id="Path_576" data-name="Path 576" d="M173.24,513.2v2.235a6.985,6.985,0,0,0,4.5-2.931l-1.974-.809Z" transform="translate(-139.704 -405.35)" fill="#028090"/>
      <path id="Path_579" data-name="Path 579" d="M126.5,469.012,124.93,466.3l-2.59.422v3.012l2.772,1.446Z" transform="translate(-94.131 -358.77)" fill="#028090"/>
      <path id="Path_580" data-name="Path 580" d="M120.65,508.821l1.614.83a9.044,9.044,0,0,1,2.767-1.566l-.231-1.845a6.978,6.978,0,0,0-4.151,2.581Z" transform="translate(-99.242 -401.157)" fill="#028090"/>
      <path id="Path_581" data-name="Path 581" d="M97.225,483.556,94.4,482.23l-1.566,2.23,1.626,2.59,2.77-.422Z" transform="translate(-71.426 -371.026)" fill="#028090"/>
      <path id="Path_582" data-name="Path 582" d="M150.14,550.991v2.235a6.986,6.986,0,0,0,4.5-2.927l-1.974-.809Z" transform="translate(-121.931 -434.433)" fill="#028090"/>
    </g>
  </g>
</svg>
