<svg xmlns="http://www.w3.org/2000/svg" width="9.481" height="9.086" viewBox="0 0 9.481 9.086">
  <path id="star" d="M2.123,9.579a.5.5,0,0,1-.491-.616l.61-2.687L.173,4.461a.5.5,0,0,1,.286-.882L3.2,3.331,4.278.8A.5.5,0,0,1,5.2.8L6.287,3.331l2.737.248a.5.5,0,0,1,.286.882L7.241,6.275l.61,2.687a.5.5,0,0,1-.75.544L4.741,8.1,2.381,9.507a.505.505,0,0,1-.258.072Zm2.619-2.09A.505.505,0,0,1,5,7.56L7.227,8.892,6.651,6.356a.5.5,0,0,1,.16-.491L8.764,4.152,6.18,3.917a.5.5,0,0,1-.419-.305l-1.02-2.39L3.72,3.612a.5.5,0,0,1-.418.3L.718,4.151,2.671,5.864a.5.5,0,0,1,.16.491L2.255,8.892,4.483,7.56a.5.5,0,0,1,.258-.071ZM3.175,3.38h0Zm3.132,0h0Zm0,0" transform="translate(-0.001 -0.492)" opacity="0.7"/>
</svg>
