<?xml version="1.0" encoding="UTF-8"?>
<svg xmlns="http://www.w3.org/2000/svg" id="Layer_1" data-name="Layer 1" viewBox="0 0 512 512" width="512" height="512"><path d="M166.878,291H147.886a6,6,0,1,0,0,12h18.992a6,6,0,0,0,0-12Z"/><path d="M250.614,290H189a6,6,0,1,0,0,12h61.613a6,6,0,0,0,0-12Z"/><path d="M277.807,290H273a6,6,0,0,0,0,12h4.806a6,6,0,0,0,0-12Z"/><path d="M487.444,251.958l-59.909-40.571a6,6,0,0,0-9.364,5.061L418.523,239H343V215.918l21.948-28.331A102.483,102.483,0,0,0,380.164,89.6c-11.834-32.518-39.4-56.872-73.8-65.15L270.9,15.911a18.389,18.389,0,0,0-8.588,35.762L274.064,54.5,94.241,225.087l-16.5-5.013a6.033,6.033,0,0,0-2.166-.245L27.5,223.219a6,6,0,0,0-4.8,8.946L36.221,256,23.573,278.218a6,6,0,0,0,4.4,8.912l48.078,6.61a6.063,6.063,0,0,0,.817.056,5.982,5.982,0,0,0,1.964-.331l17-5.887L274.1,457.491l-11.787,2.836a18.391,18.391,0,1,0,8.6,35.762l42.521-10.232a102.794,102.794,0,0,0,60-159.241L343,283.488V273h76.06l.35,22.544a6.152,6.152,0,0,0,3.2,5.309,6.042,6.042,0,0,0,2.8.744,5.975,5.975,0,0,0,3.306-.968l58.67-38.707a5.989,5.989,0,0,0,.06-9.964ZM38.387,276.449l9.95-17.481a6,6,0,0,0,0-5.928L37.835,234.52l32.253-2.274.681,48.655Zm317.2-96.179-20.84,27.087-14.262-2.426,24.971-32.455a77.84,77.84,0,0,0,13.471-68.155l11.95-4.739A90.467,90.467,0,0,1,355.589,180.27ZM331,218.943V239H319V216.769ZM265.117,40.006a6.391,6.391,0,0,1,2.991-12.428l35.485,8.538c28.534,6.866,51.771,26.172,63.2,52.178L354.9,93.011a77.831,77.831,0,0,0-53.1-44.179ZM82.749,279.408l-.636-45.465,28.062,8.527.447,27.283Zm25.838,3.75,10.069-3.489a6.252,6.252,0,0,0,4.036-5.963l-.009-.706H307v16.3a18.074,18.074,0,0,0,3.1,10.57l33.51,47.884A65.23,65.23,0,0,1,351.32,409.1a66.984,66.984,0,0,1-47.315,41.2L288,454.15ZM310.628,474.19l-42.521,10.232a6.391,6.391,0,0,1-2.99-12.428l41.665-10.025a79.128,79.128,0,0,0,53.356-43.088l11.983,4.56A90.846,90.846,0,0,1,310.628,474.19Zm53.143-140.677a90.848,90.848,0,0,1,12.589,78.7l-11.973-4.556a76.942,76.942,0,0,0-11.076-66.8l-29.594-42.137,11.622-5.693ZM319,287.9V273h12v8.643ZM122.487,261l-.171-10H196a6,6,0,0,0,0-12H122.12l-.018-1.1a6,6,0,0,0-4.255-5.643l-10.4-3.16L287.973,57.848,298.991,60.5a66.154,66.154,0,0,1,36.956,104.659l-25.372,33.29A18.259,18.259,0,0,0,307,209.662V239H236a6,6,0,0,0,0,12H418.711l.162,10Zm308.75,23.61-.888-56.824,42.935,29.076Z"/></svg>
