<?xml version="1.0" encoding="UTF-8"?>
<svg xmlns="http://www.w3.org/2000/svg" id="Layer_1" data-name="Layer 1" viewBox="0 0 512 512" width="512" height="512"><path d="M216,473.472a6,6,0,0,0,6-6V416.858a6,6,0,1,0-12,0v50.614A6,6,0,0,0,216,473.472Z"/><path d="M216,374.119a6,6,0,0,0,6-6V340.858a6,6,0,1,0-12,0v27.261A6,6,0,0,0,216,374.119Z"/><path d="M216,400.472a6,6,0,0,0,6-6v-4.806a6,6,0,1,0-12,0v4.806A6,6,0,0,0,216,400.472Z"/><path d="M74.156,503H437.844A6.135,6.135,0,0,0,444,497V416.012A6.146,6.146,0,0,0,437.844,410H329V310.068A6.086,6.086,0,0,0,322.932,304H315v-6.321A17.877,17.877,0,0,0,296.852,280H294V262.75c0-3.313-3.061-5.75-6.375-5.75H277V212.732C303,204.919,324.3,182,331.209,154H333V256.168a6.254,6.254,0,0,0,10.955,3.853l19.5-23.213,19.47,23.213a6.029,6.029,0,0,0,4.616,2.147,7.362,7.362,0,0,0,2.278-.361A6.217,6.217,0,0,0,394,256.168V122.226c8-11.962,12-26.463,12-42.086V56.53A5.4,5.4,0,0,0,400.264,51H334V45.423A18.388,18.388,0,0,0,347.82,27.5,18.676,18.676,0,0,0,329.14,9H182.86a18.676,18.676,0,0,0-18.68,18.5A18.389,18.389,0,0,0,178,45.423V51H111.736A5.4,5.4,0,0,0,106,56.53V80.14c0,15.623,4,30.124,12,42.086V256.168a6.239,6.239,0,0,0,10.934,3.853l19.5-23.213L167.9,260.021a6.028,6.028,0,0,0,4.615,2.147,7.444,7.444,0,0,0,2.292-.361A6.23,6.23,0,0,0,179,256.168V154h1.586C187.258,183,208,205.161,235,212.86V257H224.375c-3.314,0-6.375,2.437-6.375,5.75V280h-2.852A17.877,17.877,0,0,0,197,297.679V304h-8.107A5.893,5.893,0,0,0,183,309.893V371H74.156A5.885,5.885,0,0,0,68,376.7V497A6.135,6.135,0,0,0,74.156,503ZM329,422H432v69H329Zm-7-306H285.687l14.363-14H322Zm0-26H294.694l-21.986-3.318L261.38,63.667a5.994,5.994,0,0,0-10.76-.046L239.292,86.689,217.306,90H190V46H322Zm-51.326,27.258,2.805,16.354-14.687-7.721a6,6,0,0,0-5.584,0l-14.687,7.721,2.805-16.354a6,6,0,0,0-1.725-5.31l-11.882-11.582,16.42-2.387a6,6,0,0,0,4.518-3.282L256,79.818,263.343,94.7a6,6,0,0,0,4.518,3.282l16.42,2.387L272.4,111.948A6,6,0,0,0,270.674,117.258ZM226.313,116H190V102h21.95ZM382,239.659,368.336,223.61a6.231,6.231,0,0,0-4.711-2.147,6.62,6.62,0,0,0-4.892,2.147L345,239.659V153.387a71.919,71.919,0,0,0,37-17.31ZM394,63V80.14c0,34.233-26.441,61.86-59.266,61.86h-1.5c.149-1,.249-3,.313-4h1.185C364.967,138,390,111.781,390,80.14V73.231A6.589,6.589,0,0,0,383.562,67H334V63Zm-60,63V79h44v1.14c0,25.024-19.65,45.86-43.266,45.86ZM167,239.659,153.323,223.61a6.249,6.249,0,0,0-4.718-2.147,6.6,6.6,0,0,0-4.882,2.147L130,239.659V136.077a71.919,71.919,0,0,0,37,17.31ZM177.266,142C144.441,142,118,114.373,118,80.14V63h60v4H128.437A6.588,6.588,0,0,0,122,73.231V80.14c0,31.641,25.033,57.86,55.266,57.86h1.154c.046,1,.13,3,.262,4ZM178,79v47h-.734C153.65,126,134,105.164,134,80.14V79Zm-1.64-51.5a6.508,6.508,0,0,1,6.5-6.5H329.14a6.5,6.5,0,0,1,0,13H182.86A6.508,6.508,0,0,1,176.36,27.5ZM190,135.065V128h37.351l-2.712,15.69a5.9,5.9,0,0,0,2.387,5.806,5.991,5.991,0,0,0,6.318.426L256,138l22.656,11.9a6.008,6.008,0,0,0,6.318-.463,5.8,5.8,0,0,0,2.387-5.745L284.649,128H322v6.667c-1,38.083-30.187,69.065-66.166,69.065C219.731,203.732,190,172.928,190,135.065Zm75,80.128V257H247V215.244a85.166,85.166,0,0,0,8.834.488A82.106,82.106,0,0,0,265,215.193ZM230,269h52v11H230Zm-21,28.679A5.871,5.871,0,0,1,215.148,292h81.7A5.871,5.871,0,0,1,303,297.679V304H209ZM80,383H183v7a6,6,0,0,0,12,0V316H317V491H195V430a6,6,0,0,0-12,0v61H80Z"/></svg>
