<svg id="Layer_1" height="512" viewBox="0 0 512 512" width="512" xmlns="http://www.w3.org/2000/svg" data-name="Layer 1"><path d="m205.323 445.787a5.988 5.988 0 0 0 2.529-.562l17.218-8.015a6 6 0 1 0 -5.064-10.879l-17.218 8.015a6 6 0 0 0 2.535 11.441z"/><path d="m242.343 427.887a5.984 5.984 0 0 0 2.528-.562l73.99-34.441a6 6 0 1 0 -5.064-10.879l-73.99 34.441a6 6 0 0 0 2.536 11.441z"/><path d="m360.521 372.877a5.972 5.972 0 0 0 2.528-.562l24.713-11.5a6 6 0 1 0 -5.064-10.879l-24.713 11.5a6 6 0 0 0 2.536 11.44z"/><path d="m336.628 384a5.98 5.98 0 0 0 2.528-.562l4.358-2.029a6 6 0 1 0 -5.063-10.879l-4.358 2.029a6 6 0 0 0 2.535 11.441z"/><path d="m98.384 481.035a70.931 70.931 0 0 0 50.486-20.912l31.165-31.165 301.48-138.235a6 6 0 0 0 -1.86-11.42 86.1 86.1 0 0 1 -75.627-71.677l-.816-5.042h-.016c-.028-.173-.047-.347-.091-.519a6 6 0 0 0 -4.9-4.455 95.088 95.088 0 0 1 -79.835-79.835 6 6 0 0 0 -4.352-4.877 5.816 5.816 0 0 0 -.621-.121v-.013l-5.042-.816a86.1 86.1 0 0 1 -71.676-75.626 6 6 0 0 0 -11.337-2.034l-146.209 293.627-31.233 31.236a71.4 71.4 0 0 0 50.484 121.884zm80-64.523-22.344-22.344 59.408-45.087 42.906 30.763zm27.746-75.423-58.65 44.511-24.914-24.91 46.293-56.69zm-29.649-46.428 59.325-72.648 54.894 54.887-74.917 56.859zm94.434 79.423-45.463-32.6 74.576-56.6 68.405 44.481zm189-86.661-78.573 36.028-71.153-46.271 82.893-62.912a98.219 98.219 0 0 0 66.838 73.155zm-150.715-155.278a107.576 107.576 0 0 0 74.1 74.487l-82.95 62.951-56.912-56.912zm-80.887-76.9a98.218 98.218 0 0 0 73.014 67.563l-65.462 80.166-45.782-70.953zm-44.45 89.268 44.024 68.23-59.169 72.457-32.425-45.157zm-53.62 107.68 30.614 42.634-46.819 57.334-22.413-22.412zm-77.425 119.359 8.038 8.038a6 6 0 0 0 8.485-8.485l-8.213-8.214 23.334-23.334 84 84-23.335 23.334-47.5-47.5a6 6 0 0 0 -8.486 0 6 6 0 0 0 0 8.486l47.332 47.332a59.388 59.388 0 0 1 -83.654-83.655z"/></svg>