<svg id="Layer_1" height="512" viewBox="0 0 512 512" width="512" xmlns="http://www.w3.org/2000/svg" data-name="Layer 1"><path d="m50.868 497.305a36.085 36.085 0 0 0 25.591-10.583l89.33-89.33a6 6 0 0 0 0-8.486l-8.08-8.08 127.507-127.507c15.748 10.26 34.643 15.6 55.308 15.6a127.592 127.592 0 0 0 17.154-1.183c32.8-4.454 65.194-21.235 91.211-47.252s42.8-58.409 47.252-91.211c4.689-34.524-4.651-65.461-26.3-87.111s-52.585-30.99-87.111-26.3c-32.8 4.455-65.195 21.236-91.211 47.253s-42.8 58.409-47.252 91.211c-3.714 27.349 1.384 52.441 14.422 72.455l-41.3 41.3a6 6 0 1 0 8.485 8.486l40.1-40.1c1.468 1.7 3 3.363 4.6 4.967s3.276 3.115 4.98 4.584l-126.33 126.323-9.565-9.565 57.929-57.928a6 6 0 0 0 -8.486-8.485l-57.928 57.928-8.08-8.081a6 6 0 0 0 -8.486 0l-89.33 89.331a36.174 36.174 0 0 0 25.59 61.764zm205.288-341.368c4.104-30.217 19.676-60.17 43.844-84.337s54.124-39.743 84.341-43.847c30.725-4.169 58.074 3.96 77.01 22.9s27.069 46.286 22.9 77.009c-4.1 30.217-19.676 60.17-43.847 84.342s-54.125 39.743-84.341 43.846c-30.724 4.17-58.073-3.959-77.01-22.9s-27.069-46.29-22.897-77.013zm-137.3 203 34.21 34.211-17.815 17.815-34.21-34.21zm-26.3 26.3 34.211 34.211-14.193 14.193-34.217-34.209zm-58.793 58.789 36.109-36.109 34.211 34.211-36.109 36.109a24.191 24.191 0 0 1 -34.211-34.211z"/><path d="m230.7 326.369-36.456 36.213a6 6 0 1 0 8.456 8.518l36.457-36.212a6 6 0 0 0 -8.457-8.514z"/><path d="m284.618 272.811-19.341 19.21a6 6 0 0 0 8.457 8.514l19.34-19.211a6 6 0 1 0 -8.456-8.513z"/><path d="m249.99 307.206-3.41 3.387a6 6 0 0 0 8.457 8.514l3.41-3.388a6 6 0 1 0 -8.457-8.513z"/><path d="m340.628 246.97a104.917 104.917 0 0 0 15.665-1.207c27.486-4.152 54.843-18.658 77.031-40.846 46.357-46.357 55.755-112.387 20.951-147.191s-100.835-25.407-147.192 20.95-55.755 112.386-20.95 147.191c13.838 13.839 32.816 21.103 54.495 21.103zm-8.734-12.5c-12.605-1.392-23.775-5.831-32.785-13.1l32.051-32.05 22.94 22.94zm45.843-91.723 29.606-29.607 22.94 22.94-29.606 29.607zm14.454 31.425-29.606 29.608-22.94-22.94 29.606-29.606zm-22.94-39.911-24.844-24.844 29.606-29.607 24.845 24.845zm-8.485 8.486-29.606 29.608-24.845-24.845 29.606-29.61zm-6.266 91.153c-1.934.293-3.841.5-5.735.674l13.82-13.82 9.05 9.05a107.827 107.827 0 0 1 -17.135 4.096zm29.37-8.832-12.8-12.8 29.606-29.607 18.824 18.822a137.593 137.593 0 0 1 -35.63 23.582zm44.2-31.979-18.912-18.912 29.607-29.606 13.514 13.515a139.863 139.863 0 0 1 -24.205 35zm29.208-46.976-10.028-10.027 15.827-15.828a105.052 105.052 0 0 1 -5.795 25.852zm5.654-42.68-24.163 24.167-22.94-22.94 33.977-33.98c7.413 9.186 11.737 20.435 13.13 32.75zm-57.871-54.669c13.682.922 26.206 5.324 36.255 13.435l-33.973 33.973-24.843-24.845zm-17.614.644-13.434 13.434-8.122-8.122a107.11 107.11 0 0 1 21.556-5.312zm-33.531 10.307 11.612 11.612-29.607 29.606-17-17.005a139.911 139.911 0 0 1 34.995-24.213zm-43.411 32.773 16.931 16.931-29.606 29.606-10.916-10.916a138.41 138.41 0 0 1 23.591-35.621zm-28.35 47.832 7.189 7.19-11.536 11.537a105.854 105.854 0 0 1 4.347-18.727zm15.675 15.68 24.845 24.845-32.075 32.068c-8.11-10.049-12.517-22.569-13.44-36.25z"/></svg>