<svg id="Layer_1" height="512" viewBox="0 0 512 512" width="512" xmlns="http://www.w3.org/2000/svg" data-name="Layer 1"><path d="m278.257 460.067a58.427 58.427 0 1 0 -11.6-81.81 58.12 58.12 0 0 0 11.6 81.81zm73.868-72.3a46.485 46.485 0 0 1 -.869 52.393 37.757 37.757 0 0 1 -9.8-26.291 38.505 38.505 0 0 1 10.669-26.101zm-38.708-20.816a46.19 46.19 0 0 1 27.838 9.3c1.031.775 2.015 1.6 2.969 2.442a50.378 50.378 0 0 0 -14.766 34.947 49.647 49.647 0 0 0 13.646 35.38 46.321 46.321 0 0 1 -62.069-2.348 50.584 50.584 0 0 0 .992-67.565 46.489 46.489 0 0 1 31.39-12.155zm-39.22 21.5a38.913 38.913 0 0 1 8.272 24.452 38.447 38.447 0 0 1 -9 24.2 46.516 46.516 0 0 1 .731-48.65z"/><path d="m434.574 14.746a6 6 0 0 0 -8.485 0l-13.518 13.519a20.315 20.315 0 0 0 -2.318 25.974l-47.068 47.069c-34.243 34.243-70.371 67.439-107.38 98.664l-19.219 16.217a6 6 0 1 0 7.738 9.171l19.219-16.216q12.093-10.2 24.041-20.692l35.964 35.964q-10.467 11.952-20.692 24.041l-185.612 219.984a52.289 52.289 0 0 1 -76.955 3.238 52.276 52.276 0 0 1 -15.253-39.169 51.726 51.726 0 0 1 18.523-37.754l170.084-143.508a6 6 0 0 0 -7.739-9.172l-170.084 143.508a64.29 64.29 0 0 0 41.48 113.426q1.345 0 2.695-.057a64.453 64.453 0 0 0 46.42-22.774l185.613-219.979c31.23-37.013 64.425-73.141 98.664-107.38l47.069-47.069a20.313 20.313 0 0 0 25.974-2.317l13.519-13.518a6 6 0 0 0 0-8.485zm-103.074 200.654-34.9-34.9q16.641-14.776 32.93-29.99l19.634 45.29q-8.911 9.735-17.664 19.6zm26.561-29.238-19.251-44.409q12.609-11.958 24.937-24.125l18.526 43q-12.215 12.627-24.208 25.534zm44.142-45.832q-5.459 5.458-10.874 10.99l-18.425-42.764 24.66-24.656 18.4 42.673zm22.897-22.889-18.4-42.673 11.8-11.808 30.54 30.54zm50.154-26.5a8.339 8.339 0 0 1 -11.792 0l-42.4-42.4a8.339 8.339 0 0 1 0-11.792l9.276-9.276 54.194 54.194z"/><path d="m96.691 374.889-14.055 12.774a6 6 0 1 0 8.071 8.879l14.054-12.773a6 6 0 1 0 -8.07-8.88z"/><path d="m173.051 304.669-60.4 54.892a6 6 0 1 0 8.07 8.88l60.4-54.892a6 6 0 1 0 -8.07-8.88z"/><path d="m208.714 280.363a6 6 0 0 0 8.476.4l20.173-18.335a6 6 0 1 0 -8.071-8.88l-20.173 18.335a6 6 0 0 0 -.405 8.48z"/><path d="m193.174 286.379-3.557 3.233a6 6 0 0 0 8.071 8.881l3.557-3.233a6 6 0 1 0 -8.071-8.881z"/></svg>