<?xml version="1.0" encoding="UTF-8"?>
<svg xmlns="http://www.w3.org/2000/svg" id="Layer_1" data-name="Layer 1" viewBox="0 0 512 512" width="512" height="512"><path d="M37.26,310h82.581A11.991,11.991,0,0,0,130,316h11.1l8.15,28.688A292.373,292.373,0,0,1,160,422.621v59.212c0,3.314,2.353,6.167,5.667,6.167H346.333c3.314,0,5.667-2.853,5.667-6.167V422.621a292.373,292.373,0,0,1,10.753-77.933L370.9,316H382a11.991,11.991,0,0,0,10.159-6H474.74a6.421,6.421,0,0,0,6.26-6.222V60.167A36.407,36.407,0,0,0,444.74,24H67.26A36.407,36.407,0,0,0,31,60.167V303.778A6.421,6.421,0,0,0,37.26,310Zm125.373,38.864c-.632-2.546-1.286-5.087-1.985-7.617L156,324.387l3.128-3.129,15.557,15.556ZM320.321,336.84l-15.53,15.531-15.557-15.556L304.751,321.3ZM315.929,316h25.732l-12.854,12.855Zm-44.373,69.605L256,401.161l-15.556-15.556L256,370.049Zm-7.071-24.042L280.749,345.3l15.556,15.556L280.042,377.12ZM231.958,377.12,215.7,360.856,231.251,345.3l16.264,16.263Zm-8.485,8.485-15.556,15.556L191.653,384.9l15.556-15.557Zm0,48.083-16.264,16.264L191.653,434.4l16.264-16.263ZM216.4,409.647l15.556-15.557,15.557,15.556L231.958,425.2Zm39.6,8.485,15.556,15.556L256,449.244l-15.557-15.556Zm8.485-8.486,15.557-15.556L295.6,409.647,280.042,425.2Zm39.6,8.486L320.347,434.4l-15.556,15.557-16.264-16.264Zm-15.556-32.527,16.264-16.264L320.347,384.9l-16.264,16.263Zm-7.778-56.776L267.919,316h25.659Zm-8.485,7.986L256,353.078l-16.264-16.264L256,320.551Zm-41.013-7.986L218.422,316H244.08Zm-8.485,7.985-15.557,15.557-15.556-15.557,15.557-15.556Zm-39.6-7.985L170.339,316H196Zm0,16.471,15.556,15.556-15.556,15.557-15.557-15.557Zm-14.681,33.4,6.2,6.2-4.8,4.8Q169.283,384.189,168.487,378.7Zm2.683,26.678,12-12,16.264,16.264L183.168,425.91l-11.626-11.626Q171.422,409.829,171.17,405.381Zm3.846,29.014L172,437.412v-6.033ZM172,462.492v-8.11l11.335-11.5,15.473,15.556-15.432,15.556ZM198.3,476l8.911-8.911L216.121,476Zm17.4-17.563,16.263-16.263,15.557,15.556-16.264,16.263ZM246.381,476,256,466.382,265.618,476Zm18.1-18.27,15.557-15.557,16.263,16.264-15.556,15.556ZM295.879,476l8.912-8.911L313.7,476ZM340,462.492l-11.335,11.5-15.556-15.556,15.556-15.556L340,454.382Zm0-25.08-3.016-3.017L340,431.379Zm.458-23.128L328.832,425.91l-16.264-16.263,16.264-16.264,12,12Q340.578,409.829,340.458,414.284ZM342.12,389.7l-4.8-4.8,6.2-6.2Q342.717,384.189,342.12,389.7Zm-13.288-13.288-15.556-15.556,15.538-15.538,15.571,15.542Zm22.52-35.165c-.7,2.534-1.355,5.078-1.988,7.628L337.3,336.832l15.574-15.574L356,324.387ZM130,304V277H382l.007,27Zm40-39V170H342v95Zm212,0h-6V141.5a5.5,5.5,0,0,0-5.5-5.5H141.667A5.667,5.667,0,0,0,136,141.667V167a6,6,0,0,0,12,0V148H364V265H354V163.5a5.315,5.315,0,0,0-5.667-5.5H163.667A5.315,5.315,0,0,0,158,163.5V265H148V207a6,6,0,0,0-12,0v58h-6a11.711,11.711,0,0,0-11.728,9H67V66.167A6.379,6.379,0,0,1,73.26,60H438.74A6.379,6.379,0,0,1,445,66.167V274H393.728A11.711,11.711,0,0,0,382,265ZM43,60.167A24.394,24.394,0,0,1,67.26,36H444.74A24.394,24.394,0,0,1,469,60.167V298H394V286h56.74a6.421,6.421,0,0,0,6.26-6.222V66.167A18.387,18.387,0,0,0,438.74,48H73.26A18.387,18.387,0,0,0,55,66.167V279.778A6.421,6.421,0,0,0,61.26,286H118v12H43Z"/><path d="M89,181.858a6,6,0,0,0-6,6v41.614a6,6,0,0,0,12,0V187.858A6,6,0,0,0,89,181.858Z"/><path d="M89,75.858a6,6,0,0,0-6,6v57.261a6,6,0,0,0,12,0V81.858A6,6,0,0,0,89,75.858Z"/><path d="M89,154.666a6,6,0,0,0-6,6v4.806a6,6,0,0,0,12,0v-4.806A6,6,0,0,0,89,154.666Z"/></svg>
