<?xml version="1.0" encoding="UTF-8"?>
<svg xmlns="http://www.w3.org/2000/svg" id="Layer_1" data-name="Layer 1" viewBox="0 0 512 512" width="512" height="512"><path d="M119,235.472a6,6,0,0,0,6-6V168.858a6,6,0,0,0-12,0v60.614A6,6,0,0,0,119,235.472Z"/><path d="M119,126.119a6,6,0,0,0,6-6V103.858a6,6,0,0,0-12,0v16.261A6,6,0,0,0,119,126.119Z"/><path d="M119,152.472a6,6,0,0,0,6-6v-4.806a6,6,0,0,0-12,0v4.806A6,6,0,0,0,119,152.472Z"/><path d="M55,507H457a6,6,0,0,0,6-6V11a6,6,0,0,0-6-6H55a6,6,0,0,0-6,6V501A6,6,0,0,0,55,507Zm152-29v17H131.658c2.273-55.842,42.419-103.16,95.537-115.87A36.485,36.485,0,0,0,220,401.177V472h-6.5C210.184,472,207,474.687,207,478Zm86,17H219V484h74Zm-13.433-88a24.319,24.319,0,0,1-47.134,0Zm-47.134-12c2.679-10,12.229-18.317,23.567-18.317S276.888,385,279.567,395ZM256,437.494a34.551,34.551,0,0,0,24-9.369V472H232V428.125A34.551,34.551,0,0,0,256,437.494ZM305,495V478c0-3.313-3.184-6-6.5-6H292V401.177a36.485,36.485,0,0,0-7.195-22.047c53.118,12.71,93.264,60.028,95.537,115.87Zm106,0H392.346C389.7,422.29,329.558,363.552,256,363.552S122.3,422.29,119.654,495H101V261H212.217a44.067,44.067,0,0,0,87.566,0H411ZM287.682,261a32.074,32.074,0,0,1-63.364,0Zm-62.977-12a32.067,32.067,0,0,1,62.59,0ZM423,17h28V495H423ZM305,33.667V17h75.3a124.722,124.722,0,0,1-95.5,115.2A35.508,35.508,0,0,0,292,110.49V40h6.5A6.735,6.735,0,0,0,305,33.667ZM219,17h74V28H219Zm13.433,87C235.112,94,244.662,85.683,256,85.683S276.888,94,279.567,104Zm47.134,12a24.319,24.319,0,0,1-47.134,0ZM256,74.172a34.555,34.555,0,0,0-24,9.369V40h48V83.541A34.555,34.555,0,0,0,256,74.172ZM207,17V33.667A6.735,6.735,0,0,0,213.5,40H220v70.49A35.508,35.508,0,0,0,227.2,132.2,124.722,124.722,0,0,1,131.7,17ZM61,17H89V78a6,6,0,0,0,12,0V17h18.689a136.443,136.443,0,0,0,272.622,0H411V249H299.512a44.071,44.071,0,0,0-87.024,0H101V118a6,6,0,0,0-12,0V495H61Z"/></svg>
