<svg id="Layer_1" height="512" viewBox="0 0 512 512" width="512" xmlns="http://www.w3.org/2000/svg" data-name="Layer 1"><path d="m399.134 65.62a238.157 238.157 0 0 0 -286.177 380.76 236.363 236.363 0 0 0 142.589 47.82 241.785 241.785 0 0 0 33.939-2.4 238.158 238.158 0 0 0 109.649-426.18zm-323.876 54.5c1.8-2.395 3.652-4.735 5.532-7.045a192.406 192.406 0 0 1 59.026 141.125 188.655 188.655 0 0 1 -8.712 54.609 370.958 370.958 0 0 1 -101.247-55.037 224.465 224.465 0 0 1 45.401-133.65zm-43.129 167.635c-.886-6.245-1.5-12.486-1.866-18.712a382.548 382.548 0 0 0 96.879 51.094 193.768 193.768 0 0 1 -50.557 73.653 224.878 224.878 0 0 1 -44.456-106.035zm217.871 194.366a223.784 223.784 0 0 1 -129.8-45.334 228.358 228.358 0 0 1 -36.025-33.679 205.869 205.869 0 0 0 54.381-79.12 383.218 383.218 0 0 0 111.444 18.302zm0-151.831a369.352 369.352 0 0 1 -107.486-17.634 200.644 200.644 0 0 0 9.32-58.325 204.39 204.39 0 0 0 -63.189-150.378 224.474 224.474 0 0 1 135.683-71.87 221.34 221.34 0 0 1 25.672-2.183zm12-300.419a223.76 223.76 0 0 1 129.961 45.342 228.337 228.337 0 0 1 30.685 27.777 202.909 202.909 0 0 0 -74.759 154.71 199.6 199.6 0 0 0 7.543 59.131 369.284 369.284 0 0 1 -93.43 13.459zm25.838 450.046a221.554 221.554 0 0 1 -25.838 2.183v-139.81a382.758 382.758 0 0 0 97.052-14.016 202.285 202.285 0 0 0 58.662 85.945 224.446 224.446 0 0 1 -129.876 65.698zm148.994-88.039q-5.269 7.011-11 13.534a190.377 190.377 0 0 1 -55.283-80.54c2.922-.913 5.837-1.851 8.741-2.835a382.624 382.624 0 0 0 102.618-53.227 224.572 224.572 0 0 1 -45.076 123.068zm-61.395-81.206c-2.832.96-5.675 1.873-8.524 2.763a187.7 187.7 0 0 1 -7.029-55.5 191.021 191.021 0 0 1 70.661-145.906 224.7 224.7 0 0 1 49.417 112.22 229.7 229.7 0 0 1 2.252 29.358 370.875 370.875 0 0 1 -106.777 57.065z"/><path d="m385.557 114.492a6 6 0 0 0 3.983-10.492 197.023 197.023 0 0 0 -73.582-41.033 6 6 0 1 0 -3.446 11.494 184.944 184.944 0 0 1 69.068 38.519 5.972 5.972 0 0 0 3.977 1.512z"/><path d="m294.6 57.862c-4.779-.86-9.651-1.548-14.48-2.044a6 6 0 0 0 -1.22 11.936c4.529.467 9.1 1.112 13.583 1.919a6.106 6.106 0 0 0 1.07.1 6 6 0 0 0 1.047-11.911z"/></svg>