<svg id="Layer_1" height="512" viewBox="0 0 512 512" width="512" xmlns="http://www.w3.org/2000/svg" data-name="Layer 1"><path d="m153.387 198.794a34.45 34.45 0 0 0 28.88 39.24 34.919 34.919 0 0 0 5.254.4 34.466 34.466 0 0 0 33.986-29.278 34.452 34.452 0 0 0 -68.12-10.36zm37.436-17.016a22.44 22.44 0 1 1 -3.389-.257 22.478 22.478 0 0 1 3.389.257z"/><path d="m86.66 164a34.452 34.452 0 0 0 15.24 61.807 34.939 34.939 0 0 0 5.254.4 34.455 34.455 0 1 0 -20.494-62.207zm38.5 14.439a22.45 22.45 0 1 1 -18.1-9.146 22.574 22.574 0 0 1 3.39.258 22.3 22.3 0 0 1 14.713 8.892z"/><path d="m163.31 92.366a34.452 34.452 0 1 0 -10.361 68.12 34.926 34.926 0 0 0 5.253.4 34.456 34.456 0 0 0 5.108-68.519zm17.016 37.434a22.448 22.448 0 1 1 -22.244-25.832 22.892 22.892 0 0 1 3.423.259 22.455 22.455 0 0 1 18.821 25.573z"/><path d="m229.43 74.7a5.979 5.979 0 0 0 .85-.061c5.39-.764 10.869-1.3 16.284-1.583a6 6 0 0 0 -.632-11.984c-5.767.3-11.6.872-17.337 1.686a6 6 0 0 0 .835 11.942z"/><path d="m412.225 160.263a6 6 0 1 0 10.228-6.275 195.466 195.466 0 0 0 -153.039-92.743 6 6 0 0 0 -.813 11.973 183.442 183.442 0 0 1 143.624 87.045z"/><path d="m396.365 69.245a233.623 233.623 0 0 0 -371.674 219.555q1.212 8.538 3.022 16.885a6 6 0 0 0 11.724-2.556q-1.713-7.914-2.865-16.013a221.624 221.624 0 0 1 188.309-250.544 224.933 224.933 0 0 1 31.584-2.238 221.657 221.657 0 0 1 176.7 354.821 220.174 220.174 0 0 1 -146.044 86.273 224.933 224.933 0 0 1 -31.584 2.238 222.02 222.02 0 0 1 -204.571-137.308 5.991 5.991 0 0 0 -7.53-3.388h-.008a6.005 6.005 0 0 0 -3.575 7.934 234.05 234.05 0 0 0 215.657 144.763 237.082 237.082 0 0 0 34.158-2.483 233.623 233.623 0 0 0 106.7-417.939z"/></svg>