<svg id="Layer_1" height="512" viewBox="0 0 512 512" width="512" xmlns="http://www.w3.org/2000/svg" data-name="Layer 1"><path d="m284 336a6 6 0 0 0 6-6 35.04 35.04 0 0 1 35-35h46a6 6 0 0 0 0-12h-46a47.053 47.053 0 0 0 -47 47 6 6 0 0 0 6 6z"/><path d="m194 146.858a6 6 0 0 0 -6 6v48.614a6 6 0 0 0 12 0v-48.614a6 6 0 0 0 -6-6z"/><path d="m223.358 69.858a35.3 35.3 0 0 0 -35.26 35.261 6 6 0 0 0 12 0 23.287 23.287 0 0 1 23.26-23.261 6 6 0 0 0 0-12z"/><path d="m194 120.666a6 6 0 0 0 -6 6v4.806a6 6 0 0 0 12 0v-4.806a6 6 0 0 0 -6-6z"/><path d="m144 402.818v74.7a6.778 6.778 0 0 0 6.4 6.482h234.354a6.639 6.639 0 0 0 6.246-6.478v-82.656a75.384 75.384 0 0 0 40-66.348v-214.04c0-47.42-39.048-86.478-86.469-86.478h-107.2c-47.417 0-86.331 39.058-86.331 86.478v61.336c-6-3.4-14.217-5.215-21.855-5.215a48.19 48.19 0 0 0 -48.145 48.077v109.842c0 37.287 27.419 68.05 63 74.3zm44 69.182h-32v-68h32zm191 0h-179v-13h179zm0-25h-179v-16h179zm0-28h-179v-15h154.666a76.653 76.653 0 0 0 24.334-3.968zm-286-199.375c0-19.837 15.61-36.559 35.441-37.016a36.85 36.85 0 0 1 23.439 7.569 79.919 79.919 0 0 0 14.12 38.422v53.38a54.968 54.968 0 0 1 -16.339 38.993 6 6 0 0 0 -.095 8.485 5.879 5.879 0 0 0 4.2 1.757 6.363 6.363 0 0 0 4.407-1.757 66.862 66.862 0 0 0 19.827-47.478v-39.05a84.154 84.154 0 0 0 59.334 24.07h7.666a6 6 0 0 0 0-12h-7.666a74.552 74.552 0 0 1 -74.334-74.334v-66.188a74.7 74.7 0 0 1 74.478-74.478h107.053a74.688 74.688 0 0 1 74.469 74.469l-.6 76.531a63.621 63.621 0 0 1 -64 64h-69.4a6 6 0 0 0 0 12h69.4a77.28 77.28 0 0 0 64.6-35.036v96.554a63.482 63.482 0 0 1 -63.482 63.482h-198.184a64.523 64.523 0 0 1 -64.334-64.334z"/></svg>