<svg id="Layer_1" height="512" viewBox="0 0 512 512" width="512" xmlns="http://www.w3.org/2000/svg" data-name="Layer 1"><path d="m382.5 477.828a37.548 37.548 0 0 0 37.5-37.539v-39.539a5.472 5.472 0 0 0 -5.613-5.75h-16.387v-278h16.387a5.472 5.472 0 0 0 5.613-5.75v-39.539a37.5 37.5 0 1 0 -75 0v39.539c0 3.313 3 5.75 6.309 5.75h16.691v278h-16.691c-3.309 0-6.309 2.437-6.309 5.75v39.539a37.548 37.548 0 0 0 37.5 37.539zm-25.5-372.828v-33.289a25.5 25.5 0 1 1 51 0v33.289zm29 12v278h-6v-278zm-29 290h51v33.289a25.5 25.5 0 1 1 -51 0z"/><path d="m143.343 152.44a5.994 5.994 0 0 0 7.657-3.653c1.076-3.036 2.211-6.093 3.374-9.085a6 6 0 1 0 -11.184-4.349c-1.208 3.1-2.385 6.277-3.5 9.428a6 6 0 0 0 3.653 7.659z"/><path d="m133.749 163.263a332.348 332.348 0 0 0 -11.787 122.737 6 6 0 0 0 5.969 5.462c.18 0 .362-.008.545-.025a6 6 0 0 0 5.437-6.514 320.4 320.4 0 0 1 11.362-118.323 6 6 0 1 0 -11.526-3.337z"/><path d="m201.105 503.153a5.99 5.99 0 0 0 8.485.021l12.131-12.127a330.235 330.235 0 0 0 97.361-235.388c-.088-88.683-36.192-173.541-98.9-236.25l-10.572-10.571a5.856 5.856 0 0 0 -1.493-1.111 6.027 6.027 0 0 0 -7.012 1.091l-12.13 12.016a331.027 331.027 0 0 0 -87.148 152.7 6 6 0 0 0 5.822 7.466h.009a6.016 6.016 0 0 0 5.821-4.564 316.085 316.085 0 0 1 46.633-102.406 71.7 71.7 0 0 0 39.013 15.613l.212 57.477-15.069 15.069c-51.727 51.728-51.727 135.894 0 187.622l15.069 15.069-.212 57.477a71.753 71.753 0 0 0 -38.936 15.552 318.476 318.476 0 0 1 -56.576-182.025 327.359 327.359 0 0 1 2.494-40.146 6 6 0 1 0 -11.9-1.45 340.3 340.3 0 0 0 -2.589 41.6 330.366 330.366 0 0 0 97.362 235.108zm-33.958-438.88a325.593 325.593 0 0 1 30.313-34.954l1.438-1.428.184 49.7a59.8 59.8 0 0 1 -31.935-13.318zm46.089 418.285-2.336 2.342.186-50.55a59.871 59.871 0 0 1 32.4 13.328 325.036 325.036 0 0 1 -30.25 34.88zm93.846-226.572a318.111 318.111 0 0 1 -56.574 181.929 71.791 71.791 0 0 0 -39.382-15.59l.211-57.424 15.091-15.09a132.671 132.671 0 0 0 0-187.622l-15.091-15.089-.211-57.424a71.735 71.735 0 0 0 39.4-15.6 318.139 318.139 0 0 1 56.556 181.91zm-93.846-226.58a324.93 324.93 0 0 1 30.264 34.906 59.829 59.829 0 0 1 -32.418 13.338l-.182-50.593zm-20.483 141.269 12.6-12.595 12.594 12.6a119.753 119.753 0 0 1 34.012 67.32h-93.147a120.022 120.022 0 0 1 33.941-67.325zm-35.136 79.325h95.523q.146 2.988.146 6 0 6.051-.586 12h-94.636a121.7 121.7 0 0 1 -.447-18zm35.136 91.325a119.968 119.968 0 0 1 -32.888-61.325h91.045a119.812 119.812 0 0 1 -32.968 61.325l-12.594 12.6zm6.329 93.082-.182 49.593-1.439-1.438a324.642 324.642 0 0 1 -30.244-34.89 59.846 59.846 0 0 1 31.865-13.265z"/></svg>