<svg id="Layer_1" height="512" viewBox="0 0 512 512" width="512" xmlns="http://www.w3.org/2000/svg" data-name="Layer 1"><path d="m256 264.209a48.628 48.628 0 1 0 -48.629-48.628 48.683 48.683 0 0 0 48.629 48.628zm0-85.256a36.628 36.628 0 1 1 -36.629 36.628 36.67 36.67 0 0 1 36.629-36.628z"/><path d="m41.518 443.49a37.973 37.973 0 0 0 32.471 7.2l117.346-27.8a281.916 281.916 0 0 1 129.317 0l117.34 27.8a38.461 38.461 0 0 0 8.87 1.041 38.226 38.226 0 0 0 38.138-38.162v-91.569h-.078a.354.354 0 0 0 .013-.114c-.054-61.44-23.867-118.933-67.062-162a227 227 0 0 0 -121.218-63.1 40.886 40.886 0 0 0 -81.31.018 227.152 227.152 0 0 0 -121.252 63.131c-43.244 43.112-67.093 100.738-67.093 162.258v91.376a37.968 37.968 0 0 0 14.518 29.921zm367.894-275.054a215.305 215.305 0 0 1 63.422 146.911l-81.785-10.656c-2.413-56.211-16.81-108.513-40.737-147.728-11.552-18.935-24.822-33.97-39.212-44.731a215.184 215.184 0 0 1 98.312 56.204zm-153.412-96.165a28.932 28.932 0 0 1 28.21 22.686q-8.1-.981-16.325-1.393a81.273 81.273 0 0 0 -23.774 0q-8.218.414-16.321 1.393a28.932 28.932 0 0 1 28.21-22.686zm-10.663 33.245q5.319-.254 10.684-.256 5.334 0 10.625.254c27.284 4.169 53.032 24.28 73.423 57.7 22.592 37.027 36.306 86.491 38.892 139.9l-53.953-7.029a533.771 533.771 0 0 0 -137.93 0l-54.038 7.048c2.574-53.262 16.209-102.592 38.7-139.611 20.42-33.602 46.229-53.822 73.597-58.006zm-206.337 221.958 37.74-4.714a5.84 5.84 0 0 0 5.243-5.76h.009a5.938 5.938 0 0 0 -6.77-6.14l-35.97 4.582a216.174 216.174 0 0 1 161.615-203.19c-14.46 10.822-27.788 25.962-39.381 45.041-23.82 39.2-38.135 91.363-40.538 147.419l-5.724.747a6 6 0 1 0 1.552 11.9l71.852-9.372a522.353 522.353 0 0 1 134.9 0l149.472 19.472v86.11a26.2 26.2 0 0 1 -32.224 25.442l-117.346-27.8a293.958 293.958 0 0 0 -134.847 0l-117.341 27.8a26.2 26.2 0 0 1 -32.242-25.442z"/><path d="m109.717 185.157a6 6 0 0 0 8.445-.825c1.756-2.137 3.575-4.267 5.407-6.33a6 6 0 0 0 -8.972-7.968c-1.934 2.177-3.853 4.424-5.706 6.678a6 6 0 0 0 .826 8.445z"/><path d="m104.355 192.352a6 6 0 0 0 -8.33 1.619 227.108 227.108 0 0 0 -29.5 62.534 6 6 0 1 0 11.506 3.41 215.06 215.06 0 0 1 27.943-59.234 6 6 0 0 0 -1.619-8.329z"/></svg>