<?xml version="1.0" encoding="UTF-8"?>
<svg xmlns="http://www.w3.org/2000/svg" id="Layer_1" data-name="Layer 1" viewBox="0 0 512 512" width="512" height="512"><path d="M136.326,438H133V425.335a16.774,16.774,0,0,0-15.4-16.664L110.318,292.6a5.779,5.779,0,0,0,5.682-6V262.1c0-3.314-2.189-6.1-5.5-6.1h-8.02a39.185,39.185,0,0,0,13.758-30.044,39.873,39.873,0,0,0-79.746-.012A39.208,39.208,0,0,0,50.248,256H41.653A5.8,5.8,0,0,0,36,262.1v24.5c0,3.313,2.34,6.4,5.653,6.4h1L35.534,408.819A16.661,16.661,0,0,0,19,425.335V438H15.824A5.645,5.645,0,0,0,10,443.752v33.391A5.732,5.732,0,0,0,15.824,483h120.5A5.609,5.609,0,0,0,142,477.143V443.752A5.522,5.522,0,0,0,136.326,438ZM48.489,226a27.873,27.873,0,1,1,27.873,27.873A27.9,27.9,0,0,1,48.489,226ZM48,268h56v13H48Zm6.679,25h43.85l7.015,116H47.664ZM31,425.335c0-2.609,2.336-4.335,4.946-4.335H116.2c2.61,0,4.8,1.726,4.8,4.335V438H31ZM130,471H22V450H130Z"/><path d="M496.176,438H493V425.335a16.84,16.84,0,0,0-15.474-16.664L470.281,292.6a5.809,5.809,0,0,0,5.719-6V262.1a5.8,5.8,0,0,0-5.653-6.1h-8.021a39.183,39.183,0,0,0,13.759-30.044,39.873,39.873,0,0,0-79.745-.012A39.21,39.21,0,0,0,410.1,256h-8.6c-3.314,0-5.5,2.783-5.5,6.1v24.5c0,3.313,2.189,6.4,5.5,6.4h1l-7.047,115.819A16.6,16.6,0,0,0,379,425.335V438h-3.326A5.522,5.522,0,0,0,370,443.752v33.391A5.609,5.609,0,0,0,375.674,483h120.5A5.732,5.732,0,0,0,502,477.143V443.752A5.645,5.645,0,0,0,496.176,438ZM408.34,226a27.873,27.873,0,1,1,27.872,27.873A27.9,27.9,0,0,1,408.34,226ZM408,268h56v13H408Zm6.528,25h43.851l7.015,116h-57.88ZM391,425.335c0-2.609,2.186-4.335,4.8-4.335h80.258c2.61,0,4.946,1.726,4.946,4.335V438H391ZM490,471H382V450H490Z"/><path d="M162.343,481H349.082A5.655,5.655,0,0,0,355,475.333V423.588A5.592,5.592,0,0,0,349.082,418H341V392.823a20.438,20.438,0,0,0-15.6-19.582L313.8,170h5.088a6.4,6.4,0,0,0,6.11-6.341V124h13.144A5.564,5.564,0,0,0,344,118.382V34.857A5.758,5.758,0,0,0,338.144,29H300.839A5.743,5.743,0,0,0,295,34.857V64H279V34.857A5.743,5.743,0,0,0,273.161,29h-36.1A5.932,5.932,0,0,0,231,34.857V64H215V34.857A5.564,5.564,0,0,0,209.383,29H172.078A5.947,5.947,0,0,0,166,34.857v83.525c0,3.314,2.765,5.618,6.078,5.618H187v39.659c0,3.313,2.222,6.341,5.535,6.341h5.07l-2.445,40.836a6.084,6.084,0,0,0,5.84,6.249v-.042a6.14,6.14,0,0,0,6.141-5.514L209.629,170h92.155l11.327,202H198.3l6.759-120.874a5.913,5.913,0,0,0-5.991-6.23,6.046,6.046,0,0,0-5.99,5.717L186.3,373.047A20.408,20.408,0,0,0,171,392.823V418h-8.657c-3.314,0-6.343,2.274-6.343,5.588v51.745C156,478.646,159.029,481,162.343,481ZM313,158H199V124H313ZM178,112V41h25V70.247c0,3.314,3.069,5.753,6.383,5.753h27.678A5.742,5.742,0,0,0,243,70.247V41h24V70.247A5.935,5.935,0,0,0,273.161,76h27.678A5.935,5.935,0,0,0,307,70.247V41h25v71Zm5,280.823c0-4.636,3.663-8.823,8.3-8.823H320.125A9.191,9.191,0,0,1,329,392.823V418H183ZM168,430H343v39H168Z"/><path d="M216.263,349.137a6,6,0,0,0,5.823,6.171l.177,0a6,6,0,0,0,5.994-5.827l2.364-81.579a6,6,0,1,0-11.994-.348Z"/><path d="M225.862,225.009c.06,0,.118,0,.177,0a6,6,0,0,0,5.994-5.826l.79-27.249a6,6,0,1,0-11.994-.348l-.79,27.249A6,6,0,0,0,225.862,225.009Z"/><path d="M219.275,245.18a6,6,0,0,0,5.824,6.172l.176,0a6,6,0,0,0,6-5.826l.139-4.8a6,6,0,1,0-11.994-.349Z"/></svg>
