<svg id="Layer_1" height="512" viewBox="0 0 512 512" width="512" xmlns="http://www.w3.org/2000/svg" data-name="Layer 1"><path d="m233.2 257.1a6 6 0 0 0 0 8.486l13.219 13.214a6 6 0 0 0 8.484-8.485l-13.216-13.215a6 6 0 0 0 -8.487 0z"/><path d="m208.645 224.055a6 6 0 0 0 -8.485 8.485l13.217 13.217a6 6 0 1 0 8.484-8.486z"/><path d="m175.6 191.013a6 6 0 0 0 -8.485 8.486l13.217 13.216a6 6 0 0 0 8.484-8.485z"/><path d="m266.244 290.138a6 6 0 0 0 0 8.486l13.216 13.216a6 6 0 0 0 8.486-8.486l-13.216-13.216a6 6 0 0 0 -8.486 0z"/><path d="m299.284 323.18a6 6 0 0 0 0 8.485l13.216 13.216a6 6 0 1 0 8.484-8.485l-13.214-13.216a6 6 0 0 0 -8.486 0z"/><path d="m332.327 356.221a6 6 0 0 0 0 8.486l13.217 13.216a6 6 0 1 0 8.484-8.485l-13.216-13.217a6 6 0 0 0 -8.485 0z"/><path d="m364.635 388.528a6 6 0 0 0 0 8.486l13.215 13.216a6 6 0 0 0 8.486-8.485l-13.216-13.217a6 6 0 0 0 -8.485 0z"/><path d="m142.562 157.972a6 6 0 1 0 -8.485 8.485l13.217 13.216a6 6 0 1 0 8.484-8.485z"/><path d="m110.254 125.664a6 6 0 1 0 -8.484 8.485l13.216 13.217a6 6 0 0 0 8.485-8.485z"/><path d="m270.313 254.9a6 6 0 0 0 8.485-8.486l-13.217-13.214a6 6 0 0 0 -8.484 8.485z"/><path d="m224.055 208.646 13.216 13.216a6 6 0 0 0 8.486-8.486l-13.216-13.216a6 6 0 0 0 -8.486 8.486z"/><path d="m208.473 190.578a6 6 0 0 0 4.242-10.243l-13.215-13.216a6 6 0 1 0 -8.484 8.485l13.214 13.216a5.981 5.981 0 0 0 4.243 1.758z"/><path d="m303.355 287.945a6 6 0 0 0 8.485-8.485l-13.217-13.217a6 6 0 1 0 -8.484 8.486z"/><path d="m336.4 320.987a6 6 0 1 0 8.485-8.486l-13.217-13.216a6 6 0 0 0 -8.484 8.485z"/><path d="m369.438 354.028a6 6 0 1 0 8.485-8.485l-13.217-13.216a6 6 0 1 0 -8.484 8.485z"/><path d="m401.746 386.336a6 6 0 1 0 8.484-8.485l-13.216-13.217a6 6 0 0 0 -8.485 8.485z"/><path d="m175.431 157.536a6 6 0 0 0 4.242-10.243l-13.217-13.216a6 6 0 1 0 -8.484 8.485l13.216 13.217a5.984 5.984 0 0 0 4.243 1.757z"/><path d="m143.123 125.229a6 6 0 0 0 4.243-10.243l-13.216-13.216a6 6 0 0 0 -8.486 8.485l13.216 13.217a5.984 5.984 0 0 0 4.243 1.757z"/><path d="m256 22.918a233.081 233.081 0 0 0 -164.813 397.9 233.081 233.081 0 1 0 329.626-329.632 231.556 231.556 0 0 0 -164.813-68.268zm0 454.164a221.217 221.217 0 0 1 -189.928-334.411l303.257 303.257a219.717 219.717 0 0 1 -113.329 31.154zm189.928-107.753-208.088-208.089a6 6 0 0 0 -8.485 0 6 6 0 0 0 0 8.485l209.957 209.958a223.987 223.987 0 0 1 -59.629 59.629l-306.995-306.995a223.987 223.987 0 0 1 59.629-59.629l68.754 68.754a6 6 0 0 0 8.485-8.485l-66.885-66.885a221.217 221.217 0 0 1 303.257 303.257z"/><path d="m190.9 307.824a6 6 0 0 0 8.484-8.486l-57.71-57.709a6 6 0 1 0 -8.484 8.485z"/><path d="m98.722 215.65a6 6 0 1 0 8.484-8.485l-19.276-19.276a6 6 0 1 0 -8.485 8.485z"/><path d="m117.356 234.285a6 6 0 1 0 8.485-8.486l-3.4-3.4a6 6 0 0 0 -8.484 8.486z"/></svg>