<svg id="Layer_1" height="512" viewBox="0 0 512 512" width="512" xmlns="http://www.w3.org/2000/svg" data-name="Layer 1"><path d="m460.74 19.5a6 6 0 0 0 -8.484 0l-125.011 125.011-15.172-15.172a14 14 0 0 0 -19.8 0l-267.973 267.978a22.365 22.365 0 0 0 0 31.634l58.75 58.754a22.393 22.393 0 0 0 31.633 0l267.979-267.979a14.018 14.018 0 0 0 0-19.8l-15.173-15.173 125.011-125.008a6 6 0 0 0 0-8.486zm-366.367 461.725a10.393 10.393 0 0 1 -2.839-2.006l-58.754-58.754a10.348 10.348 0 0 1 -2.005-2.838l71.331-7.734zm279.8-272.813a2 2 0 0 1 0 2.829l-267.456 267.459 7.895-72.832 130.132-130.525a6 6 0 0 0 -8.5-8.472l-130.123 130.517-72.821 7.9 267.46-267.464a2 2 0 0 1 2.828 0l30.7 30.7-69.8 70.016a6 6 0 0 0 8.5 8.472l69.791-70zm-15.173-32.142-23.27-23.27 20.48-20.479 23.272 23.273zm28.964-28.965-23.274-23.273 16.587-16.587 23.274 23.273zm25.072-25.072-23.269-23.272 16.587-16.588 23.273 23.273zm25.071-25.072-23.268-23.273 16.587-16.588 23.274 23.274zm25.073-25.072-23.269-23.273 16.589-16.587 23.271 23.271z"/><path d="m139.14 315.459-57.71 57.71a6 6 0 1 0 8.485 8.485l57.71-57.71a6 6 0 0 0 -8.485-8.485z"/><path d="m192.879 261.719-19.279 19.281a6 6 0 1 0 8.486 8.485l19.275-19.275a6 6 0 0 0 -8.486-8.486z"/><path d="m158.367 296.231-3.4 3.4a6 6 0 1 0 8.486 8.485l3.4-3.4a6 6 0 1 0 -8.487-8.485z"/></svg>