<svg id="Layer_1" height="512" viewBox="0 0 512 512" width="512" xmlns="http://www.w3.org/2000/svg" data-name="Layer 1"><path d="m148.359 88.505a5.976 5.976 0 0 0 2.9-.749 163.856 163.856 0 0 1 124.954-13.687 6 6 0 0 0 3.381-11.513 175.851 175.851 0 0 0 -134.143 14.7 6 6 0 0 0 2.908 11.252z"/><path d="m113.52 114.045a5.977 5.977 0 0 0 4.132-1.651c3.648-3.467 7.5-6.806 11.455-9.923a6 6 0 1 0 -7.429-9.423c-4.243 3.346-8.379 6.928-12.293 10.649a6 6 0 0 0 4.135 10.348z"/><path d="m467.4 421.316a5.991 5.991 0 0 0 -2.161-1.772l-27.884-13.536a5.99 5.99 0 0 0 -5.968.437l-41.722-41.722a208.014 208.014 0 0 0 48.782-133.951c0-114.865-93.449-208.314-208.314-208.314s-208.316 93.449-208.316 208.314a208.34 208.34 0 0 0 96.754 175.85l-32.792 32.792a29.364 29.364 0 1 0 41.528 41.527l48.935-48.936a209.26 209.26 0 0 0 107.817.038l48.9 48.9a29.364 29.364 0 1 0 41.527-41.527l-32.72-32.721a209.363 209.363 0 0 0 27.934-21.275l41.657 41.657a6 6 0 0 0 -.327 6.182l14.519 27.192a6.018 6.018 0 0 0 1.359 1.7l26.765 23.239a6 6 0 0 0 9.717-2.934l5.122-18.553 17.263-4.74a6 6 0 0 0 3.193-9.411zm-348.577 51.14a17.365 17.365 0 1 1 -24.559-24.556l34.947-34.947a207.249 207.249 0 0 0 34 15.11zm247.177-24.556a17.365 17.365 0 1 1 -24.558 24.557l-44.362-44.357a206.533 206.533 0 0 0 34.041-15.074zm-135.868-20.813c-108.248 0-196.315-88.066-196.315-196.315s88.067-196.314 196.315-196.314 196.314 88.066 196.314 196.314a196.022 196.022 0 0 1 -45.3 125.429l-39.927-39.927a140.193 140.193 0 0 0 29.081-85.429c0-77.289-62.879-140.112-140.168-140.112a140.222 140.222 0 0 0 -138.9 121.441 6.014 6.014 0 0 0 5.95 6.826h.006a6.009 6.009 0 0 0 5.943-5.229c8.456-62.5 62.182-111.038 127-111.038 70.672 0 128.168 57.432 128.168 128.1a128.246 128.246 0 0 1 -25.643 76.88l-29.985-29.985a86.534 86.534 0 1 0 -19.455 21.209l29.742 29.742a127.69 127.69 0 0 1 -82.827 30.387c-63.512 0-116.378-46.468-126.44-107.021a6 6 0 1 0 -11.841 1.94 140.122 140.122 0 0 0 229.6 83.183l39.75 39.752a195.4 195.4 0 0 1 -131.068 50.167zm61.052-189.248a6 6 0 0 0 -4.53-4.108l-17.254-3.531a39.281 39.281 0 1 0 -32.949 39.349l2.516 13.074a6 6 0 0 0 10.2 3.042l10.222-10.546 15.271 15.271a74.34 74.34 0 1 1 19.306-21.359l-14.563-14.562 10.353-10.681a6.006 6.006 0 0 0 1.428-5.949zm-62.27-7.471 5.268 27.374a27.279 27.279 0 1 1 23.059-30.037l-21.231-4.349a6 6 0 0 0 -7.1 7.012zm44.612 12.923-24.951 25.743-6.181-32.121zm146.1 175.093-151.882-151.884 3.31-3.415 151.884 151.882zm4.042 13.079 12.35-12.762 16.5 8.012-20.265 20.84zm38.371 21.775a6 6 0 0 0 -4.194 4.189l-3.5 12.667-14.787-12.838 22.489-23.128 11.991 15.814z"/></svg>