<svg id="Layer_1" height="512" viewBox="0 0 512 512" width="512" xmlns="http://www.w3.org/2000/svg" data-name="Layer 1"><path d="m493.846 131.516-58.731-6.216 4.385-4.384a34.2 34.2 0 0 0 -48.369-48.37l-4.386 4.385-6.214-58.751a6.21 6.21 0 0 0 -2.794-4.661 6.009 6.009 0 0 0 -7.437.841l-93.97 93.969a6 6 0 0 0 -1.725 4.874l7.258 68.611-41.342 41.342a5.983 5.983 0 0 0 -6.2 1.407l-19.4 19.405a6 6 0 0 0 .132 8.613 6.166 6.166 0 0 0 8.531-.306l14.984-14.984 36.192 36.191-89.119 89.118-36.192-36.192 45.668-45.667a6 6 0 0 0 -8.485-8.486l-49.91 49.911a5.979 5.979 0 0 0 -1.408 6.2l-7.408 7.407a268.6 268.6 0 0 0 -55.531 80.706l-11.747 26.305-43.828 43.885a6 6 0 0 0 .006 8.486 6 6 0 0 0 8.485 0l43.83-43.885 26.066-11.557a268.558 268.558 0 0 0 81.343-55.816l7.158-7.157a5.893 5.893 0 0 0 6.2-1.407l97.6-97.6a5.981 5.981 0 0 0 1.408-6.2l41.342-41.343 68.611 7.257a6.076 6.076 0 0 0 .631.033 6 6 0 0 0 4.242-1.757l93.97-93.969a6 6 0 0 0 .832-7.448 6.239 6.239 0 0 0 -4.678-2.79zm-325.8 243.89a256.6 256.6 0 0 1 -77.724 53.332l-12.813 5.681 5.827-13.049a256.666 256.666 0 0 1 53.06-77.112l6.968-6.969 31.4 31.4zm231.569-294.372a22.2 22.2 0 0 1 31.4 31.4l-61.358 61.357-31.4-31.4zm-29.715-49.299 5.936 56.112-21.036 21.036-5.935-56.111zm-31.952 31.949 5.935 56.112-19.157 19.158-5.935-56.112zm-30.07 30.07 5.934 56.113-21.037 21.033-5.935-56.112zm-27.034 168.846-31.4-31.4 80.328-80.328 31.4 31.4zm116.413-37.4-56.111-5.935 21.037-21.037 56.111 5.935zm31.95-31.95-56.107-5.927 19.157-19.157 56.11 5.935zm30.069-30.07-56.111-5.935 21.035-21.029 56.11 5.935z"/><path d="m231.26 206.276a5.986 5.986 0 0 0 4.243-1.757l15.17-15.171a6 6 0 0 0 -8.486-8.485l-15.17 15.17a6 6 0 0 0 4.243 10.243z"/><path d="m148.885 289.619a5.979 5.979 0 0 0 4.242-1.758l65.188-65.188a6 6 0 0 0 -8.484-8.485l-65.188 65.188a6 6 0 0 0 4.242 10.243z"/><path d="m127.165 311.339a5.983 5.983 0 0 0 4.243-1.758l3.839-3.839a6 6 0 0 0 -8.486-8.485l-3.839 3.84a6 6 0 0 0 4.243 10.242z"/></svg>