<?xml version="1.0" encoding="UTF-8"?>
<svg xmlns="http://www.w3.org/2000/svg" id="Layer_1" data-name="Layer 1" viewBox="0 0 512 512" width="512" height="512"><path d="M219.946,123.879a6,6,0,0,0-7.712,3.541c-5.894,15.9-13.3,46.843-16.453,62.747a6,6,0,1,0,11.772,2.333c3.075-15.526,10.265-45.621,15.933-60.909A6,6,0,0,0,219.946,123.879Z"/><path d="M222.345,117.954a6,6,0,0,0,7.908-3.076c1.164-2.646,2.379-5.3,3.611-7.9a6,6,0,1,0-10.842-5.143c-1.281,2.7-2.543,5.463-3.753,8.212A6,6,0,0,0,222.345,117.954Z"/><path d="M201.148,502.3a31.542,31.542,0,0,0,26.38-13.3,35.063,35.063,0,0,0,57.024-.112A31.6,31.6,0,0,0,342,470.6V237.206A316.856,316.856,0,0,0,304.739,88.3l-7.1-13.308c3.265-.06,6.362-2.348,6.362-5.618v-43.4A18.366,18.366,0,0,0,285.933,8H226.067A18.366,18.366,0,0,0,208,25.973v43.4c0,3.269,3.094,5.556,6.357,5.618L207.267,88.3A316.862,316.862,0,0,0,170,237.206V371a6,6,0,0,0,12,0V339h37.75c8.485,5.839,21.369,12.251,37.021,12.251s28.535-6.412,37.02-12.251H330V470.6a19.693,19.693,0,0,1-39.252,2.307,35.019,35.019,0,0,0,.252-4.417v-2.8a6,6,0,0,0-12,0v2.8a23,23,0,1,1-46,0v-2.8a6,6,0,0,0-12,0v2.8a35.421,35.421,0,0,0,.231,4.43A19.569,19.569,0,0,1,201.4,490.3,19.968,19.968,0,0,1,182,470.208V411a6,6,0,0,0-12,0v59.044C170,487.43,183.765,502.028,201.148,502.3ZM220,25.973A6.374,6.374,0,0,1,226.067,20h59.866A6.374,6.374,0,0,1,292,25.973V63H220ZM182,237.206A304.823,304.823,0,0,1,217.843,93.96L227.96,75h56.089l10.1,18.959A304.836,304.836,0,0,1,330,237.206V248H293.985a62.648,62.648,0,0,0-74.429,0H182ZM291.886,327a6,6,0,0,0-3.525,1.144c-6.981,5.067-18.129,11.107-31.59,11.107s-24.61-6.04-31.591-11.107A6,6,0,0,0,221.655,327H182V260h39.655a6,6,0,0,0,3.831-1.382,50.458,50.458,0,0,1,62.569,0A6,6,0,0,0,291.886,260H330v67Z"/></svg>
