<?xml version="1.0" encoding="UTF-8"?>
<svg xmlns="http://www.w3.org/2000/svg" id="Layer_1" data-name="Layer 1" viewBox="0 0 512 512" width="512" height="512"><path d="M469.394,271.3c-5.154,0-9.394,1.543-14.394,4.183v-3.23a32,32,0,1,0-64,0V305H231V272.254a32,32,0,1,0-64,0v3.194c-5-2.628-9.232-4.147-14.4-4.147A26.6,26.6,0,0,0,126,297.649v77.7A26.6,26.6,0,0,0,152.6,401.7c5.156,0,9.4-1.526,14.4-4.163v3.21a32,32,0,1,0,64,0V368H391v32.746a32,32,0,1,0,64,0v-3.229c5,2.64,9.24,4.182,14.394,4.182A26.6,26.6,0,0,0,496,375.351v-77.7A26.6,26.6,0,0,0,469.394,271.3ZM167,377.72c-2,6.849-7.41,11.979-14.4,11.979A14.584,14.584,0,0,1,138,375.351v-77.7A14.584,14.584,0,0,1,152.6,283.3c7.017,0,12.4,5.13,14.4,12Zm52,23.026a20,20,0,1,1-40,0V272.254a20,20,0,1,1,40,0ZM391,356H231V317H391Zm52,44.746a20,20,0,1,1-40,0V272.254a20,20,0,1,1,40,0Zm41-25.395A14.588,14.588,0,0,1,469.394,389.7c-6.966,0-12.394-5.109-14.394-11.931V295.232c2-6.822,7.43-11.931,14.394-11.931A14.588,14.588,0,0,1,484,297.649Z"/><path d="M42.363,240.7A26.263,26.263,0,0,0,57,236.225v3.185C57,257,70.913,271.8,88.5,272.071A32.082,32.082,0,0,0,121,239.746V207H281v32.746a32,32,0,1,0,64,0v-3.229c5,2.64,9.24,4.182,14.394,4.182A26.6,26.6,0,0,0,386,214.351v-77.7A26.6,26.6,0,0,0,359.394,110.3c-5.154,0-9.394,1.543-14.394,4.183v-3.23a32,32,0,1,0-64,0V144H121V111.254A32.082,32.082,0,0,0,88.5,78.929C70.913,79.2,57,94,57,111.59v3.165a26.343,26.343,0,0,0-41,21.894v77.7A26.39,26.39,0,0,0,42.363,240.7ZM345,134.232c2-6.822,7.43-11.931,14.394-11.931A14.588,14.588,0,0,1,374,136.649v77.7A14.588,14.588,0,0,1,359.394,228.7c-6.966,0-12.394-5.109-14.394-11.931Zm-52-22.978a20,20,0,1,1,40,0V239.746a20,20,0,1,1-40,0ZM121,156H281v39H121ZM28,136.649a14.361,14.361,0,0,1,28.593-1.911l.407-.053V137a6,6,0,0,0,12,0V111.4c0-11,8.686-20.3,19.687-20.469A20.069,20.069,0,0,1,109,111.254V239.6c0,11-8.686,20.3-19.687,20.469A20.069,20.069,0,0,1,69,239.746V177a6,6,0,0,0-12,0v39.461l-.418-.059A14.366,14.366,0,0,1,28,214.351Z"/><path d="M202.2,132h51.9a6,6,0,0,0,0-12H202.2a6,6,0,0,0,0,12Z"/><path d="M163.465,133h16.613a6,6,0,0,0,0-12H163.465a6,6,0,0,0,0,12Z"/><path d="M135.465,133h5.613a6,6,0,0,0,0-12h-5.613a6,6,0,0,0,0,12Z"/><path d="M81,141.728a6,6,0,0,0,6-6v-6.474a6,6,0,0,0-12,0v6.474A6,6,0,0,0,81,141.728Z"/><path d="M81,231.746a6,6,0,0,0,6-6V152.728a6,6,0,0,0-12,0v73.018A6,6,0,0,0,81,231.746Z"/></svg>
