<?xml version="1.0" encoding="UTF-8"?>
<svg xmlns="http://www.w3.org/2000/svg" id="Layer_1" data-name="Layer 1" viewBox="0 0 512 512" width="512" height="512"><path d="M324.142,372A23.977,23.977,0,0,0,300,395.8v24.762a57.5,57.5,0,0,0,115,0V395.8A23.977,23.977,0,0,0,390.858,372ZM403,395.8v24.762a45.5,45.5,0,0,1-91,0V395.8A11.964,11.964,0,0,1,324.142,384h66.716A11.964,11.964,0,0,1,403,395.8Z"/><path d="M455.268,95.516a5.99,5.99,0,0,0-6.913,1.035l-6.56,6.376A53.411,53.411,0,0,1,362.254,97.2a6,6,0,0,0-9.509,0,53.413,53.413,0,0,1-79.543,5.731l-6.562-6.376a6,6,0,0,0-10.116,5.188L292.606,343.6A78.091,78.091,0,0,0,279,387.8v32.762a78.5,78.5,0,1,0,157,0V387.8a78.091,78.091,0,0,0-13.606-44.2l36.06-241.857A5.992,5.992,0,0,0,455.268,95.516ZM357.5,110.027a65.494,65.494,0,0,0,32.759,18.4L373.422,310.835a78.388,78.388,0,0,0-33.372.354L323.209,128.75A65.491,65.491,0,0,0,357.5,110.027Zm-86.609,6.7a65.482,65.482,0,0,0,40.383,13.277l17.062,184.836a78.793,78.793,0,0,0-25.461,16.535ZM424,387.8v32.762a66.5,66.5,0,1,1-133,0V387.8a66.5,66.5,0,1,1,133,0ZM412.125,331.38a78.74,78.74,0,0,0-26.967-17.13l17.01-184.279a65.507,65.507,0,0,0,41.941-13.239Z"/><path d="M252.279,13.516a6,6,0,0,0-6.919,1.035L238.8,20.927A53.446,53.446,0,0,1,197.741,35.89,53.461,53.461,0,0,1,159.255,15.2a6,6,0,0,0-9.51,0A53.461,53.461,0,0,1,111.259,35.89,53.462,53.462,0,0,1,70.2,20.927L63.64,14.551a6,6,0,0,0-10.116,5.188L89.606,261.6A78.091,78.091,0,0,0,76,305.8v32.762a78.5,78.5,0,1,0,157,0V305.8a78.091,78.091,0,0,0-13.606-44.2l36.06-241.857A5.985,5.985,0,0,0,252.279,13.516ZM67.891,34.732a65.489,65.489,0,0,0,40.383,13.277l4.112,44.543a6,6,0,1,0,11.949-1.1l-4.126-44.7A65.491,65.491,0,0,0,154.5,28.027a65.494,65.494,0,0,0,32.759,18.4L170.422,228.835a78.388,78.388,0,0,0-33.372.354l-9.022-97.741a6,6,0,0,0-11.95,1.1l9.258,100.293A78.793,78.793,0,0,0,99.875,249.38ZM221,305.8v32.762a66.5,66.5,0,1,1-133,0V305.8a66.5,66.5,0,1,1,133,0ZM209.125,249.38a78.74,78.74,0,0,0-26.967-17.13l17.01-184.279a65.483,65.483,0,0,0,41.941-13.239Z"/><path d="M121.142,290A23.977,23.977,0,0,0,97,313.8v24.762a57.5,57.5,0,0,0,115,0V313.8A23.977,23.977,0,0,0,187.858,290ZM200,313.8v24.762a45.5,45.5,0,0,1-91,0V313.8A11.964,11.964,0,0,1,121.142,302h66.716A11.964,11.964,0,0,1,200,313.8Z"/><path d="M96.589,102.779a6,6,0,0,0,5.16-6.737L100.138,83.9a6,6,0,0,0-11.9,1.578l1.611,12.146a5.992,5.992,0,0,0,6.736,5.158Z"/><path d="M107.469,190.869a6.006,6.006,0,0,0,5.956-6.789l-9.569-72.146a6,6,0,0,0-11.9,1.578l9.569,72.146A6,6,0,0,0,107.469,190.869Z"/></svg>
