<?xml version="1.0" encoding="UTF-8"?>
<svg xmlns="http://www.w3.org/2000/svg" id="Layer_1" data-name="Layer 1" viewBox="0 0 512 512" width="512" height="512"><path d="M91,369.484a6,6,0,0,0-6,6V488.977a6,6,0,0,0,12,0V375.484A6,6,0,0,0,91,369.484Z"/><path d="M97,312.748a6,6,0,0,0-12,0v40.614a6,6,0,0,0,12,0Z"/><path d="M97,284.748a6,6,0,0,0-12,0v5.614a6,6,0,0,0,12,0Z"/><path d="M418.352,281.505a6,6,0,0,0,8.867-5.27l0-190.5a6,6,0,0,0-3.132-5.27L384.684,59.016a109.974,109.974,0,0,0-118.262,8.6A97.941,97.941,0,0,1,161.1,75.267L152,70.316V37.473a20.517,20.517,0,0,0-21.365-20.432C119.57,17.5,111,26.958,111,38.032V127a6,6,0,0,0,12,0V37.835a8.711,8.711,0,0,1,7.846-8.787A8.5,8.5,0,0,1,140,37.473V482H123V167a6,6,0,0,0-12,0V488.348A5.653,5.653,0,0,0,116.652,494h29.575A5.773,5.773,0,0,0,152,488.227V274.472l3.37,1.837a109.946,109.946,0,0,0,118.25-8.6,97.937,97.937,0,0,1,105.324-7.654ZM382,70.966,415,89.3v35.45l-30.2-16.62c-1.042-.567-1.8-1.108-2.8-1.639Zm0,49.112,33,18.333v35.451l-30.195-16.62c-1.042-.567-1.805-1.109-2.805-1.639Zm0,49.112,33,18.334v35.45l-30.193-16.619c-1.043-.567-1.807-1.109-2.807-1.64Zm0,49.112,33,18.334v29.5l-30.2-16.621c-1.041-.567-1.8-1.109-2.8-1.639Zm-92-52.848a100.456,100.456,0,0,1,33.767-9.136l-.041,37.072A111.88,111.88,0,0,0,290,201.429Zm-138,16.74,3.375,1.839a109.11,109.11,0,0,0,31.42,11.278l0,36.863a97.2,97.2,0,0,1-25.691-9.568l-9.1-4.952Zm35,93.144a96.015,96.015,0,0,1-25.8-9.569l-9.2-4.985V231.275l3.468,1.871A108.054,108.054,0,0,0,187,244.423Zm0-92.276a95.909,95.909,0,0,1-25.8-9.569l-9.2-4.987V133.04l3.48,1.88A108,108,0,0,0,187,146.2Zm0-49.112a95.964,95.964,0,0,1-25.8-9.57l-9.2-4.987V83.937l3.466,1.87A108.062,108.062,0,0,0,187,97.078Zm45,140.492a95.033,95.033,0,0,1-33,2.746v-31.12c3,.243,5.626.375,8.612.375A106.666,106.666,0,0,0,232,243.62Zm0-43.162a95.008,95.008,0,0,1-33,2.745v-37.07c3,.243,5.625.376,8.611.376A106.676,106.676,0,0,0,232,194.507Zm0-49.112a96.975,96.975,0,0,1-33.449,2.745l.239-37.071c2.981.243,5.729.375,8.714.375a107.594,107.594,0,0,0,24.5-2.823ZM199,135.8V98.725a110.354,110.354,0,0,0,33.582-2.442l.052,36.771A98.622,98.622,0,0,1,199,135.8Zm79,114.654a115.131,115.131,0,0,0-11.9,7.659A92.444,92.444,0,0,1,244,270.479V240.13a100.35,100.35,0,0,0,29.305-15.579c1.486-1.114,3.695-2.166,4.695-3.186Zm0-43.159a115.119,115.119,0,0,0-11.895,7.657A92.492,92.492,0,0,1,244,227.319v-36.3a100.318,100.318,0,0,0,29.3-15.578c1.486-1.114,3.7-2.167,4.7-3.187Zm0-49.114a115.132,115.132,0,0,0-11.9,7.657A92.454,92.454,0,0,1,244,178.206V141.9a100.337,100.337,0,0,0,29.3-15.578c1.486-1.114,3.7-2.168,4.7-3.188Zm0-49.113a115.108,115.108,0,0,0-11.9,7.658A92.45,92.45,0,0,1,244,129.092V92.8a100.3,100.3,0,0,0,29.3-15.583c1.487-1.115,3.7-2.168,4.7-3.189Zm46,127.483a110.216,110.216,0,0,0-34,8.038V214.567a99.254,99.254,0,0,1,34-9.136Zm0-92.275a110.189,110.189,0,0,0-34,8.039V116.34a99.254,99.254,0,0,1,34-9.136Zm0-49.112a110.216,110.216,0,0,0-34,8.038V67.226a99.275,99.275,0,0,1,34-9.135Zm46,147.56a114.506,114.506,0,0,0-34-6.446V205.122a102.54,102.54,0,0,1,34,7.291Zm0-43.163a114.5,114.5,0,0,0-34-6.444V156.01a102.54,102.54,0,0,1,34,7.291Zm0-49.113A110.914,110.914,0,0,0,336.2,144l-.115-37.107A99.772,99.772,0,0,1,370,114.188Zm0-49.112a114.472,114.472,0,0,0-34-6.445V57.784a102.517,102.517,0,0,1,34,7.292Z"/></svg>
