<?xml version="1.0" encoding="UTF-8"?>
<svg xmlns="http://www.w3.org/2000/svg" id="Layer_1" data-name="Layer 1" viewBox="0 0 512 512" width="512" height="512"><path d="M106.288,205l10.045-10.045a6,6,0,0,0-8.485-8.486L97.8,196.512A6,6,0,0,0,106.288,205Z"/><path d="M104.385,230.427a5.982,5.982,0,0,0,4.242-1.757l31.385-31.385a6,6,0,0,0-8.485-8.485l-31.385,31.385a6,6,0,0,0,4.243,10.242Z"/><path d="M398.474,198a6,6,0,0,0,0-12H296.482a6,6,0,0,0,0,12Z"/><path d="M260.552,198h13.807a6,6,0,0,0,0-12H260.552a6,6,0,0,0,0,12Z"/><path d="M418.818,161H176a6,6,0,0,0,0,12H419.115A5.885,5.885,0,0,1,425,178.885V308.872a5.963,5.963,0,0,1-4.779,5.886L310.147,336.522,284.332,295.8a33.558,33.558,0,0,0-56.682,0l-25.828,40.726L91.778,314.758A5.962,5.962,0,0,1,87,308.872V179.182A6.2,6.2,0,0,1,93.182,173H136a6,6,0,0,0,0-12H92.885A17.885,17.885,0,0,0,75,178.885V308.872A17.99,17.99,0,0,0,89.452,326.53l114.1,22.561a5.977,5.977,0,0,0,6.216-2.673L237.8,302.224a21.561,21.561,0,0,1,36.419,0l28.03,44.194a5.988,5.988,0,0,0,6.229,2.673L422.548,326.53A17.99,17.99,0,0,0,437,308.872V179.182A18.236,18.236,0,0,0,418.818,161Z"/><path d="M495.5,162H463V151.182A16.077,16.077,0,0,0,447.115,135H64.885A16.077,16.077,0,0,0,49,151.182V162H16.5c-3.314,0-6.5,2.607-6.5,5.92V311.254c0,3.313,3.186,5.746,6.5,5.746H49v15.163a15.975,15.975,0,0,0,12.893,15.706l147.553,28.655a16.065,16.065,0,0,0,3.085.3,15.879,15.879,0,0,0,13.454-7.437L256,322.053l30.02,47.334h0a15.908,15.908,0,0,0,16.56,7.137l147.524-28.655A15.974,15.974,0,0,0,463,332.163V317h32.5c3.314,0,5.5-2.433,5.5-5.746V167.92C501,164.607,498.814,162,495.5,162ZM49,305H22V174H49Zm402,27.163a3.956,3.956,0,0,1-3.18,3.926L300.267,364.764A4.754,4.754,0,0,1,296.141,363h.008l-34.224-54.089A6.116,6.116,0,0,0,256.861,306h-1.722a6.1,6.1,0,0,0-5.067,2.89l-34.228,54.018a3.991,3.991,0,0,1-4.14,1.81L64.18,336.076A3.942,3.942,0,0,1,61,332.163V151.182A4.068,4.068,0,0,1,64.885,147h382.23A4.068,4.068,0,0,1,451,151.182ZM489,305H463V174h26Z"/></svg>
