<svg id="Layer_1" height="512" viewBox="0 0 512 512" width="512" xmlns="http://www.w3.org/2000/svg" data-name="Layer 1"><path d="m418.887 302.291c-43.29-9.4-100.76-14.577-161.822-14.577-30.973 0-60.881 1.332-89.065 3.93v-204.11a16.261 16.261 0 0 0 -15.958-16 16.1 16.1 0 0 0 -16.424 16v21.574l-110.131 48.026a6 6 0 0 0 0 11l110.107 48.019-.014 79.15c-44.029 6.022-111.564 19.9-111.564 47.816l-.451 42.146c0 16.749 24.085 30.4 71.586 40.676 43.453 9.4 100.962 14.551 161.934 14.551 60.942 0 118.361-5.19 161.679-14.59 47.326-10.27 71.322-23.979 71.322-40.785l.029-42.1c0-16.759-23.965-30.463-71.228-40.726zm-270.074-217.608a4.492 4.492 0 0 1 3.062-1.149 4.187 4.187 0 0 1 4.125 4v259.173c-5-1.8-7.391-3.284-8.24-4.024l-.087-255.149a3.919 3.919 0 0 1 1.14-2.851zm-105.913 77.951 92.712-40.434-.015 80.864zm420.57 236.381c-10.834 5.552-27.174 10.79-47.251 15.147-42.507 9.224-99.021 14.3-159.134 14.3-60.145 0-116.753-5.08-159.4-14.305-60.38-13.061-62.123-27.405-62.124-28.932l.255-23.338c11.493 8.445 31.348 15.755 59.425 21.852 43.289 9.4 100.758 14.577 161.821 14.577s118.532-5.176 161.822-14.577q41.611-9.036 59-21.551l.2 22.971c.002 4.047-5.325 9.095-14.614 13.856zm.062-42.144c-10.818 5.553-27.136 10.79-47.192 15.146-42.478 9.223-99.043 14.3-159.275 14.3s-116.8-5.08-159.275-14.3c-20.056-4.356-36.374-9.593-47.191-15.146-9.268-4.759-14.583-9.808-14.583-13.854 0-2.152 1.937-9.894 26.863-19.177 17.767-6.616 42.8-12.262 72.7-16.422l-.007 37.124a5.987 5.987 0 0 0 .428 2.258c2 4.93 8.665 12.138 43.353 17.775 23.215 3.773 53.433 5.851 85.093 5.851 33.2 0 64.461-2.261 88.031-6.367 28.357-4.94 41-11.436 41-21.061s-12.656-16.123-41.034-21.067c-23.589-4.109-54.781-6.372-87.98-6.372-10.85 0-21.478.25-31.729.73a6.008 6.008 0 0 0 .55 12c10.1-.481 20.592-.734 31.179-.734 30.226 0 59.143 1.937 81.5 5.455 24.61 3.873 32.494 8.2 34.825 9.985-2.329 1.783-10.237 6.108-34.824 9.977-22.338 3.514-51.291 5.45-81.517 5.45s-58.993-1.932-81.368-5.442c-6.053-.946-11.079-1.922-15.079-2.88v-14.183a231.578 231.578 0 0 1 25.736-4.359 6 6 0 0 0 5.264-5.958v-.012a6.012 6.012 0 0 0 -6.747-5.966c-9.085 1.129-16.994 2.474-24.253 4.012v-19.934c28.139-2.633 58.053-3.983 89.065-3.983 60.232 0 116.8 5.08 159.275 14.3 20.056 4.355 36.374 9.592 47.192 15.146 9.267 4.758 14.583 9.807 14.583 13.853s-5.315 9.096-14.583 13.855z"/><path d="m414.619 354.248c-15.505 6.08-40.318 11.236-69.867 14.52a6 6 0 0 0 .655 11.964 6.071 6.071 0 0 0 .67-.037c31.01-3.446 56.226-8.729 72.923-15.276a6 6 0 1 0 -4.381-11.171z"/><path d="m438.214 344.453a6 6 0 0 0 -8.445.83 12.8 12.8 0 0 1 -1.269 1.317 6 6 0 1 0 8.083 8.869 24.644 24.644 0 0 0 2.459-2.573 6 6 0 0 0 -.828-8.443z"/></svg>