<svg id="Layer_1" height="512" viewBox="0 0 512 512" width="512" xmlns="http://www.w3.org/2000/svg" data-name="Layer 1"><path d="m231.611 131.411h.164a6 6 0 0 0 6-5.871l.639-29.589a27.343 27.343 0 0 0 -11.292-22.73l-26.571-19.249a29.972 29.972 0 0 0 -26.3-4.329 28.48 28.48 0 0 0 -18.617 17.67q-.273.759-.507 1.539a29.625 29.625 0 0 0 26.539 38.072l20.973 1.3a1.228 1.228 0 0 1 1.134 1.321l-.217 15.17a6 6 0 0 0 5.835 6.084l5.191.142-.404 37.059h-30.4a5.673 5.673 0 0 0 -5.778 5.837v95.163h-12.382c-3.314 0-5.618 2.739-5.618 6.052v93.775a40.236 40.236 0 0 0 18 33.781v75.746a26.486 26.486 0 0 0 26.437 26.646h87.706a26.845 26.845 0 0 0 26.857-26.646v-25.354l23.86-28.35a67.311 67.311 0 0 0 11.732-36.966c.766-46.763 3.508-155.684 3.54-156.684h-.023a5.333 5.333 0 0 0 -1.23-3.966l-23.6-30.824a6.038 6.038 0 0 0 -4.565-2.384 5.778 5.778 0 0 0 -4.61 2.022l-5.104 5.912v-27.923a6.032 6.032 0 0 0 -6.193-5.837h-36.683l-.464-78.381 5.219-.143a6 6 0 0 0 5.835-6.083l-.214-15.249a1.206 1.206 0 0 1 1.136-1.242l20.969-1.302a29.623 29.623 0 0 0 26.538-38.072q-.234-.781-.506-1.538a28.483 28.483 0 0 0 -18.617-17.674 29.964 29.964 0 0 0 -26.3 4.33l-26.568 19.254a27.347 27.347 0 0 0 -11.293 22.73l.639 29.589a6 6 0 0 0 6 5.871q.082 0 .165 0l5-.136.461 78.046h-37.945l.4-36.727zm87.389 88.554 9.308-10.729 16.88 21.926-26.188 50.938zm0 88.338 26.58-51.791c-.875 35.488-2.476 98.206-3.01 130.8a55.735 55.735 0 0 1 -9.409 30.3l-14.161 16.774zm-147-27.303h57v24h-57zm0 87.827v-51.827h57v51.827a28.5 28.5 0 1 1 -57 0zm91.865-314.089-.009-.37a15.345 15.345 0 0 1 6.337-12.754l26.568-19.252a17.682 17.682 0 0 1 15.719-2.58 16.585 16.585 0 0 1 10.864 10.262q.163.456.305.926a17.627 17.627 0 0 1 -15.789 22.651l-20.973 1.3a13.227 13.227 0 0 0 -6.665 2.292zm10.766 22.905-10.266.281-.238-11.01 10.373 1.573zm32.369 102.357v37h-65a6 6 0 0 0 0 12h65v249.354a14.832 14.832 0 0 1 -14.857 14.646h-87.706a14.474 14.474 0 0 1 -14.437-14.646v-70.336a38.9 38.9 0 0 0 10.422 1.356 40.62 40.62 0 0 0 40.578-40.547v-93.775a6.3 6.3 0 0 0 -6.288-6.052h-44.712v-40h12a6 6 0 0 0 0-12h-12v-37zm-91.359-61.03.116-8.121 10.365-1.571-.216 9.972zm10.744-21.87-15.212 2.305a13.179 13.179 0 0 0 -7.788-3.155l-20.974-1.3a17.624 17.624 0 0 1 -15.787-22.653c.093-.313.195-.62.3-.923a16.591 16.591 0 0 1 10.864-10.263 17.686 17.686 0 0 1 15.719 2.581l26.572 19.248a15.345 15.345 0 0 1 6.336 12.76z"/><path d="m287 338.23a6 6 0 0 0 -6 6v74.993a6 6 0 0 0 12 0v-74.993a6 6 0 0 0 -6-6z"/><path d="m286 328.108a6 6 0 0 0 6-6v-33.614a6 6 0 0 0 -12 0v33.614a6 6 0 0 0 6 6z"/><path d="m286 272.108a6 6 0 0 0 6-6v-4.808a6 6 0 1 0 -12 0v4.807a6 6 0 0 0 6 6.001z"/></svg>