<svg id="Layer_1" height="512" viewBox="0 0 512 512" width="512" xmlns="http://www.w3.org/2000/svg" data-name="Layer 1"><path d="m216.925 384.58-13.425 13.429a6 6 0 0 0 8.485 8.486l13.43-13.43a6 6 0 0 0 -8.486-8.485z"/><path d="m289.85 310.8-57.71 57.71a6 6 0 0 0 8.485 8.485l57.71-57.709a6 6 0 0 0 -8.485-8.486z"/><path d="m343.59 257.058-19.276 19.276a6 6 0 1 0 8.485 8.485l19.276-19.276a6 6 0 0 0 -8.485-8.485z"/><path d="m309.078 291.57-3.4 3.4a6 6 0 0 0 8.486 8.485l3.4-3.4a6 6 0 0 0 -8.485-8.485z"/><path d="m441.952 78.4-43.516 43.517a6 6 0 0 0 0 8.486 6 6 0 0 0 8.485 0l16.732-16.733 14.315 14.314-90.51 90.51-14.314-14.314 45.492-45.493a6 6 0 0 0 -8.485-8.485l-49.735 49.735a6 6 0 0 0 0 8.485l.018.018-148.164 149.426-1.911-1.91a6 6 0 0 0 -8.54.056l-19.339 19.853a6.032 6.032 0 0 1 -8.405.376l-26.335-23.252a45.5 45.5 0 0 0 -70.163 12.527c-.395.734-.773 1.482-1.122 2.222a43.625 43.625 0 0 0 1.037 39.3 46.055 46.055 0 0 0 33.279 23.873l54.165 8.65a41.669 41.669 0 0 0 36.67-12.327l35.106-36.616a6 6 0 0 0 -.088-8.395l-1.554-1.554 148.165-149.432a6 6 0 0 0 8.466-.016l121.152-121.152c8.47-8.471 9.121-22.268.977-31.053a22.147 22.147 0 0 0 -31.878-.616zm-289.01 340.53a29.678 29.678 0 0 1 -26.114 8.779l-54.165-8.65a33.547 33.547 0 0 1 -24.563-17.63 31.72 31.72 0 0 1 -.792-28.576q.39-.829.831-1.646a33.495 33.495 0 0 1 51.661-9.222l26.336 23.252a17.98 17.98 0 0 0 22.393 1.211l18.15 18.152zm22.044-22.992-17.886-17.885 9.072-9.313 17.811 17.811zm11.6-23.757-5.829-5.829 148.162-149.427 5.829 5.828zm278.166-270.981-18.3 18.3-14.314-14.314 18.3-18.3a10.132 10.132 0 0 1 14.313 0 10.134 10.134 0 0 1 .001 14.314z"/></svg>