<svg id="Layer_1" height="512" viewBox="0 0 512 512" width="512" xmlns="http://www.w3.org/2000/svg" data-name="Layer 1"><path d="m300.8 295.2-19.513 19.513a6 6 0 0 0 8.485 8.486l19.513-19.513a6 6 0 0 0 -8.485-8.486z"/><path d="m386.406 208.734-63.3 63.3a6 6 0 1 0 8.485 8.485l63.305-63.3a6 6 0 1 0 -8.486-8.485z"/><path d="m414.345 180.8-4.938 4.938a6 6 0 0 0 8.485 8.486l4.939-4.939a6 6 0 1 0 -8.486-8.485z"/><path d="m470.6 41.344-96.914 93.82a6 6 0 0 0 8.347 8.622l14.284-13.828 13.43 13.43-168.416 173.972-18.982-18.982 130.945-126.766a6 6 0 0 0 .069-8.554 6 6 0 0 0 -8.416-.068l-131.407 127.21a6 6 0 0 0 -6.569 1.282l-123.735 123.739a9.867 9.867 0 0 1 -14.28-.365 10.209 10.209 0 0 1 .672-13.894l11.315-11.315a29.169 29.169 0 0 0 -.76-41.985c-11.35-10.571-29.691-10.062-40.883 1.127l-11.249 11.248a67.843 67.843 0 0 0 47.879 116.063 69.622 69.622 0 0 0 49.3-20.368l123-123a6 6 0 0 0 1.282-6.569l248.853-257.058a19.633 19.633 0 0 0 -27.765-27.761zm-353.86 405.906c-21.9 21.9-57.534 22.576-79.427 1.5a56.258 56.258 0 0 1 -.776-80.228l11.248-11.248a18 18 0 0 1 12.723-5.262 16.783 16.783 0 0 1 11.492 4.431 17.17 17.17 0 0 1 .454 24.719l-11.311 11.315a22.071 22.071 0 0 0 -1.081 30.436 21.669 21.669 0 0 0 15.665 7.18 21.929 21.929 0 0 0 15.995-6.386l79.828-79.829 24.281 24.281zm87.576-87.576-24.281-24.281 31.179-31.179 24.286 24.286zm285.427-298.915-71.643 74.006-13.156-13.155 74.006-71.645a7.633 7.633 0 0 1 10.793 10.794z"/></svg>