<?xml version="1.0" encoding="UTF-8"?>
<svg xmlns="http://www.w3.org/2000/svg" id="Layer_1" data-name="Layer 1" viewBox="0 0 512 512" width="512" height="512"><path d="M61.76,402H449.775A6.243,6.243,0,0,0,456,395.775V144.729A5.729,5.729,0,0,0,450.271,139H128a6,6,0,0,0,0,12h39V390H68V348h2.721c42.627,0,77.306-34.873,77.306-77.5S113.348,193,70.721,193H68V151H88a6,6,0,0,0,0-12H61.729A5.729,5.729,0,0,0,56,144.729V396.24A5.777,5.777,0,0,0,61.76,402ZM250,288.94a19.738,19.738,0,0,1,0-37.468Zm0-49.873a31.757,31.757,0,0,0,0,62.278V311.5a41.758,41.758,0,0,1,0-82.58ZM444,314h-2.721a43.5,43.5,0,0,1,0-87H444Zm0-99h-2.721a55.5,55.5,0,0,0,0,111H444v10h-2.721a65.5,65.5,0,0,1,0-131H444Zm-99-64h99v42h-2.721c-42.627,0-77.306,34.873-77.306,77.5S398.652,348,441.279,348H444v42H345ZM262,251.313a19.753,19.753,0,0,1,0,37.786Zm0,50.115a31.749,31.749,0,0,0,0-62.444V228.857a41.748,41.748,0,0,1,0,82.7Zm0,22.221a53.753,53.753,0,0,0,0-106.886V151h71V390H262ZM179,151h71v65.822a53.745,53.745,0,0,0,0,106.768V390H179ZM68,227h2.721a43.5,43.5,0,0,1,0,87H68Zm0,99h2.721a55.5,55.5,0,0,0,0-111H68V205h2.721a65.5,65.5,0,0,1,0,131H68Z"/><path d="M500.617,219H480V121a6,6,0,0,0-6-6H39a6,6,0,0,0-6,6v97H11.383A6.531,6.531,0,0,0,5,224.223v91.966C5,319.5,8.069,322,11.383,322H33v96a6,6,0,0,0,6,6H474a6,6,0,0,0,6-6V322h20.617A6.7,6.7,0,0,0,507,315.594V224.818C507,221.505,503.931,219,500.617,219ZM33,310H17V230H33ZM467,413H45V127H467Zm28-103H480V231h15Z"/><path d="M138.969,87a6,6,0,0,0,0,12h98.992a6,6,0,0,0,0-12Z"/><path d="M75.232,88a6,6,0,0,0,0,12h41.614a6,6,0,0,0,0-12Z"/><path d="M48.039,100h4.807a6,6,0,1,0,0-12H48.039a6,6,0,1,0,0,12Z"/></svg>
