<svg id="Layer_1" height="512" viewBox="0 0 512 512" width="512" xmlns="http://www.w3.org/2000/svg" data-name="Layer 1"><path d="m397 151.145a6 6 0 0 0 -4.137-7.409l-5.069-1.436c.113-2.194.176-4.384.176-6.549 0-33.88-13.544-62.73-39.166-83.434-23.794-19.224-56.752-29.811-92.804-29.811s-69.01 10.587-92.8 29.811c-25.622 20.7-39.166 49.554-39.166 83.434 0 2.165.063 4.355.176 6.549l-5.069 1.436a6 6 0 0 0 -4.141 7.409l11.844 41.79a175.8 175.8 0 0 0 -47.3 120.1c0 97.3 79.16 176.46 176.46 176.46s176.46-79.16 176.46-176.46a175.8 175.8 0 0 0 -47.305-120.1zm-56.532-9.785 43.351 12.286-8.391 29.607a177.3 177.3 0 0 0 -39.093-27.309zm-7.062-12.648a6 6 0 0 0 -2.847 3.6l-5.231 18.458a176.347 176.347 0 0 0 -138.655 0l-5.23-18.458a6 6 0 0 0 -7.408-4.136l-.313.088a54.457 54.457 0 0 1 23.1-39.592c14.532-10.487 35.551-16.326 59.178-16.326s44.646 5.87 59.184 16.36c13.54 9.77 21.28 23.135 23.095 39.561l-.313-.088a6.01 6.01 0 0 0 -4.561.533zm-162.667-67.061c21.661-17.505 51.945-27.145 85.261-27.145s63.6 9.64 85.261 27.145c22.706 18.347 34.708 43.97 34.708 74.1 0 1.055-.02 2.118-.05 3.184l-25.319-7.177c-2.226-43.558-38.857-71.225-94.6-71.225s-92.374 27.667-94.6 71.225l-25.322 7.177c-.03-1.066-.05-2.129-.05-3.184.003-30.13 12.005-55.751 34.711-74.1zm.794 79.709 4.133 14.584a177.3 177.3 0 0 0 -39.093 27.309l-8.391-29.607zm248.927 171.674c0 90.684-73.776 164.46-164.46 164.46s-164.46-73.776-164.46-164.46 73.776-164.46 164.46-164.46 164.46 73.777 164.46 164.46z"/><path d="m261.589 177.332a137.255 137.255 0 0 1 16.217 1.627 6 6 0 1 0 1.911-11.846 149 149 0 0 0 -17.642-1.771 6 6 0 0 0 -.486 11.99z"/><path d="m313.177 176.686c-2.875-1.207-5.823-2.335-8.762-3.354a6 6 0 1 0 -3.929 11.339c2.7.935 5.407 1.971 8.046 3.079a135.575 135.575 0 0 1 83.283 125.284 6 6 0 0 0 12 0 147.548 147.548 0 0 0 -90.638-136.348z"/><path d="m260.33 204.555a108.009 108.009 0 0 0 -63.246 17.329 5.984 5.984 0 0 0 -.926 9.241l.007.006a6.026 6.026 0 0 0 7.551.757 95.979 95.979 0 0 1 52.284-15.417c53.284 0 96.823 43.759 96.563 97.042a96.668 96.668 0 0 1 -101.158 95.977c-50.084-2.334-90.363-43.283-91.921-93.4a96.058 96.058 0 0 1 17.081-57.9 6 6 0 1 0 -9.794-6.929 107.98 107.98 0 0 0 -19.3 64.484c1.406 57.242 47.713 103.934 104.942 105.789a108.677 108.677 0 0 0 112.087-112.108c-1.84-56.605-47.578-102.658-104.17-104.871z"/></svg>