<svg id="Layer_1" height="512" viewBox="0 0 512 512" width="512" xmlns="http://www.w3.org/2000/svg" data-name="Layer 1"><path d="m177.608 86.427a5.967 5.967 0 0 0 2.121-.39l11.195-4.237a6 6 0 1 0 -4.245-11.223l-11.195 4.233a6 6 0 0 0 2.124 11.614z"/><path d="m187.055 122.369a5.993 5.993 0 0 0 7.734 3.489l11.194-4.234a6 6 0 1 0 -4.245-11.224l-11.194 4.234a6 6 0 0 0 -3.489 7.735z"/><path d="m202.114 162.189a6 6 0 0 0 7.735 3.49l11.194-4.234a6 6 0 0 0 -4.245-11.224l-11.198 4.234a6 6 0 0 0 -3.486 7.734z"/><path d="m217.174 202.01a6 6 0 0 0 7.734 3.49l11.2-4.234a6 6 0 1 0 -4.246-11.224l-11.194 4.234a6 6 0 0 0 -3.494 7.734z"/><path d="m232.233 241.831a6 6 0 0 0 7.735 3.49l11.194-4.234a6 6 0 1 0 -4.245-11.224l-11.194 4.237a6 6 0 0 0 -3.49 7.731z"/><path d="m396.365 45.711-96.657-36.555a6 6 0 0 0 -7.737 3.495l-35.915 95.262-36.029-95.267a6 6 0 0 0 -7.735-3.49l-96.657 36.554a6 6 0 0 0 -3.489 7.735l79.254 209.569c-3.18.148-5.4 3.093-5.4 6.322v47.351c-22 19.649-35.032 47.848-35.032 79.13a107.461 107.461 0 0 0 107.326 107.415c59.229 0 107.489-48.186 107.489-107.415 0-31.283-13.783-59.481-34.783-79.13v-47.351a6.5 6.5 0 0 0 -6.236-6.336h-4.164l79.25-209.555a6 6 0 0 0 -3.485-7.734zm-29.835 1.546-66.707 176.387-7.136-18.872a5.991 5.991 0 0 0 -1.35-10.5l-3.057-1.156-14.447-38.2 47.219-124.86zm-65.449-24.752 8.747 3.308-42.411 112.142-4.939-13.06zm-90.156 0 90.952 240.495h-10l-89.7-237.187zm108.075 252.495v32.149a107 107 0 0 0 -121 0v-32.149zm-193.508-220.188 8.754-3.31 14.259 37.7a6 6 0 1 0 11.224-4.245l-14.259-37.7 45.478-17.2 88.095 232.943h-51.982l-53.181-140.619a6 6 0 0 0 -11.224 4.244l51.574 136.375h-10zm228.13 341.005a95.415 95.415 0 1 1 -95.415-95.417 95.523 95.523 0 0 1 95.415 95.417zm-42.381-141.983-5-13.228 71.513-189.106 8.754 3.31z"/><path d="m321.076 81.8 11.195 4.234a6 6 0 0 0 4.245-11.224l-11.195-4.23a6 6 0 0 0 -4.245 11.22z"/><path d="m306.017 121.624 11.194 4.234a6 6 0 0 0 4.245-11.224l-11.194-4.234a6 6 0 1 0 -4.245 11.224z"/><path d="m290.957 161.445 11.194 4.234a6 6 0 1 0 4.245-11.224l-11.196-4.234a6 6 0 0 0 -4.245 11.224z"/><path d="m242.468 324.019a36.755 36.755 0 0 1 -6.518 3.3 38.887 38.887 0 0 1 -7.567 1.261c-5.1.533-10.878 1.138-15.675 4.629-4.837 3.521-7.2 8.85-9.276 13.553a38.164 38.164 0 0 1 -3.485 6.73 37.566 37.566 0 0 1 -5.255 5.3c-3.86 3.443-8.236 7.346-10.109 13.113-1.8 5.553-.6 11.189.456 16.162a26.58 26.58 0 0 1 0 15.52c-1.059 4.972-2.259 10.608-.456 16.16 1.873 5.767 6.248 9.67 10.109 13.114a37.568 37.568 0 0 1 5.255 5.3 38.1 38.1 0 0 1 3.484 6.73c2.081 4.7 4.44 10.032 9.277 13.553 4.8 3.491 10.576 4.1 15.675 4.629a38.863 38.863 0 0 1 7.566 1.261 36.67 36.67 0 0 1 6.519 3.3c4.489 2.622 9.577 5.595 15.739 5.595s11.251-2.973 15.739-5.6a36.761 36.761 0 0 1 6.519-3.295 38.861 38.861 0 0 1 7.567-1.261c5.1-.533 10.877-1.138 15.674-4.628 4.837-3.521 7.2-8.851 9.277-13.554a38.1 38.1 0 0 1 3.484-6.73 37.564 37.564 0 0 1 5.255-5.3c3.861-3.444 8.237-7.347 10.11-13.115 1.8-5.552.6-11.188-.457-16.16a26.58 26.58 0 0 1 0-15.52c1.059-4.973 2.259-10.609.457-16.161-1.873-5.767-6.249-9.67-10.109-13.114a37.46 37.46 0 0 1 -5.255-5.3 38.129 38.129 0 0 1 -3.485-6.73c-2.08-4.7-4.439-10.032-9.276-13.553-4.8-3.491-10.577-4.1-15.675-4.629a38.887 38.887 0 0 1 -7.567-1.261 36.755 36.755 0 0 1 -6.518-3.3c-4.489-2.623-9.577-5.6-15.74-5.6s-11.25 2.982-15.739 5.601zm34.291 14.709a48.156 48.156 0 0 0 10.025 1.782c3.945.413 7.671.8 9.861 2.4 2.23 1.624 3.753 5.064 5.365 8.707a47.244 47.244 0 0 0 4.755 8.935 46.756 46.756 0 0 0 6.97 7.191c2.99 2.666 5.813 5.185 6.683 7.864.81 2.493.038 6.118-.779 9.955a37.721 37.721 0 0 0 0 20.519c.817 3.838 1.589 7.463.779 9.955-.87 2.68-3.694 5.2-6.684 7.865a46.742 46.742 0 0 0 -6.969 7.19 47.368 47.368 0 0 0 -4.756 8.935c-1.612 3.644-3.134 7.084-5.364 8.707-2.19 1.594-5.916 1.983-9.861 2.4a48.158 48.158 0 0 0 -10.025 1.783 45.755 45.755 0 0 0 -8.866 4.347c-3.483 2.035-6.772 3.957-9.686 3.957s-6.2-1.922-9.685-3.957a45.791 45.791 0 0 0 -8.867-4.347 48.149 48.149 0 0 0 -10.024-1.783c-3.945-.413-7.672-.8-9.861-2.4-2.231-1.624-3.753-5.064-5.365-8.707a47.337 47.337 0 0 0 -4.756-8.935 46.7 46.7 0 0 0 -6.969-7.191c-2.99-2.666-5.814-5.185-6.684-7.864-.809-2.492-.037-6.117.78-9.955a37.747 37.747 0 0 0 0-20.519c-.817-3.837-1.589-7.462-.78-9.955.87-2.68 3.694-5.2 6.684-7.865a46.742 46.742 0 0 0 6.969-7.19 47.253 47.253 0 0 0 4.756-8.935c1.612-3.643 3.135-7.084 5.365-8.707 2.19-1.594 5.916-1.983 9.861-2.4a48.156 48.156 0 0 0 10.025-1.782 45.844 45.844 0 0 0 8.866-4.348c3.482-2.035 6.771-3.957 9.685-3.957s6.2 1.922 9.686 3.957a45.844 45.844 0 0 0 8.866 4.348z"/><path d="m252.827 359.158-9.653 19.558-21.584 3.137a6 6 0 0 0 -3.325 10.233l15.618 15.225-3.687 21.5a6 6 0 0 0 8.706 6.325l19.305-10.149 19.306 10.149a6 6 0 0 0 8.705-6.325l-3.687-21.5 15.619-15.225a6 6 0 0 0 -3.325-10.233l-21.585-3.137-9.653-19.558a6 6 0 0 0 -10.76 0zm11.048 27.7a6 6 0 0 0 4.518 3.283l12.675 1.841-9.168 8.938a6 6 0 0 0 -1.725 5.31l2.165 12.624-11.34-5.96a6 6 0 0 0 -5.584 0l-11.336 5.959 2.165-12.624a6 6 0 0 0 -1.726-5.31l-9.171-8.941 12.674-1.841a6 6 0 0 0 4.518-3.283l5.668-11.484z"/></svg>