<svg id="Layer_1" height="512" viewBox="0 0 512 512" width="512" xmlns="http://www.w3.org/2000/svg" data-name="Layer 1"><path d="m322.737 39.271a41.033 41.033 0 1 0 58.03 0 41.08 41.08 0 0 0 -58.03 0zm8.486 8.485a28.94 28.94 0 0 1 20.529-8.489 29.268 29.268 0 0 1 5.417.508 80.58 80.58 0 0 0 -19.352 14.575 80.564 80.564 0 0 0 -14.576 19.35 29.027 29.027 0 0 1 7.982-25.944zm.019 41.04c-.911-2.24 2.21-13.11 15.06-25.961s23.719-15.969 25.96-15.06c.911 2.241-2.21 13.111-15.06 25.961s-23.718 15.971-25.96 15.064zm41.039.019a29.023 29.023 0 0 1 -25.947 7.985 80.594 80.594 0 0 0 19.354-14.576 80.58 80.58 0 0 0 14.575-19.352 29.025 29.025 0 0 1 -7.982 25.943z"/><path d="m481 448.262v-337.412a17.5 17.5 0 1 0 -35 0v13.113a1000.855 1000.855 0 0 1 -189.976 18.258 1000.707 1000.707 0 0 1 -190.024-18.27v-13.1a17.524 17.524 0 0 0 -17.171-17.52c-9.805-.181-17.829 8.154-17.829 17.96v54.709a6 6 0 0 0 12 0v-54.934a5.661 5.661 0 0 1 4.98-5.714 5.509 5.509 0 0 1 6.02 5.5v11.777a5.827 5.827 0 0 0 -1.608.914 6.194 6.194 0 0 0 -2.392 4.64v140.3a6.729 6.729 0 0 0 4 6.06v173.457h-11v-242a6 6 0 0 0 -12 0v242.265a25.621 25.621 0 0 0 -24 25.62v4.862a6.142 6.142 0 0 0 5.906 6.253h71.318a6.035 6.035 0 0 0 5.776-6.253v-4.862c0-13.641-10-24.826-24-25.623v-171.153a1013.222 1013.222 0 0 0 190.007 17.891h.49a1014 1014 0 0 0 189.503-17.735v171c-14 .8-24 11.982-24 25.623v4.862a6.035 6.035 0 0 0 5.776 6.25h71.318a6.142 6.142 0 0 0 5.906-6.253v-4.862a25.913 25.913 0 0 0 -24-25.623zm-402.823 24.738h-59.224c.579-7 6.469-13 13.626-13h31.972c7.157 0 13.049 6 13.626 13zm11.823-203.579c-9.232-1.56-18-3.234-28-5.053v-18.684c10 1.771 18.767 3.422 28 4.94zm0-30.965c-9.233-1.537-18-3.2-28-4.995v-25.777c10 1.771 18.767 3.422 28 4.94zm0-38c-9.233-1.537-18-3.2-28-4.995v-25.777c10 1.771 18.767 3.422 28 4.94zm0-38c-9.233-1.537-18-3.2-28-4.995v-21.967c10 1.791 18.768 3.44 28 4.976zm40 112.894q-14.031-1.791-28-3.976v-18.85q13.97 2.127 28 3.883zm0-31.044q-14.031-1.764-28-3.926v-25.856q13.97 2.127 28 3.883zm0-38q-14.031-1.764-28-3.926v-25.856q13.97 2.127 28 3.883zm0-38q-14.031-1.764-28-3.926v-21.987q13.968 2.153 28 3.913zm40 111.348q-14.019-1.221-28-2.846v-18.986q13.98 1.569 28 2.748zm0-31.122q-14.019-1.2-28-2.792v-25.918q13.98 1.569 28 2.748zm0-38q-14.019-1.2-28-2.792v-25.918q13.98 1.569 28 2.748zm0-38q-14.019-1.2-28-2.792v-22q13.98 1.587 28 2.8zm40 109.79q-14.007-.656-28-1.7v-19.105q13.99 1.017 28 1.643zm0-31.173q-14.007-.642-28-1.66v-25.972q13.99 1.017 28 1.643zm0-38q-14.007-.642-28-1.66v-25.972q13.99 1.017 28 1.643zm0-38q-14.007-.642-28-1.66v-22q13.99 1.029 28 1.663zm40 108.235q-14-.092-28-.572v-19.178q14 .468 28 .55zm0-31.2q-14-.085-28-.556v-25.994q14 .468 28 .55zm0-38q-14-.085-28-.556v-25.994q14 .468 28 .55zm0-38q-14-.085-28-.556v-21.995q14 .474 28 .552zm208 98.789a5.964 5.964 0 0 0 4-5.487v-141.3a6.194 6.194 0 0 0 -2.389-4.642 5.916 5.916 0 0 0 -1.611-.927v-11.767a5.5 5.5 0 1 1 11 0v337.15h-11zm-36-134.5c9.232-1.537 18-3.186 28-4.977v21.993c-10 1.791-18.767 3.455-28 4.991zm0 34.175c9.233-1.517 18-3.167 28-4.937v25.778c-10 1.791-18.767 3.455-28 4.991zm0 38c9.233-1.517 18-3.167 28-4.937v25.778c-10 1.791-18.767 3.455-28 4.991zm-132 70.2q-14 .472-28 .545v-19.209q14-.081 28-.546zm0-31.213q-14 .474-28 .552v-26q14-.081 28-.546zm0-38q-14 .474-28 .552v-26q14-.081 28-.546zm0-38q-14 .474-28 .552v-22q14-.084 28-.551zm40 105.065q-13.99 1.035-28 1.666v-19.2q14.007-.632 28-1.639zm0-31.2q-13.99 1.029-28 1.656v-25.991q14.007-.631 28-1.639zm0-38q-13.99 1.029-28 1.656v-25.991q14.007-.631 28-1.639zm0-38q-13.99 1.029-28 1.656v-22q14.007-.641 28-1.663zm40 103.425q-13.98 1.6-28 2.819v-19.163q14.018-1.184 28-2.743zm0-31.168q-13.98 1.586-28 2.787v-25.963q14.018-1.183 28-2.743zm0-38q-13.98 1.586-28 2.787v-25.963q14.018-1.183 28-2.743zm0-38q-13.98 1.586-28 2.787v-22q14.019-1.2 28-2.8zm40 101.776q-13.968 2.171-28 3.946v-19.055q14.031-1.74 28-3.88zm0-31.131q-13.968 2.153-28 3.923v-25.9q14.031-1.74 28-3.88zm0-38q-13.968 2.153-28 3.923v-25.9q14.031-1.74 28-3.88zm0-38q-13.968 2.153-28 3.923v-22.019q14.029-1.761 28-3.912zm12 105.19v-18.946c9.233-1.517 18-3.167 28-4.937v18.857c-10 1.809-18.768 3.474-28 5.024zm11.823 203.408c.579-7 6.469-13 13.626-13h31.972c7.157 0 13.047 6 13.626 13z"/><path d="m86 406.41a6 6 0 0 0 -6 6v18.99a6 6 0 1 0 12 0v-18.99a6 6 0 0 0 -6-6z"/><path d="m86 332.673a6 6 0 0 0 -6 6v51.614a6 6 0 0 0 12 0v-51.614a6 6 0 0 0 -6-6z"/><path d="m86 305.48a6 6 0 0 0 -6 6v4.807a6 6 0 0 0 12 0v-4.807a6 6 0 0 0 -6-6z"/></svg>