<?xml version="1.0" encoding="UTF-8"?>
<svg xmlns="http://www.w3.org/2000/svg" id="Layer_1" data-name="Layer 1" viewBox="0 0 512 512" width="512" height="512"><path d="M75,421.25a6,6,0,0,0,6-6V367.636a6,6,0,0,0-12,0V415.25A6,6,0,0,0,75,421.25Z"/><path d="M75,355.25a6,6,0,0,0,6-6v-5.808a6,6,0,0,0-12,0v5.808A6,6,0,0,0,75,355.25Z"/><path d="M457.14,291H452V270.965c0-3.313-3.111-5.965-6.425-5.965H430V249h2.92A16.96,16.96,0,0,0,450,232.01V195.5c0-9.467-7.613-17.5-17.08-17.5h-7.48a178.669,178.669,0,0,0-5.245-17.882l4.134-2.373a17.14,17.14,0,0,0,6-23.486l-18.639-31.378A17.171,17.171,0,0,0,388.161,96.9l-4.473,2.658a175.706,175.706,0,0,0-12.957-12.7l1.741-2.935a17.167,17.167,0,0,0-6.009-23.524L335.058,41.766a17.168,17.168,0,0,0-23.525,6.009l-2.312,3.851A184.815,184.815,0,0,0,291,46.765V42.188A17.157,17.157,0,0,0,273.887,25H237.373A17.38,17.38,0,0,0,220,42.188v4.489c-6,1.308-12.408,2.955-18.514,4.949l-2.233-3.851a17.117,17.117,0,0,0-23.485-6.009l-31.4,18.626a17.187,17.187,0,0,0-6.006,23.525l1.743,2.935a175.72,175.72,0,0,0-12.957,12.706L122.676,96.9a17.191,17.191,0,0,0-23.527,6l-18.64,31.4a17.19,17.19,0,0,0,6,23.527l4.134,2.29A179.036,179.036,0,0,0,85.4,178h-7.48C68.451,178,61,186.029,61,195.5V232.01A16.823,16.823,0,0,0,77.917,249H81v16H66.425C63.111,265,60,267.652,60,270.965V291H54.861A5.639,5.639,0,0,0,49,296.707V448.039a39,39,0,0,0,78,0V296.707c0-3.314-2.941-5.707-6.255-5.707H115V270.965A5.819,5.819,0,0,0,109.18,265H93V249h2.926A16.955,16.955,0,0,0,113,232.01V195.5a17.151,17.151,0,0,0-15.331-17.074c1-4,2.185-7.968,3.49-11.884l.823.482a17.083,17.083,0,0,0,8.741,2.413,17.345,17.345,0,0,0,4.275-.539,17.059,17.059,0,0,0,10.522-7.873l18.64-31.4a17.189,17.189,0,0,0-6-23.528l-.469-.278q4.165-4.388,8.65-8.45l1.209,2.038a17.178,17.178,0,0,0,23.524,6.009l31.406-18.626a17.168,17.168,0,0,0,6.009-23.525l-.72-1.043C211.834,60.968,216,59.88,220,58.951V60.2c0,9.467,7.906,16.8,17.373,16.8h36.514A16.831,16.831,0,0,0,291,60.2v-1.15c4,.909,8.011,1.964,11.937,3.175l-.6,1.042a17.176,17.176,0,0,0,6.019,23.525l31.407,18.626a17.181,17.181,0,0,0,23.527-6.009l1.208-2.038q4.477,4.066,8.65,8.45l-.469.278a17.188,17.188,0,0,0-6,23.527h0l18.639,31.4a17.057,17.057,0,0,0,10.521,7.873,17.325,17.325,0,0,0,4.271.539,17.059,17.059,0,0,0,8.735-2.413l.812-.482c1.305,3.916,2.592,7.878,3.6,11.884A17.08,17.08,0,0,0,398,195.5V232.01A16.817,16.817,0,0,0,414.911,249H418v16H402.82a5.82,5.82,0,0,0-5.82,5.965V291h-5.744c-3.314,0-6.256,2.393-6.256,5.707V448.039a39,39,0,0,0,78,0V296.707A5.638,5.638,0,0,0,457.14,291ZM115,448.039a27,27,0,0,1-54,0V443h54ZM115,303v15H97a6,6,0,0,0,0,12h18V431H61V330a6,6,0,0,0,0-12V303Zm-12-26v14H72V277Zm-2-81.5V232.01A4.944,4.944,0,0,1,95.926,237H93V218.164a6,6,0,0,0-12,0V237H77.917A4.815,4.815,0,0,1,73,232.01V195.5c0-2.85,2.067-5.5,4.917-5.5h5.135c-.3,2-.573,3.9-.811,5.777a6.079,6.079,0,0,0,5.2,6.788,6.27,6.27,0,0,0,.762.089,6.13,6.13,0,0,0,5.945-5.39c.3-2.385.662-4.264,1.067-7.264h.713A5.385,5.385,0,0,1,101,195.5Zm32.842-72L115.2,154.9a5.167,5.167,0,0,1-7.082,1.806l-2.647-1.572q1.547-3.69,3.272-7.314a6,6,0,1,0-10.824-5.181q-1.5,3.131-2.867,6.31l-2.419-1.436a5.176,5.176,0,0,1-1.807-7.083l18.64-31.4a5.172,5.172,0,0,1,7.083-1.806l2.657,1.577c-1,1.245-2,2.486-2.959,3.76a6,6,0,1,0,9.568,7.241q1.854-2.451,3.8-4.823l2.422,1.438A5.174,5.174,0,0,1,133.842,123.5Zm64.89-50.2a5.131,5.131,0,0,1-2.371,3.166L164.955,95.094a5.176,5.176,0,0,1-7.082-1.809l-2.225-3.751c2.014-1.572,4.053-3.115,6.142-4.6a6,6,0,0,0-6.937-9.792q-2.733,1.935-5.383,3.97l-.783-1.322a5.174,5.174,0,0,1,1.808-7.082L181.9,52.087a5.136,5.136,0,0,1,2.628-.725,5.25,5.25,0,0,1,1.288.162,5.133,5.133,0,0,1,3.166,2.372l1.145,1.929q-4.485,1.822-8.879,3.89a6,6,0,1,0,5.126,10.85q4.909-2.32,9.947-4.3l1.848,3.115A5.135,5.135,0,0,1,198.732,73.3ZM279,44.676c-1-.21-3.011-.407-4.538-.578a6,6,0,0,0-1.338,11.926c1.973.22,3.876.482,5.876.774v3.4a4.827,4.827,0,0,1-5.113,4.8H237.373c-2.85,0-5.373-1.953-5.373-4.8v-3.46c2-.266,3.745-.508,5.577-.713A6,6,0,1,0,236.219,44.1c-1.384.155-2.219.331-4.219.518V42.188A5.37,5.37,0,0,1,237.373,37h36.514A5.144,5.144,0,0,1,279,42.188ZM362.15,77.8l-.783,1.322q-2.651-2.034-5.382-3.97a6,6,0,0,0-6.937,9.792c2.089,1.48,4.128,3.023,6.141,4.6l-2.224,3.751a5.175,5.175,0,0,1-7.083,1.809L314.477,76.467a5.168,5.168,0,0,1-1.81-7.082l1.848-3.115q5.034,1.98,9.947,4.3a6,6,0,0,0,5.127-10.85q-4.391-2.075-8.879-3.889l1.144-1.93a5.137,5.137,0,0,1,3.167-2.372,5.238,5.238,0,0,1,1.288-.162,5.136,5.136,0,0,1,2.628.725l31.4,18.626A5.168,5.168,0,0,1,362.15,77.8Zm50.766,64.84a6,6,0,1,0-10.824,5.181q1.733,3.62,3.273,7.314l-2.648,1.572a5.167,5.167,0,0,1-7.082-1.806L377,123.5a5.176,5.176,0,0,1,1.806-7.083l2.422-1.438q1.941,2.374,3.8,4.823a6,6,0,0,0,9.568-7.241c-.964-1.274-1.964-2.515-2.96-3.76l2.657-1.577a5.168,5.168,0,0,1,7.083,1.806l18.64,31.4a5.177,5.177,0,0,1-1.806,7.084l-2.42,1.436Q414.414,145.767,412.916,142.635Zm2,94.365A4.81,4.81,0,0,1,410,232.01V195.5c0-2.85,2.062-5.5,4.911-5.5h.714c.406,3,.765,4.9,1.067,7.284a6.348,6.348,0,0,0,6.706,5.322,6.138,6.138,0,0,0,5.2-6.85c-.238-1.878-.514-3.756-.812-5.756h5.135a5.39,5.39,0,0,1,5.08,5.5V232.01a4.949,4.949,0,0,1-5.08,4.99H430V218.164a6,6,0,0,0-12,0V237ZM409,277h31v14H409Zm42,171.039a27,27,0,0,1-54,0V443h54ZM451,431H397V330h54Zm0-113H397V303h54Z"/></svg>
