<svg id="Layer_1" height="512" viewBox="0 0 512 512" width="512" xmlns="http://www.w3.org/2000/svg" data-name="Layer 1"><path d="m291.782 86.5a46.255 46.255 0 1 0 65.414 0 46.308 46.308 0 0 0 -65.414 0zm56.93 56.93a34.24 34.24 0 1 1 0-48.445 34.3 34.3 0 0 1 0 48.44z"/><path d="m300.7 26.862c-52.457 3.538-103.113 27.263-142.64 66.79-34.132 34.132-57.046 77.863-64.524 123.137-7.116 43.1-.057 85.758 19.867 120.753l-74.348 74.348a43.172 43.172 0 1 0 61.054 61.055l74.356-74.356c26.1 14.862 56.466 22.576 88.1 22.576a200.562 200.562 0 0 0 32.862-2.738c45.194-7.512 88.847-30.413 122.919-64.486 39.528-39.528 63.249-90.184 66.792-142.637 3.563-52.758-13.68-101.018-48.553-135.891s-83.144-52.113-135.885-48.551zm-209.076 437.597a31.172 31.172 0 1 1 -44.084-44.084l9.65-9.65 44.085 44.084zm18.136-18.135-44.085-44.084 81.788-81.787a16.623 16.623 0 0 1 9.266-4.7l46.771-7.253-7.249 46.77a16.628 16.628 0 0 1 -4.7 9.266zm363.406-235.824c-3.348 49.555-25.829 97.485-63.3 134.96a224.446 224.446 0 0 1 -59.261 42.54l-146.442-146.447a6 6 0 0 0 -8.485 8.485l143.278 143.278a203.331 203.331 0 0 1 -45.5 13.274c-39.254 6.526-78.068.552-110.182-16.814l16.754-16.754a28.533 28.533 0 0 0 8.075-15.914l8.506-54.873a6 6 0 0 0 -6.847-6.848l-54.874 8.5a28.542 28.542 0 0 0 -15.913 8.075l-16.753 16.752c-17.334-32.058-23.322-70.781-16.85-109.974a203.193 203.193 0 0 1 13.308-45.7l48.72 48.714a6 6 0 1 0 8.484-8.485l-51.884-51.876a224.437 224.437 0 0 1 42.541-59.255c37.476-37.475 85.405-59.956 134.961-63.3 49.248-3.338 94.212 12.674 126.598 45.062s48.392 77.345 45.066 126.6z"/><path d="m263.746 70.426c-3.329.947-6.683 2.01-9.969 3.16a6 6 0 1 0 3.963 11.327c3.064-1.072 6.189-2.063 9.29-2.945a6 6 0 0 0 -3.284-11.542z"/><path d="m227.082 85.438a190.835 190.835 0 0 0 -43.782 32.814 193.306 193.306 0 0 0 -23.713 28.77 6 6 0 1 0 9.959 6.7 181.38 181.38 0 0 1 22.238-26.98 178.907 178.907 0 0 1 41.029-30.756 6 6 0 1 0 -5.73-10.543z"/></svg>