<?xml version="1.0" encoding="UTF-8"?>
<svg xmlns="http://www.w3.org/2000/svg" id="Layer_1" data-name="Layer 1" viewBox="0 0 512 512" width="512" height="512"><path d="M358.128,303.126c-13.139-35.188-28.1-76.893-40.665-119.41-5.624-19.03-20.463-34-37.463-41.155v-9.912a23.92,23.92,0,0,0-19-23.134V78h9.285C280.788,78,289,69.1,289,58.6V52h29a27.764,27.764,0,0,0,28-27.684V14.649A5.711,5.711,0,0,0,340,9H172a5.711,5.711,0,0,0-6,5.649v9.667A27.764,27.764,0,0,0,194,52h29v6.6c0,10.5,8.212,19.4,18.715,19.4H249v32.031a23.878,23.878,0,0,0-17,22.618v9.912c-17,7.158-31.839,22.124-37.463,41.155-12.572,42.531-27.611,84.229-40.748,119.41L141.3,336.682a122.359,122.359,0,0,0-6.8,59.64,125.18,125.18,0,0,0,20.463,53.417c22.578,33.244,58.437,52.776,98.373,53.585.543.011,1.091.012,1.635.017.34.01.681.018,1.023.018.159,0,.317-.009.477-.013.726,0,1.452-.007,2.176-.022,39.937-.809,75.791-20.341,98.369-53.585a125.169,125.169,0,0,0,20.453-53.417,122.358,122.358,0,0,0-6.817-59.64ZM194,40a15.752,15.752,0,0,1-16-15.684V21H334v3.316A15.752,15.752,0,0,1,318,40Zm47.715,26C237.829,66,235,62.487,235,58.6V52h42v6.6c0,3.886-2.829,7.4-6.715,7.4ZM244,132.649a12,12,0,0,1,24,0v6.4a65.828,65.828,0,0,0-24,0Zm12,17.3A52.226,52.226,0,0,1,305.111,185H206.889A52.225,52.225,0,0,1,256,149.947Zm.819,341.379c-.547,0-1.091,0-1.638,0-5.405-.3-10.766-3.653-15.937-9.986-23.113-28.314-29.4-94.256-22.129-141.65l5.15-33.42c1.1-7.193,2.244-14.718,3.4-22.357a6.008,6.008,0,0,0-11.877-1.827c-1.154,7.479-2.289,15.2-3.388,22.363l-5.149,33.489c-8.816,57.443,1.535,121.673,24.075,150.222A108.872,108.872,0,0,1,164.906,443a110.733,110.733,0,0,1-12.321-102.118l12.529-33.556C177.306,274.672,191.2,236.42,203.236,197h22.472c-1.942,15.267-4,30.12-6.078,45.169A6.009,6.009,0,0,0,225.582,249h0a6,6,0,0,0,5.951-5.164c2.146-15.293,4.259-30.966,6.257-46.836h36.426c4.916,39.066,10.577,76.941,15.517,109.135l5.15,33.555c7.273,47.394.984,113.336-22.129,141.65C267.585,487.673,262.224,491.031,256.819,491.326ZM347.094,443a108.866,108.866,0,0,1-64.453,45.17c22.561-28.53,32.924-92.827,24.1-150.3L301.6,304.314c-4.866-31.7-10.43-68.917-15.285-107.314h22.452c12.032,39.409,25.928,77.666,38.122,110.323l12.529,33.556A110.736,110.736,0,0,1,347.094,443Z"/><path d="M180.593,310.314a6,6,0,0,0-7.72,3.523l-8.53,22.845a122.879,122.879,0,0,0-2.958,77.86,6,6,0,0,0,11.519-3.363,110.9,110.9,0,0,1,2.681-70.3l8.53-22.845A6,6,0,0,0,180.593,310.314Z"/><path d="M189.69,285.807a6,6,0,0,0-7.706,3.552q-1.543,4.185-3.1,8.366a6,6,0,1,0,11.246,4.184q1.561-4.2,3.111-8.4A6,6,0,0,0,189.69,285.807Z"/></svg>
