<svg id="Layer_1" height="512" viewBox="0 0 512 512" width="512" xmlns="http://www.w3.org/2000/svg" data-name="Layer 1"><path d="m357.08 257.27-23.6-30.7a5.977 5.977 0 0 0 -4.564-2.321 5.77 5.77 0 0 0 -4.566 2.054l-5.35 6.28v-20.254a6.535 6.535 0 0 0 -6.282-6.329h-8.885l6.117-43.793h.08a6 6 0 0 0 5.442-3.478l13.987-30.2a6.022 6.022 0 0 0 .542-2.112l2.616-38.18a6 6 0 0 0 -8.2-5.989l-19.569 7.762-15.53-11.959a6 6 0 0 0 -9.434 3.122l-10.484 37.083a5.993 5.993 0 0 0 -.113 2.792l6.475 32.835a6 6 0 0 0 4.319 4.623l-6.631 47.494h-10.45v-117.554a6.461 6.461 0 0 0 5.01-4.191l9.69-31.844a6 6 0 0 0 .255-2.166l-2.694-38.175a6 6 0 0 0 -8.947-4.8l-18.314 10.391-17.036-9.7a6 6 0 0 0 -8.912 4.4l-5.248 38.176a6.01 6.01 0 0 0 .274 2.781l10.977 31.623a6.362 6.362 0 0 0 4.945 3.979v117.08h-12.6l-8.5-73.452a5.987 5.987 0 0 0 4.474-4.737l5.949-32.746a5.983 5.983 0 0 0 -.007-2.18l-7.064-37.613a6 6 0 0 0 -9.437-3.736l-17 12.425-18.037-7.671a6 6 0 0 0 -8.347 5.393l-.824 38.526a6.026 6.026 0 0 0 .593 2.731l14.519 30.154a6 6 0 0 0 5.343 3.393l8.048 69.513h-6.424c-3.314 0-5.686 3.015-5.686 6.329v266.516c0 14.7 11.646 27.155 26.349 27.155h87.706c14.7 0 26.945-12.453 26.945-27.155v-6.845l24.084-28.775a68.273 68.273 0 0 0 11.721-37.262c.765-46.755 3.5-143.963 3.529-144.963h-.023a6.44 6.44 0 0 0 -1.231-3.73zm-68.059-164.3 11.207 8.631a6 6 0 0 0 5.871.824l13.9-5.506-1.531 22.354-35.618-4.473zm26.1 37.977-8.7 18.78-19.721-2.427-4.027-20.424zm-17.086 29.838-6.319 45.215h-6.149l6.42-45.961zm-65.3-138 12.3 7a6 6 0 0 0 5.929 0l13-7.375 1.576 22.35-35.889.5zm-1.6 34.459 32.7-.458-6.017 19.8-19.868.326zm19.865 31.456v117.3h-6v-117.2zm-76.761-17.9 13.017 5.537a6 6 0 0 0 5.89-.678l12.065-8.822 4.137 22.022-35.594 4.627zm11.407 53.17-9.031-18.755 32.429-4.215-3.7 20.363zm22.675 82.03h-6.131l-8.223-71.025 6.039-.8zm98.679 40h-61a6 6 0 0 0 0 12h61v220.845c0 8.086-6.86 15.155-14.945 15.155h-87.706c-8.085 0-14.349-7.069-14.349-15.155v-220.845h16a6 6 0 0 0 0-12h-16v-28h117zm12 4.788 9.555-11.061 16.9 21.926-26.455 51.5zm23.771 155.012a55.669 55.669 0 0 1 -9.365 30.3l-14.406 17.12v-113.861l26.748-52.2c-.885 32.394-2.459 87.001-2.977 118.641z"/><path d="m208 327.544v81.774a40.5 40.5 0 1 0 81 0v-81.774c0-3.314-2.938-5.544-6.251-5.544h-69.1a5.339 5.339 0 0 0 -5.649 5.544zm12 6.456h57v24h-57zm0 36h57v39.318a28.5 28.5 0 1 1 -57 0z"/><path d="m160 376.41a6 6 0 0 0 -6 6v68.99a6 6 0 1 0 12 0v-68.99a6 6 0 0 0 -6-6z"/><path d="m160 322.673a6 6 0 0 0 -6 6v31.614a6 6 0 1 0 12 0v-31.614a6 6 0 0 0 -6-6z"/><path d="m160 295.48a6 6 0 0 0 -6 6v4.807a6 6 0 0 0 12 0v-4.807a6 6 0 0 0 -6-6z"/></svg>