<svg id="Layer_1" height="512" viewBox="0 0 512 512" width="512" xmlns="http://www.w3.org/2000/svg" data-name="Layer 1"><path d="m451.829 60.171c-29.418-29.417-77.585-36.15-135.629-18.963-56.778 16.815-116.613 54.641-168.483 106.51s-89.694 111.705-106.509 168.482c-17.188 58.044-10.454 106.211 18.963 135.629 18.751 18.75 45.111 28.283 76.8 28.283 18.027 0 37.783-3.088 58.83-9.32 56.778-16.815 116.613-54.641 168.483-106.51s89.7-111.7 106.51-168.483c17.186-58.043 10.452-106.21-18.965-135.628zm-76.815-16.29c25.873 0 47.585 6.923 63.668 20.529 7.184 13.753-2.825 45.519-27.066 85.575-.635 1.049-1.291 2.109-1.943 3.166a554.318 554.318 0 0 1 -81.458-102.815c16.708-4.31 32.397-6.455 46.799-6.455zm-218.814 112.319c33.481-33.481 70.284-60.915 107.291-80.343a565.322 565.322 0 0 0 33.542 53.157 6.005 6.005 0 0 0 9.141.78 6 6 0 0 0 .629-7.73 553.715 553.715 0 0 1 -32.583-51.605 305.5 305.5 0 0 1 42.019-16.709 566.415 566.415 0 0 0 86.861 109.765c-8.09 12.411-17.239 25.281-27.282 38.416a562.795 562.795 0 0 1 -44.727-48.207 5.986 5.986 0 0 0 -8.843-.4 5.991 5.991 0 0 0 -.4 8.039 575.191 575.191 0 0 0 46.581 50.082q-7.639 9.674-15.863 19.478l-12.183-12.183a6 6 0 0 0 -8.485 8.485l12.86 12.875q-9.39 10.887-19.4 21.817l-11.773-11.773a6 6 0 1 0 -8.485 8.485l12.09 12.09q-9.5 10.115-19.446 20.157l-10.267-10.267a6 6 0 0 0 -8.485 8.485l10.259 10.259q-10.472 10.331-21.04 20.18l-12.011-12.011a6 6 0 0 0 -8.486 8.485l11.661 11.661q-10.519 9.574-21.017 18.585l-14.8-14.8a6 6 0 1 0 -8.485 8.485l14.1 14.1q-8.908 7.437-17.716 14.386a571.915 571.915 0 0 0 -135.595-104.931c19.428-37.006 46.861-73.809 80.338-107.293zm-85.74 118.017a559.87 559.87 0 0 1 131.47 101.605c-13.136 10.043-26 19.191-38.414 27.28a566.368 566.368 0 0 0 -109.766-86.862 305.558 305.558 0 0 1 16.71-42.023zm-6.1 164.437c-21.15-25.036-26.068-63.741-14.024-110.439a554.306 554.306 0 0 1 102.815 81.459c-.971.6-1.944 1.2-2.907 1.786-31.64 19.177-58.15 29.507-74.717 29.506a23.927 23.927 0 0 1 -11.167-2.312zm128.031 20.631c-46.427 13.75-85.586 11.34-112.243-6.527 23.084-1.817 52.6-16.659 76.316-31.036q2.606-1.579 5.246-3.231 18.009 18.957 34.29 39.684c-1.2.376-2.406.754-3.609 1.11zm15.665-5.163q-17.076-22.07-36.069-42.226c12.369-8.139 25.163-17.285 38.2-27.288a554.191 554.191 0 0 1 40.922 50.148 329.466 329.466 0 0 1 -43.053 19.366zm147.744-98.322c-29.508 29.509-61.6 54.316-94.132 73.091a566.045 566.045 0 0 0 -41.986-51.678q8.952-7.088 18.008-14.659l9.714 9.714a6 6 0 0 0 8.486-8.485l-9.018-9.018q10.483-9.011 21-18.6l11.366 11.366a6 6 0 0 0 8.485-8.485l-11.023-11.027q10.555-9.849 21.035-20.183l12.775 12.774a6 6 0 0 0 8.485-8.485l-12.767-12.767q9.936-10.026 19.45-20.152l10.94 10.94a6 6 0 1 0 8.485-8.486l-11.256-11.26q10-10.9 19.416-21.8l10.955 10.956a6 6 0 1 0 8.485-8.486l-11.63-11.63q8.367-9.944 16.147-19.781a565.079 565.079 0 0 0 51.672 41.994c-18.776 32.54-43.585 64.632-73.092 94.147zm78.962-104.7a553.706 553.706 0 0 1 -50.144-40.932c10-13.032 19.142-25.819 27.277-38.181q20.145 18.981 42.227 36.069a329.41 329.41 0 0 1 -19.36 43.044zm24.523-58.709c-.356 1.2-.734 2.407-1.109 3.612q-20.716-16.276-39.686-34.295c1.153-1.848 2.289-3.687 3.393-5.511 14.318-23.661 29.065-53.048 30.873-76.054 17.869 26.657 20.279 65.818 6.529 112.249z"/><path d="m248.432 132.29a5.97 5.97 0 0 0 3.406-1.065c3.051-2.109 6.156-4.2 9.229-6.206a6 6 0 0 0 -6.567-10.044c-3.159 2.066-6.35 4.212-9.486 6.379a6 6 0 0 0 3.418 10.936z"/><path d="m238.7 133.158a6 6 0 0 0 -8.4-1.192 496.691 496.691 0 0 0 -52.582 45.752c-10.664 10.665-20.89 21.839-30.392 33.212a6 6 0 1 0 9.208 7.694c9.275-11.1 19.257-22.008 29.67-32.42a484.591 484.591 0 0 1 51.3-44.645 6 6 0 0 0 1.196-8.401z"/></svg>