<svg id="Layer_1" height="512" viewBox="0 0 512 512" width="512" xmlns="http://www.w3.org/2000/svg" data-name="Layer 1"><path d="m185.734 247.521a25.323 25.323 0 1 0 25.324 25.323 25.351 25.351 0 0 0 -25.324-25.323zm0 38.646a13.323 13.323 0 1 1 13.324-13.323 13.338 13.338 0 0 1 -13.324 13.323z"/><path d="m201.262 66.17c-3.257.294-6.544.686-9.772 1.165a6 6 0 1 0 1.76 11.87c3-.445 6.062-.809 9.092-1.083a6 6 0 0 0 -1.08-11.952z"/><path d="m165.9 73.164a174.128 174.128 0 0 0 -70.038 42.036 171.754 171.754 0 0 0 -50.309 99.229 6 6 0 1 0 11.883 1.677 159.837 159.837 0 0 1 46.836-92.345 162.071 162.071 0 0 1 65.184-39.139 6 6 0 0 0 -3.556-11.458z"/><path d="m485.18 324.864-167.064-1.047-39.67-22.3 23.1-72.833a47.666 47.666 0 0 1 32.884-31.654l62.847-17.33a6 6 0 0 0 3.735-3.027 6.288 6.288 0 0 0 .313-4.916 196.677 196.677 0 0 0 -184.363-129.757h-.06c-51.468 0-100.178 20.243-137.151 56.566a195.464 195.464 0 0 0 -58.851 136.319c-.026 1.31-.038 2.677-.037 3.98a167.49 167.49 0 0 0 49.888 119.426 170.646 170.646 0 0 0 121.127 49.971l72.068-.611 47.934 58.729a6.122 6.122 0 0 0 4.6 2.324l141.435 1.296h.046a6.218 6.218 0 0 0 5.877-5.034l27.182-132.9a6 6 0 0 0 -5.84-7.205zm-253.434 24.307-31.154-38.152a41.165 41.165 0 0 0 24.231-25.885l14.942 8.4-8.3 26.111a5.587 5.587 0 0 0 -.28 1.868zm-46.012-47.352a28.975 28.975 0 1 1 28.975-28.975 29.007 29.007 0 0 1 -28.975 28.975zm58.961 94-.245-12.058 9.775 11.975zm14.135-72.152a5.987 5.987 0 0 0 -.28 1.935l1.171 57.822-15.666-19.185-.851-41.908 7.243-22.8 13.61 7.652zm-4.672-35.812 9.228-29.044a6 6 0 0 0 -11.434-3.633l-8.475 26.672-16.777-9.429a40.97 40.97 0 1 0 -40.964 41.4c.535 0 1.064-.02 1.594-.041l44.814 54.906.551 27.243-40.832.35a158.721 158.721 0 0 1 -112.65-46.466 155.507 155.507 0 0 1 -46.355-110.896q0-1.838.035-3.683a183.806 183.806 0 0 1 55.267-128.108c34.717-34.107 80.44-53.126 128.74-53.126h.056a184.619 184.619 0 0 1 158.1 90.21l-60.916 16.854a67.917 67.917 0 0 0 -46.695 45.113l-2.83 9.009a6.011 6.011 0 0 0 5.723 7.814h.008a6 6 0 0 0 5.723-4.2l2.814-8.963a55.825 55.825 0 0 1 38.446-37.075l63.692-17.592c2.433 4.794 4.687 9.694 6.7 14.718l-56.484 15.572a59.626 59.626 0 0 0 -41.133 39.6l-22.346 70.455zm56.3 157.7-38.429-47.055-1.462-72.146 4.173-13.154 37.36 21zm98.252-109.167 30.087.189-3.591 20.895-28.878-.189zm-60.995 120.324-25.422-.189.261-17.616 26.3.188zm1.907-29.612-26.891-.192.343-23.083 28.034.191zm2.259-35.079-28.629-.195.342-23.082 29.774.194zm2.26-35.078-30.37-.2.31-20.888 31.4.2zm28.746 100.03-23.154-.172 1.135-17.62 24.028.172zm3.376-29.61-24.622-.177 1.487-23.088 25.767.175zm4-35.081-26.363-.182 1.487-23.086 27.506.18zm-24.1-35.261 1.346-20.892 29.137.183-2.386 20.888zm51.9 100.213-23.109-.172 2.01-17.622 24.128.172zm5.088-29.607-24.821-.178 2.633-23.094 26.157.178zm-20.821-35.263 2.632-23.089 28.185.184-3.967 23.087zm50.743 65.13-22.849-.17 3.028-17.625 23.433.168zm6.067-29.61-23.828-.17 3.969-23.1 24.592.167zm7.189-35.085-24.988-.17 3.968-23.091 25.752.168zm7.187-35.077-26.147-.171 3.591-20.9 26.838.169z"/></svg>