<?xml version="1.0" encoding="UTF-8"?>
<svg xmlns="http://www.w3.org/2000/svg" id="Layer_1" data-name="Layer 1" viewBox="0 0 512 512" width="512" height="512"><path d="M449.786,230.655C423.866,210.7,388.48,200,347.433,200H279.406C247.387,200,221,174.266,221,142.246V45.638A5.421,5.421,0,0,0,215.337,40H48.675A5.43,5.43,0,0,0,43,45.638V314c0,25.7,20.584,47,46.285,47H90v74H24.979a5.9,5.9,0,0,0-5.045,2.637,5.54,5.54,0,0,0-.417,5.493A49.54,49.54,0,0,0,64.722,472h363.34C463.051,472,492,443.9,492,408.909V358.06a6.567,6.567,0,0,0,1-3.445V322.64C493,284.333,478.063,252.422,449.786,230.655ZM55,103h63.788a18.5,18.5,0,0,1,0,37H55Zm0,150H78.824A40,40,0,0,1,119,293.2V311H89.285A33.908,33.908,0,0,1,55,277ZM480,408.909C480,437.28,456.434,460,428.062,460H64.722a38.794,38.794,0,0,1-28.955-13h392.3A38.167,38.167,0,0,0,466,408.909V361h14ZM102,435V361h11v74Zm23,0V361H275v74Zm162,0V361h11v74Zm23,0V361H454v47.909A26.153,26.153,0,0,1,428.062,435ZM480.486,311H345.277a33.108,33.108,0,0,1,32.4-27h96.937A105.361,105.361,0,0,1,480.486,311ZM377.677,272a45.118,45.118,0,0,0-44.548,39H210a6,6,0,0,0,0,12H481v26H89.285C70.2,349,55,333.088,55,314v-6.376A45.175,45.175,0,0,0,89.285,323H170a6,6,0,0,0,0-12H131V293.2A52.01,52.01,0,0,0,78.824,241H55V152h63.788a30.5,30.5,0,0,0,0-61H55V52H209v90.246c0,35.408,27,64.748,61,69.406v3.678a9.825,9.825,0,0,1-6.91,9.358,6,6,0,0,0,1.764,11.722,6.289,6.289,0,0,0,1.855-.28A21.772,21.772,0,0,0,282,215.33V212h18v3.33a9.717,9.717,0,0,1-6.789,9.358,6.006,6.006,0,0,0,1.856,11.722,5.613,5.613,0,0,0,1.749-.28A21.674,21.674,0,0,0,312,215.33V212h18v3.33a9.608,9.608,0,0,1-6.666,9.358,5.947,5.947,0,0,0-3.82,7.528,6.061,6.061,0,0,0,5.767,4.194,4.981,4.981,0,0,0,1.642-.28A21.58,21.58,0,0,0,342,215.33V212h5.433c4.477,0,8.567.46,13.567.722v2.608a9.948,9.948,0,0,1-7.045,9.358,6.052,6.052,0,0,0-4.008,7.528,5.947,5.947,0,0,0,5.673,4.194,7.075,7.075,0,0,0,1.972-.28A21.878,21.878,0,0,0,373,215.33v-1.507c27,3.354,51.258,12.28,69.664,26.448A98.039,98.039,0,0,1,469.34,272Z"/><path d="M188,89a6,6,0,0,0,6-6V75.5a6,6,0,0,0-12,0V83A6,6,0,0,0,188,89Z"/><path d="M222.113,206.993A80.178,80.178,0,0,1,194,146.246V104.055a6,6,0,0,0-12,0v42.191a92.186,92.186,0,0,0,32.314,69.85,6.2,6.2,0,0,0,3.992,1.448,5.936,5.936,0,0,0,3.807-10.551Z"/></svg>
