<svg id="Layer_1" height="512" viewBox="0 0 512 512" width="512" xmlns="http://www.w3.org/2000/svg" data-name="Layer 1"><path d="m342.171 150.555a13.629 13.629 0 1 0 19.273 0 13.643 13.643 0 0 0 -19.273 0zm10.789 10.79a1.63 1.63 0 1 1 0-2.305 1.634 1.634 0 0 1 0 2.305z"/><path d="m160.192 365.431a13.624 13.624 0 1 0 -9.636-3.986 13.584 13.584 0 0 0 9.636 3.986zm-1.152-14.776a1.63 1.63 0 1 1 0 2.305 1.627 1.627 0 0 1 0-2.305z"/><path d="m245.227 188.042a5.982 5.982 0 0 0 4.242-1.757l3.4-3.4a6 6 0 1 0 -8.484-8.486l-3.4 3.4a6 6 0 0 0 4.243 10.243z"/><path d="m167.445 259.824a6 6 0 0 0 8.485 0l57.71-57.71a6 6 0 0 0 -8.485-8.485l-57.71 57.709a6 6 0 0 0 0 8.486z"/><path d="m454.882 57.118a118.781 118.781 0 0 0 -167.8 0l-.209.209-3.92-3.92a6 6 0 0 0 -8.484 0l-54.069 54.072a6 6 0 0 0 0 8.485l3.918 3.919-104.435 104.431-3.92-3.919a6 6 0 0 0 -8.484 0l-54.071 54.07a6 6 0 0 0 0 8.486l3.92 3.919-.209.209a118.655 118.655 0 0 0 167.8 167.8l.209-.209 3.92 3.919a6 6 0 0 0 8.484 0l54.07-54.071a6 6 0 0 0 0-8.485l-3.918-3.919 104.43-104.431 3.92 3.919a6 6 0 0 0 8.484 0l54.071-54.071a6 6 0 0 0 0-8.485l-3.919-3.919.209-.209a118.789 118.789 0 0 0 .003-167.8zm-176.174 9.017 20.534 20.534-45.586 45.586-20.533-20.534zm33.262 16.291-.53-.529.208-.209a83.908 83.908 0 0 1 118.664 118.663l-.208.208-.53-.529a6 6 0 0 0 -8.485 0l-14.966 14.97-27.555-27.555a34.41 34.41 0 0 1 2.258-19.376l8.555-19.961a20.016 20.016 0 0 0 -26.281-26.286l-20.482 8.778a34.5 34.5 0 0 1 -18.492 2.4l-27.126-27.123 14.97-14.965a6 6 0 0 0 0-8.486zm56.73 114.585-5.171 5.171-53.708-53.708 5.273-5.273a46.6 46.6 0 0 0 32.254-1.573l20.48-8.777a8.017 8.017 0 0 1 10.527 10.526l-8.555 19.961a46.476 46.476 0 0 0 -1.1 33.673zm28.941 26.469-6.407 6.407-19.219-19.22 6.407-6.406zm-89.9-89.9-6.406 6.406-19.22-19.219 6.407-6.407zm-74.94-5.214 7.6 7.6-21.587 21.588a6 6 0 0 0 8.486 8.485l21.587-21.587.529.529a6 6 0 0 0 8.485 0l15.73-15.73 109.116 109.121-15.729 15.728a6 6 0 0 0 0 8.485l.529.529-104.431 104.433-.529-.53a6 6 0 0 0 -8.485 0l-15.73 15.73-109.119-109.119 15.729-15.728a6 6 0 0 0 0-8.485l-.529-.529 54.559-54.559a6 6 0 0 0 -8.485-8.486l-54.559 54.559-7.6-7.6zm-32.771 301.207.53.529-.21.21a83.907 83.907 0 0 1 -118.662-118.663l.208-.209.53.53a6 6 0 0 0 8.485 0l14.966-14.97 27.555 27.555a34.41 34.41 0 0 1 -2.258 19.376l-8.555 19.96a20 20 0 0 0 26.281 26.287l20.481-8.777a34.493 34.493 0 0 1 18.492-2.4l27.127 27.122-14.97 14.965a6 6 0 0 0 0 8.485zm-56.73-114.583 5.171-5.172 53.708 53.708-5.273 5.273a46.61 46.61 0 0 0 -32.254 1.572l-20.48 8.777a8.017 8.017 0 0 1 -10.527-10.526l8.555-19.96a46.473 46.473 0 0 0 1.1-33.672zm-28.942-26.471 6.408-6.406 19.219 19.22-6.406 6.407zm89.9 89.9 6.406-6.406 19.22 19.219-6.407 6.407zm-92.54-145.3 20.534 20.533-45.583 45.59-20.533-20.534zm104.719 213.281a106.655 106.655 0 0 1 -150.837-150.836l.209-.209 7.6 7.6-.209.208a95.907 95.907 0 0 0 135.635 135.637l.21-.209 7.6 7.6zm16.855-.533-20.534-20.533 45.586-45.586 20.533 20.534zm45.908-62.235-7.6-7.6 104.432-104.432 7.6 7.6zm121.079-104.755-20.534-20.534 45.586-45.585 20.533 20.534zm46.121-62.441-.209.208-7.6-7.6.208-.208a95.907 95.907 0 1 0 -135.635-135.636l-.209.209-7.6-7.6.208-.208a106.655 106.655 0 1 1 150.837 150.835z"/></svg>