<?xml version="1.0" encoding="UTF-8"?>
<svg xmlns="http://www.w3.org/2000/svg" id="Layer_1" data-name="Layer 1" viewBox="0 0 512 512" width="512" height="512"><path d="M227.961,77a6,6,0,0,0,0-12H128.969a6,6,0,0,0,0,12Z"/><path d="M59.232,71a6,6,0,0,0,6,6h41.614a6,6,0,0,0,0-12H65.232A6,6,0,0,0,59.232,71Z"/><path d="M42.846,77a6,6,0,1,0,0-12H38.039a6,6,0,0,0,0,12Z"/><path d="M489.368,98.948c-3.075-1.778-6.987-2.642-12.11-2.642l-442.41-4A18.907,18.907,0,0,0,16,111.406V188a6,6,0,0,0,12,0V111.406a6.928,6.928,0,0,1,6.844-7.1l442.359,4c7.1,0,6.8,1.647,6.8,3.1V432H470V124.507A5.507,5.507,0,0,0,464.493,119H47.8a5.8,5.8,0,0,0-5.8,5.8V435H28V228a6,6,0,0,0-12,0V441.139A5.861,5.861,0,0,0,21.861,447H47.8a6.221,6.221,0,0,0,6.2-6.2V429.143L109.149,368h292.4L458,428.443v9.123A6.453,6.453,0,0,0,464.434,444H490.4a5.6,5.6,0,0,0,5.6-5.6v-327C496,105.921,493.775,101.5,489.368,98.948ZM261,131H368.15l-9.939,19H261Zm0,31h90.914l-6,11H261ZM66,398.134,54,411.325V359.082l12-6.223Zm0-58.811-12,6.205V289.537l12-.834Zm0-62.65-12,.83V217.04l12,5.522Zm0-67.332-12-5.479V142.126L66,157.4ZM60.135,131h68.172l9.931,19H74.8ZM84,377.429l-6,7.4V346.6l6-3.483Zm0-47.852-6,3.483v-45.2l6-.467Zm0-54.209-6,.466V228.111l6,3.086Zm0-57.392-6-3.086V172.859l6,8.6ZM84.115,162h60.42l6,11H92.994ZM101,358.756l-5,5.368V336.85l5-2.527Zm0-37.969-5,2.527V286.558l5-.338Zm0-46.6-5,.338V236.745l5,2.239Zm0-48.428-5-2.239V196.91l5,6.236ZM102.312,185h54.521l5.243,10H110.068ZM166,356H113V330h53Zm0-38H113V286h53Zm0-44H113V241h53Zm0-45H113V207h53Zm83,127H178V330h71Zm0-38H178V286h71Zm0-44H178V241h71Zm0-45H178V207h71Zm0-34H175.627l-5.242-10H249Zm0-22H164.088l-6-11H249Zm0-23H151.789l-9.909-19H249Zm83,206H261V330h71Zm0-38H261V286h71Zm0-44H261V241h71Zm0-45H261V207h71Zm2.373-34H261V185h78.615ZM397,356H344V330h53Zm0-38H344V286h53Zm0-44H344V241h53Zm0-45H344V207h53Zm3.578-34H347.924l5.243-10H408.46ZM415,364.1l-6-5.4V334.15l6,2.583Zm0-40.852-6-2.583V286.2l6,.346Zm0-48.728-6-.346V239.1l6-2.288Zm0-50.89-6,2.288V203.173l6-6.38ZM417.927,173H359.464l6-11H426.95ZM433,384.125l-6-7.157V342.892l6,3.425Zm0-51.3-6-3.425V287.37l6,.459Zm0-57.028-6-.459v-43.99l6-3.034Zm0-60.665-6,3.034V181.582l6-8.458ZM371.762,150l9.893-19h69.632l-14.87,19ZM458,410.913,445,397v-44.52l13,6.632Zm0-65.268-13-6.657V288.654l13,.889Zm0-68.128-13-.891V222.861l13-5.884Zm0-73.732-13,5.894V157.913l13-16.41Z"/></svg>
