<svg id="Layer_1" height="512" viewBox="0 0 512 512" width="512" xmlns="http://www.w3.org/2000/svg" data-name="Layer 1"><path d="m256 23.081a232.919 232.919 0 0 0 -164.7 397.619 232.919 232.919 0 1 0 329.4-329.4 231.394 231.394 0 0 0 -164.7-68.219zm0 12a222.82 222.82 0 0 1 47.463 5.093l-47.463 34.538-47.431-34.545a222.84 222.84 0 0 1 47.431-5.086zm73.739 206.772-28.207 88.147h-91.057l-28.214-88.614 73.724-54.454zm-257.77-108.193 3 11.819a6 6 0 0 0 5.812 4.521h.011a6 6 0 0 0 5.812-7.471l-5.472-21.579a224.218 224.218 0 0 1 18.654-21.163 219.741 219.741 0 0 1 93.693-55.766l56 40.789.5 91.637-75.089 55.465-75.53-39.387-2.572-10.02a6 6 0 1 0 -11.616 2.984l2.149 8.364-49.759 28.86a218.45 218.45 0 0 1 34.407-89.053zm-36.888 122.34c0-6.206.27-12.37.773-18.487l58.561-34.034 75.763 39.51 29.011 91.121-55.322 50.663-70.213-3.973a219.327 219.327 0 0 1 -38.573-124.8zm64.705 156.213a224.824 224.824 0 0 1 -16.84-18.867l58.4 3.3 14.654 56.461a221.43 221.43 0 0 1 -56.214-40.894zm156.214 64.706a220.516 220.516 0 0 1 -85.9-17.267l-17.333-66.76 55.575-50.892h95.779l55.408 50.887-17.3 66.622a220.491 220.491 0 0 1 -86.229 17.41zm156.214-64.706a221.469 221.469 0 0 1 -55.876 40.717l14.612-56.281 58.089-3.285a224.409 224.409 0 0 1 -16.825 18.849zm64.705-156.213a219.322 219.322 0 0 1 -38.585 124.819l-69.9 3.954-55.514-50.985 29.069-90.843 75.611-39.467 58.542 34.02c.507 6.121.777 12.29.777 18.502zm-2.5-33.382-49.733-28.9 15.314-60.103a218.451 218.451 0 0 1 34.423 89.003zm-61.814-30.068-75.83 39.58-74.791-55.692-.5-90.876 57.071-41.531a219.75 219.75 0 0 1 93.657 55.756 224.461 224.461 0 0 1 18.637 21.14z"/></svg>