<?xml version="1.0" encoding="UTF-8"?>
<svg xmlns="http://www.w3.org/2000/svg" id="Layer_1" data-name="Layer 1" viewBox="0 0 512 512" width="512" height="512"><path d="M122.986,130H213.6a6,6,0,0,0,0-12H122.986a6,6,0,1,0,0,12Z"/><path d="M100.6,118H95.794a6,6,0,1,0,0,12H100.6a6,6,0,0,0,0-12Z"/><path d="M496,72H16a6,6,0,0,0-6,6V433a6,6,0,0,0,6,6H496a6,6,0,0,0,6-6V78A6,6,0,0,0,496,72Zm-6,356H22V84H490Z"/><path d="M38,417H474a6,6,0,0,0,6-6V100a6,6,0,0,0-6-6H38a6,6,0,0,0-6,6V411A6,6,0,0,0,38,417ZM250,300.6a45,45,0,0,1,0-89.208ZM468,406H441.391A33.4,33.4,0,0,1,468,378.978Zm0-118H447V224h21Zm0-76H440.785A5.615,5.615,0,0,0,435,217.754v76.492A5.615,5.615,0,0,0,440.785,300H468v24H412V188h56Zm0-106v27.331A33.752,33.752,0,0,1,441.389,106ZM262,211.4a45,45,0,0,1,0,89.208Zm0,101.3a57.014,57.014,0,0,0,0-113.4V106H429.242A45.106,45.106,0,0,0,468,145.533V176H405.865A5.747,5.747,0,0,0,400,181.834V330.166A5.747,5.747,0,0,0,405.865,336H468v30.806A45.675,45.675,0,0,0,429.269,406H262ZM44,106H70.611A33.752,33.752,0,0,1,44,133.331Zm0,118H65v64H44Zm0,112h61.813A6.2,6.2,0,0,0,112,329.813V181.834A5.834,5.834,0,0,0,106.166,176H90a6,6,0,0,0,0,12h10V324H44V300H70.894A5.888,5.888,0,0,0,77,294.246V217.754A5.888,5.888,0,0,0,70.894,212H44V188h6a6,6,0,0,0,0-12H44V145.533A45.106,45.106,0,0,0,82.758,106H250v93.3a57.014,57.014,0,0,0,0,113.4V406H82.731A45.675,45.675,0,0,0,44,366.806Zm0,42.978A33.4,33.4,0,0,1,70.609,406H44Z"/></svg>
