<?xml version="1.0" encoding="UTF-8"?>
<svg xmlns="http://www.w3.org/2000/svg" id="Layer_1" data-name="Layer 1" viewBox="0 0 512 512" width="512" height="512"><path d="M458.865,131.175a24.675,24.675,0,0,0-34.491-1.253l-15.749,14.2A208.563,208.563,0,0,0,274,78.693V58h17.761A6.108,6.108,0,0,0,298,52.119V46.491A30.723,30.723,0,0,0,267.323,16H245.011A30.155,30.155,0,0,0,215,46.491v5.628A5.548,5.548,0,0,0,220.572,58H239V78.633a208.565,208.565,0,0,0-135.454,65.662L87.035,129.827a24.59,24.59,0,0,0-33.767,35.708l19.977,20.379a207.713,207.713,0,0,0-26.09,101.022c0,115.249,93.762,209.011,209.012,209.011s209.012-93.762,209.012-209.011A207.712,207.712,0,0,0,439,185.754l19.676-20.072A24.675,24.675,0,0,0,458.865,131.175ZM226.576,46a18.4,18.4,0,0,1,18.435-18h22.312a18.4,18.4,0,0,1,18.435,18ZM262,58V78.009c-1.938-.053-3.882-.085-5.833-.085q-2.592,0-5.167.066V58ZM61.838,157.135a12.59,12.59,0,0,1,17.288-18.282L95.6,153.286a210.209,210.209,0,0,0-16.016,21.951Zm391.341,129.8c0,108.632-88.379,197.011-197.012,197.011S59.155,395.568,59.155,286.936,147.534,89.924,256.167,89.924,453.179,178.3,453.179,286.936Zm-3.073-129.655-17.451,17.8A210.165,210.165,0,0,0,416.582,153.1l15.827-14.271a12.788,12.788,0,0,1,17.7,18.447Z"/><path d="M260,142V130a6,6,0,0,0-12,0v12a6,6,0,0,0,12,0Z"/><path d="M248,434v12a6,6,0,0,0,12,0V434a6,6,0,0,0-12,0Z"/><path d="M413,297a6,6,0,0,0,0-12H402a6,6,0,0,0,0,12Z"/><path d="M109,297a6,6,0,0,0,0-12H98a6,6,0,0,0,0,12Z"/><path d="M359.373,190.356a5.982,5.982,0,0,0,4.243-1.757l7.935-7.936a6,6,0,1,0-8.485-8.484l-7.936,7.935a6,6,0,0,0,4.243,10.242Z"/><path d="M148.021,387.223l-7.935,7.935a6,6,0,0,0,8.486,8.485l7.935-7.936a6,6,0,1,0-8.486-8.484Z"/><path d="M354.337,395.707l7.935,7.936a6,6,0,1,0,8.485-8.485l-7.935-7.935a6,6,0,1,0-8.485,8.484Z"/><path d="M147.778,172.179a6,6,0,1,0-8.485,8.484l7.935,7.936a6,6,0,1,0,8.485-8.485Z"/><path d="M201.452,239.245a72.583,72.583,0,1,0,69.541-23.36l-8.926-48.311a6,6,0,0,0-11.8,0L241.34,215.89A72.6,72.6,0,0,0,201.452,239.245Zm40.1,41.551,14.615-79.107L270.782,280.8a14.862,14.862,0,1,1-29.23,0Zm-2.606-51.946-9.195,49.766a26.863,26.863,0,1,0,52.831,0l-9.195-49.772a60.591,60.591,0,1,1-34.441.006Z"/><path d="M211.586,189.771a5.968,5.968,0,0,0,2.381-.5c2.915-1.261,5.923-2.4,8.941-3.4a6,6,0,0,0-3.748-11.4c-3.362,1.1-6.714,2.378-9.961,3.785a6,6,0,0,0,2.387,11.507Z"/><path d="M191.986,187.473a118.015,118.015,0,0,0-54.178,99.463,6,6,0,0,0,12,0A106.061,106.061,0,0,1,198.5,197.551a6,6,0,0,0-6.515-10.078Z"/><path d="M254.684,103.1c-81.662.645-150.811,54.572-174.1,129.107A6.007,6.007,0,0,0,86.318,240h0a5.977,5.977,0,0,0,5.709-4.176c21.918-69.919,87.309-120.818,164.333-120.732,94.485.105,171.705,77.277,171.786,171.762.08,94.9-77.1,172.094-171.979,172.094-94.83,0-171.979-77.032-171.979-171.861,0-4.228.159-8.5.464-12.621A6,6,0,0,0,78.673,268h0a6,6,0,0,0-5.988,5.561c-.325,4.4-.492,8.977-.492,13.509,0,101.447,82.533,183.911,183.979,183.911,101.719,0,184.423-82.943,183.977-184.764C439.7,184.734,356.166,102.3,254.684,103.1Z"/></svg>
