<svg id="Layer_1" height="512" viewBox="0 0 512 512" width="512" xmlns="http://www.w3.org/2000/svg" data-name="Layer 1"><path d="m471.126 416.6c-19.512 0-29.723 5.455-38.788 10.267-8.588 4.56-16.668 8.866-33.193 8.866s-24.62-4.306-33.208-8.866c-9.065-4.812-19.331-10.267-38.844-10.267-19.218 0-28.939 5.2-38.344 10.226-8.569 4.581-16.661 8.907-33.238 8.907-16.212 0-24.216-4.279-32.691-8.809-9.053-4.839-19.313-10.324-38.9-10.324-19.218 0-28.943 5.2-38.349 10.226-8.569 4.581-16.662 8.907-33.239 8.907-16.212 0-24.217-4.279-32.692-8.809-9.053-4.839-19.187-10.324-38.77-10.324a5.893 5.893 0 0 0 -5.874 6v71.4a5.79 5.79 0 0 0 5.747 6h430.509a5.79 5.79 0 0 0 5.748-6v-71.4a5.893 5.893 0 0 0 -5.874-6zm-6.126 71.4h-418v-30.056c12 .912 19.649 4.707 27.113 8.7 9.406 5.027 19.068 10.226 38.286 10.226 19.583 0 29.812-5.485 38.865-10.324 8.475-4.53 16.464-8.81 32.676-8.81 16.577 0 24.663 4.327 33.232 8.908 9.405 5.027 19.127 10.226 38.345 10.226 19.583 0 29.842-5.485 38.895-10.324 8.474-4.53 16.479-8.81 32.69-8.81 16.525 0 24.636 4.307 33.224 8.867 9.065 4.812 19.338 10.267 38.851 10.267s29.661-5.455 38.725-10.267c7.478-3.971 15.1-7.746 27.1-8.657zm0-42.071c-15 .989-24.641 5.781-32.725 10.073-8.588 4.56-16.636 8.866-33.161 8.866s-24.6-4.306-33.193-8.866c-9.064-4.813-19.323-10.268-38.835-10.268-19.219 0-28.936 5.2-38.341 10.227-8.569 4.581-16.659 8.907-33.236 8.907-16.212 0-24.215-4.279-32.69-8.809-9.053-4.839-19.312-10.325-38.9-10.325-19.217 0-28.943 5.2-38.348 10.227-8.569 4.581-16.662 8.907-33.239 8.907-16.212 0-24.091-4.279-32.566-8.809-8.072-4.318-16.766-9.138-32.766-10.13v-17.123c12 .912 19.648 4.71 27.113 8.7 9.406 5.027 19.068 10.226 38.286 10.226 19.583 0 29.812-5.485 38.865-10.324 8.475-4.53 16.464-8.809 32.676-8.809 16.577 0 24.663 4.326 33.232 8.907 9.405 5.027 19.127 10.226 38.345 10.226 19.583 0 29.842-5.485 38.895-10.324 8.474-4.53 16.479-8.809 32.69-8.809 16.525 0 24.636 4.306 33.224 8.866 9.065 4.812 19.338 10.267 38.851 10.267s29.661-5.455 38.725-10.267c7.479-3.971 15.1-7.75 27.1-8.659z"/><path d="m251.757 13.758a264.2 264.2 0 0 0 -60.31 279.414l48.2 127.977a6 6 0 0 0 10.8.9l5.553-9.533 5.547 9.536a6 6 0 0 0 5.185 2.982c.166 0 .334-.007.5-.02a6.005 6.005 0 0 0 5.116-3.865l48.2-127.977a264.2 264.2 0 0 0 -60.31-279.414 6 6 0 0 0 -8.481 0zm-2.749 387.624a10.123 10.123 0 0 0 -1.652 2.128l-.926 1.593-37.745-100.209a5.981 5.981 0 0 0 3.957-1.513l19.684-17.5 16.942 15.06zm.3-116.457-13-11.554a6 6 0 0 0 -7.973 0l-19.684 17.5-7.8-6.931q-3.536-10.028-6.186-20.217l10 8.887a6 6 0 0 0 7.973 0l19.684-17.5 17.021 15.131zm16.262 120.175-.926-1.593a9.987 9.987 0 0 0 -3.631-3.64l.252-97.629 18.4-16.358 19.688 17.5a5.983 5.983 0 0 0 3.959 1.513zm45.581-121.19-7.814 6.956-19.684-17.5a6 6 0 0 0 -7.972 0l-14.375 12.778.039-14.752 18.322-16.289 19.688 17.5a6 6 0 0 0 7.972 0l10-8.89q-2.645 10.174-6.176 20.197zm-49.191-250.839a252.4 252.4 0 0 1 59.686 210.755l-18.305 16.274-19.688-17.5a6 6 0 0 0 -7.972 0l-14.295 12.7.283-109.288a6 6 0 0 0 -6-6.016 6 6 0 0 0 -6 5.984l-.28 108.237-13.077-11.617a6 6 0 0 0 -7.973 0l-19.684 17.5-18.3-16.27a252.4 252.4 0 0 1 59.605-210.671l-.188 72.825a6 6 0 1 0 12 .031z"/><path d="m231 137.248a6 6 0 0 0 -6 6v64.613a6 6 0 0 0 12 0v-64.613a6 6 0 0 0 -6-6z"/><path d="m231 113.248a6 6 0 0 0 -6 6v5.613a6 6 0 0 0 12 0v-5.613a6 6 0 0 0 -6-6z"/></svg>