<svg id="Layer_1" height="512" viewBox="0 0 512 512" width="512" xmlns="http://www.w3.org/2000/svg" data-name="Layer 1"><path d="m196.263 360.106c-13-8.592-30.134-13.325-48.258-13.325s-35.262 4.733-48.258 13.325c-13.76 9.1-21.339 21.43-21.339 34.724s7.579 25.625 21.339 34.723c13 8.593 30.135 13.325 48.258 13.325s35.262-4.732 48.258-13.325c13.761-9.1 21.34-21.43 21.34-34.723s-7.579-25.63-21.34-34.724zm-48.258 70.772c-31.221 0-57.6-16.508-57.6-36.048s26.376-36.049 57.6-36.049 57.6 16.509 57.6 36.049-26.379 36.048-57.6 36.048z"/><path d="m411.789 360.106c-13-8.592-30.135-13.325-48.258-13.325s-35.262 4.733-48.259 13.325c-13.76 9.1-21.339 21.43-21.339 34.724s7.579 25.625 21.339 34.723c13 8.593 30.135 13.325 48.259 13.325s35.261-4.732 48.258-13.325c13.76-9.1 21.339-21.43 21.339-34.723s-7.579-25.63-21.339-34.724zm-48.258 70.772c-31.221 0-57.6-16.508-57.6-36.048s26.377-36.049 57.6-36.049 57.6 16.509 57.6 36.049-26.38 36.048-57.6 36.048z"/><path d="m472.858 366h-18.787c-14.443-28-49.094-46.944-90.54-46.944s-76.098 18.944-90.541 46.944h-34.445c-14.442-28-49.093-46.944-90.54-46.944s-76.097 18.944-90.54 46.944h-18.323a28.5 28.5 0 1 0 0 57h17.723c14.067 28 49.112 48.118 91.14 48.118s77.074-20.118 91.141-48.118h33.244c14.067 28 49.112 48.118 91.141 48.118s77.069-20.118 91.14-48.118h18.187a28.5 28.5 0 1 0 0-57zm-420.512 45h-13.2a16.5 16.5 0 1 1 0-33h13.52a58.5 58.5 0 0 0 -2.422 17.087 60.158 60.158 0 0 0 2.102 15.913zm95.659 48.043c-48.09 0-85.761-28.206-85.761-64.213s37.671-64.213 85.761-64.213 85.762 28.206 85.762 64.213-37.667 64.213-85.762 64.213zm119.866-48.043h-24.206a60.158 60.158 0 0 0 2.1-15.913 58.532 58.532 0 0 0 -2.42-17.087h24.846a58.5 58.5 0 0 0 -2.422 17.087 60.158 60.158 0 0 0 2.102 15.913zm95.66 48.043c-48.091 0-85.762-28.206-85.762-64.213s37.671-64.213 85.762-64.213 85.761 28.206 85.761 64.213-37.671 64.213-85.761 64.213zm109.327-48.043h-13.668a60.158 60.158 0 0 0 2.1-15.913 58.5 58.5 0 0 0 -2.42-17.087h13.988a16.5 16.5 0 1 1 0 33z"/><path d="m256.021 40.957a216.948 216.948 0 0 0 -217.021 216.526v43.34c0 3.314 3.18 6.177 6.494 6.177h421.053a6.555 6.555 0 0 0 6.453-6.177v-43.34a216.914 216.914 0 0 0 -216.979-216.526zm204.979 216.526v37.517h-410v-37.517c0-.83.516-1.655.526-2.483h29.474a6 6 0 0 0 0-12h-28.987a203.2 203.2 0 0 1 31.872-95.864 87.514 87.514 0 0 1 49.615 95.864h-12.5a6 6 0 0 0 0 12h339.516c.009.828.484 1.653.484 2.483zm-.972-14.483h-81.528a87.548 87.548 0 0 1 49.648-95.884 203.194 203.194 0 0 1 31.88 95.884zm-65.936-86.6a98.672 98.672 0 0 0 -27.786 86.6h-220.606a99.579 99.579 0 0 0 -54.919-105.894 204.311 204.311 0 0 1 330.471-.011 98.851 98.851 0 0 0 -27.16 19.305z"/><path d="m144.559 98.134c-3.681 2.582-7.314 5.323-10.8 8.146a6 6 0 0 0 7.555 9.324c3.271-2.65 6.681-5.223 10.137-7.648a6 6 0 1 0 -6.893-9.822z"/><path d="m306.352 69.559a194.618 194.618 0 0 0 -139.561 15.1 6 6 0 1 0 5.521 10.655 180.156 180.156 0 0 1 83.709-20.352 182.465 182.465 0 0 1 47.224 6.193 6 6 0 1 0 3.107-11.591z"/></svg>