<svg id="Layer_1" height="512" viewBox="0 0 512 512" width="512" xmlns="http://www.w3.org/2000/svg" data-name="Layer 1"><path d="m184.562 233.352a6 6 0 0 0 0 8.485l13.428 13.43a6 6 0 0 0 8.487-8.485l-13.429-13.43a6 6 0 0 0 -8.486 0z"/><path d="m110.78 160.428a6 6 0 0 0 0 8.485l57.709 57.71a6 6 0 0 0 8.485-8.486l-57.709-57.709a6 6 0 0 0 -8.485 0z"/><path d="m91.552 141.2a6 6 0 0 0 0 8.485l3.4 3.4a6 6 0 0 0 8.487-8.484l-3.4-3.4a6 6 0 0 0 -8.487-.001z"/><path d="m112.571 125.349a6 6 0 0 0 8.485 0 6 6 0 0 0 0-8.485l-82.856-82.858a8.748 8.748 0 0 1 12.37-12.37l268.262 268.264a70.868 70.868 0 0 0 -12.372 12.371l-157.12-157.123a6 6 0 0 0 -8.485 8.485l158.872 158.867a70.055 70.055 0 0 0 -7.4 44.977 76.256 76.256 0 0 0 2.28 105.322l19.847 19.846a76.248 76.248 0 0 0 107.72 0l11.226-11.222a20.649 20.649 0 0 0 12.743-5.838l36.01-35.479a20.745 20.745 0 0 0 .135-29.474 20.816 20.816 0 0 0 -27.8-1.381l-68.569-68.57 26.5-26.5a5.863 5.863 0 0 0 0-8.372 70.244 70.244 0 0 0 -50.019-20.809h-.263a69.467 69.467 0 0 0 -33.066 8.277l-270.016-270.07a20.732 20.732 0 1 0 -29.341 29.3zm301.117 348.815a64.25 64.25 0 0 1 -90.75 0l-19.847-19.847a64.263 64.263 0 0 1 -6.82-82.689 70.315 70.315 0 0 0 3.659 7.8 56.651 56.651 0 0 0 8.364 69.69l19.846 19.847a56.871 56.871 0 0 0 80.345 0l6.195-6.195a20.976 20.976 0 0 0 2.25 2.691 20.551 20.551 0 0 0 3 2.466zm-106.146-83.5q2.219 2.687 4.721 5.194a6 6 0 0 0 8.484 0l26.5-26.5 68.3 68.3a20.55 20.55 0 0 0 -4.64 11.914l-10.907 10.905a44.872 44.872 0 0 1 -63.375 0l-19.847-19.847a44.688 44.688 0 0 1 -9.236-49.971zm153.946 18.4a8.747 8.747 0 1 1 12.256 12.482l-.008.008-36.009 35.476a8.747 8.747 0 1 1 -12.248-12.492zm-15.618-1.464-21.865 21.543-13.081-13.081 21.894-21.513zm-21.537-21.537-21.9 21.513-19.322-19.322 21.9-21.513zm-27.808-27.808-21.894 21.514-18.9-18.9 21.705-21.7zm-34.186-71.565a58.318 58.318 0 0 1 37.144 13.453l-82.774 82.777c-19.194-23.319-17.849-56.848 4.038-78.735a58.627 58.627 0 0 1 41.592-17.492z"/></svg>