<svg id="Layer_1" height="512" viewBox="0 0 512 512" width="512" xmlns="http://www.w3.org/2000/svg" data-name="Layer 1"><path d="m388.119 80.215a219.9 219.9 0 0 0 -264.238 351.57 218.249 218.249 0 0 0 131.658 44.156 223.066 223.066 0 0 0 31.338-2.22 219.9 219.9 0 0 0 101.242-393.506zm-257.028 341.977a206.535 206.535 0 0 1 -80.931-137c-.306-2.152-.564-4.3-.8-6.454a187.437 187.437 0 0 1 124.769 56.644c33.21 33.93 51.891 78.668 53.038 126.6a206.783 206.783 0 0 1 -96.076-39.79zm291.1-41.283a206.537 206.537 0 0 1 -137 80.931 210.86 210.86 0 0 1 -29.627 2.1q-8.217 0-16.363-.649c-.837-51.583-20.776-99.8-56.5-136.3a199.35 199.35 0 0 0 -134.33-60.319 207.908 207.908 0 0 1 178.438-216.512 210.86 210.86 0 0 1 29.627-2.1q3.993 0 7.971.156a200.346 200.346 0 0 0 20.775 94.992 5.994 5.994 0 0 0 10.764-5.277 188.335 188.335 0 0 1 -19.564-88.9 208.105 208.105 0 0 1 185.458 177.778q1.1 7.724 1.617 15.433a185.461 185.461 0 0 1 -134.075-56.942q-6.436-6.642-12.142-13.838a6 6 0 0 0 -8.956-.547 6 6 0 0 0 -.464 7.968q6.069 7.649 12.918 14.731a197.446 197.446 0 0 0 142.824 60.639h.357a206.321 206.321 0 0 1 -41.727 126.656z"/><path d="m187.116 96.76a174.17 174.17 0 0 0 -84.306 77.849 6 6 0 1 0 10.591 5.639 162.139 162.139 0 0 1 78.473-72.472 6 6 0 1 0 -4.758-11.016z"/><path d="m231.645 84.26a176.184 176.184 0 0 0 -17.545 3.405 6 6 0 1 0 2.884 11.648 164.043 164.043 0 0 1 16.348-3.172 6 6 0 0 0 -1.685-11.881z"/></svg>