<svg id="Layer_1" height="512" viewBox="0 0 512 512" width="512" xmlns="http://www.w3.org/2000/svg" data-name="Layer 1"><path d="m182.232 69h96.614a6 6 0 0 0 0-12h-96.614a6 6 0 0 0 0 12z"/><path d="m156.039 57a6 6 0 0 0 0 12h4.807a6 6 0 0 0 0-12z"/><path d="m82.816 479h345.97a6.232 6.232 0 0 0 6.214-6.214v-433.97a5.816 5.816 0 0 0 -5.816-5.816h-230.184a6 6 0 0 0 0 12h175v106h-236v-106h21a6 6 0 0 0 0-12h-75.786a6.232 6.232 0 0 0 -6.214 6.214v433.97a5.816 5.816 0 0 0 5.816 5.816zm303.184-434h37v205h-37zm0 217h37v205h-37zm-124-99h112v87h-112zm0 99h112v87h-112zm-124-99h112v87h-112zm0 99h112v87h-112zm0 99h236v106h-236zm-49-316h37v205h-37zm0 217h37v205h-37z"/><path d="m451 11h-390a6 6 0 0 0 -6 6v478a6 6 0 0 0 6 6h390a6 6 0 0 0 6-6v-478a6 6 0 0 0 -6-6zm-6 478h-378v-466h378z"/></svg>