<?xml version="1.0" encoding="UTF-8"?>
<svg xmlns="http://www.w3.org/2000/svg" id="Layer_1" data-name="Layer 1" viewBox="0 0 512 512" width="512" height="512"><path d="M223.377,339.856l-5.647,32.919a6,6,0,0,0,8.707,6.325L256,363.558,285.563,379.1a6,6,0,0,0,8.707-6.325l-5.647-32.919,23.917-23.314a6,6,0,0,0-3.325-10.233l-33.053-4.8-14.781-29.951a6,6,0,0,0-10.762,0l-14.781,29.951-33.053,4.8a6,6,0,0,0-3.325,10.233Zm17.308-26.929a6,6,0,0,0,4.518-3.282L256,287.768l10.8,21.877a6,6,0,0,0,4.518,3.282l24.143,3.509-17.471,17.029a6,6,0,0,0-1.725,5.31l4.125,24.046-21.6-11.353a6,6,0,0,0-5.584,0l-21.595,11.353,4.125-24.046a6,6,0,0,0-1.725-5.31l-17.471-17.029Z"/><path d="M384,75.681V44.767C384,30.431,372.09,19,357.753,19H327.645A5.511,5.511,0,0,0,322,24.767v1.987a74.323,74.323,0,0,1-66.034,39.939A74.321,74.321,0,0,1,190,26.885V24.767A5.511,5.511,0,0,0,184.355,19H154.247C139.91,19,128,30.431,128,44.767v43.7A341.6,341.6,0,0,1,79.641,251.727a5.8,5.8,0,0,0-.641,3.09V487.233A5.448,5.448,0,0,0,84.565,493h342.87A5.448,5.448,0,0,0,433,487.233V254.817a5.748,5.748,0,0,0-.517-3.09A341.52,341.52,0,0,1,384,75.681ZM190,48.34a86.022,86.022,0,0,0,65.966,30.353A86,86,0,0,0,322,48.266V95.128c0,36.2-29.8,65.644-66,65.644s-66-29.448-66-65.644ZM91,256.473a372.9,372.9,0,0,0,37-88.555V235a6,6,0,0,0,12,0V44.767C140,37.047,146.527,31,154.247,31H178V95.128c0,42.813,35.187,77.644,78,77.644s78-34.831,78-77.644V31h23.753C365.473,31,372,37.047,372,44.767V431H140V275a6,6,0,0,0-12,0V431H91ZM421,481H91V443H421Zm0-50H384V166.988c8,31.283,21,61.413,37,89.485Z"/><path d="M164,377.4a6,6,0,0,0,6-6V312.41a6,6,0,0,0-12,0V371.4A6,6,0,0,0,164,377.4Z"/><path d="M164,296.287a6,6,0,0,0,6-6V228.673a6,6,0,0,0-12,0v61.614A6,6,0,0,0,164,296.287Z"/><path d="M164,212.287a6,6,0,0,0,6-6V201.48a6,6,0,0,0-12,0v4.807A6,6,0,0,0,164,212.287Z"/></svg>
