<svg id="Layer_1" height="512" viewBox="0 0 512 512" width="512" xmlns="http://www.w3.org/2000/svg" data-name="Layer 1"><path d="m294 132a6 6 0 0 0 6-6v-29a6 6 0 0 0 -12 0v29a6 6 0 0 0 6 6z"/><path d="m263.078 134.788a6 6 0 1 0 11.385-3.8l-10-30a6 6 0 0 0 -11.385 3.8z"/><path d="m318.873 138.583a6 6 0 0 0 7.59-3.795l10-30a6 6 0 0 0 -11.385-3.8l-10 30a6 6 0 0 0 3.795 7.595z"/><path d="m183.472 205.8c-37.9 0-69.772 26.407-78.449 61.721a6.006 6.006 0 0 0 5.8 7.483h.024a5.964 5.964 0 0 0 5.807-4.559 68.432 68.432 0 0 1 66.794-52.645c36.809-.012 67.467 29.4 68.771 66.182 1.384 39.051-29.99 71.461-68.747 71.461a68.923 68.923 0 0 1 -65.7-48.273 5.988 5.988 0 0 0 -11.41 3.638c10.8 33.82 44.074 58.984 82.556 56.39a80.791 80.791 0 0 0 -5.447-161.4z"/><path d="m494.3 152.371-168-.873a6.25 6.25 0 0 0 -4.4 1.746 6.133 6.133 0 0 0 -1.9 4.256v26.877l-47-.041v-26.936a5.886 5.886 0 0 0 -5.859-6l-93.355-.1a1.382 1.382 0 0 0 -.331.011c-64.416 3.853-116.142 52.963-125.136 115.31a23.377 23.377 0 1 0 0 38.551c9.346 65.35 65.7 115.753 133.621 115.753a134.42 134.42 0 0 0 134.886-134.383c0-.513 0-.542-.006-1.542h165.451a5.95 5.95 0 0 0 5.97-5.35l12-120.714a5.975 5.975 0 0 0 -5.939-6.565zm-459.189 144.902a11.382 11.382 0 1 1 11.382-11.382 11.395 11.395 0 0 1 -11.382 11.382zm384.889-24.273h-109.414a6.093 6.093 0 0 0 -5.976 6.63c.144 1.566.216 3.915.216 6.954a122.425 122.425 0 0 1 -122.888 122.338c-67.818 0-122.991-55.146-122.991-122.932 0-64.879 50.4-118.736 114.944-122.69l87.109.094v26.936a5.959 5.959 0 0 0 6.131 5.81l59.135-.14a5.526 5.526 0 0 0 4.106-1.565 5.451 5.451 0 0 0 1.628-4.055v-26.851l88 .458zm56.837 0h-44.837v-108.951l55.514.231z"/><path d="m158.278 197.679a6.039 6.039 0 0 0 1.543-.2 91.826 91.826 0 0 1 12.3-2.377 6 6 0 1 0 -1.465-11.91 103.784 103.784 0 0 0 -13.916 2.688 6 6 0 0 0 1.535 11.8z"/><path d="m192.532 182.8a6 6 0 0 0 -1.033 11.955 92.455 92.455 0 0 1 69.679 42.436 6 6 0 1 0 10.134-6.425 104.519 104.519 0 0 0 -78.78-47.966z"/></svg>