<svg id="Layer_1" height="512" viewBox="0 0 512 512" width="512" xmlns="http://www.w3.org/2000/svg" data-name="Layer 1"><path d="m413 45h-18v-19a6 6 0 0 0 -6-6h-21v-5a6 6 0 0 0 -6-6h-68a6 6 0 0 0 -6 6v5h-17a5.969 5.969 0 0 0 -2.5.551 5.969 5.969 0 0 0 -2.5-.551h-21v-5a6 6 0 0 0 -6-6h-68a6 6 0 0 0 -6 6v5h-17a6 6 0 0 0 -6 6v19h-20.5a6.5 6.5 0 0 0 -6.5 6.5v445.469a6.049 6.049 0 0 0 6.031 6.031h44.469a5.5 5.5 0 0 0 5.5-5.5v-328.5a6 6 0 0 0 -12 0v32h-32v-144h32v72a6 6 0 0 0 12 0v-66h68v434a6 6 0 0 0 6 6h44a6 6 0 0 0 6-6v-434h67a5.988 5.988 0 0 0 1-.09v434.09a6 6 0 0 0 6 6h44a6 6 0 0 0 6-6v-446a6 6 0 0 0 -6-6zm-254 446h-32v-198h32zm0-278v68h-32v-68zm80-173a6 6 0 0 0 -6 6v5h-56v-5a6 6 0 0 0 -6-6h-17v-8h17a6 6 0 0 0 6-6v-5h56v5a6 6 0 0 0 6 6h21v8zm44 451h-32v-198h32zm0-210h-32v-68h32zm0-80h-32v-144h32zm79-161a6 6 0 0 0 -6 6v5h-56v-5a6 6 0 0 0 -6-6h-17v-8h17a6 6 0 0 0 6-6v-5h56v5a6 6 0 0 0 6 6h21v8zm45 451h-32v-198h32zm0-210h-32v-68h32zm0-80h-32v-144h32z"/><path d="m99 142.83a6 6 0 0 0 -6 6v113.492a6 6 0 0 0 12 0v-113.492a6 6 0 0 0 -6-6z"/><path d="m98 132.708a6 6 0 0 0 6-6v-40.614a6 6 0 0 0 -12 0v40.614a6 6 0 0 0 6 6z"/><path d="m98 69.708a6 6 0 0 0 6-6v-5.614a6 6 0 1 0 -12 0v5.614a6 6 0 0 0 6 6z"/></svg>