<?xml version="1.0" encoding="UTF-8"?>
<svg xmlns="http://www.w3.org/2000/svg" id="Layer_1" data-name="Layer 1" viewBox="0 0 512 512" width="512" height="512"><path d="M142.886,465a6,6,0,1,0,0,12h18.992a6,6,0,0,0,0-12Z"/><path d="M178,470a6,6,0,0,0,6,6h81.614a6,6,0,1,0,0-12H184A6,6,0,0,0,178,470Z"/><path d="M341.614,476a6,6,0,1,0,0-12h-27.26a6,6,0,0,0,0,12Z"/><path d="M292.808,476a6,6,0,0,0,0-12H288a6,6,0,0,0,0,12Z"/><path d="M181.878,432H90.385a6,6,0,1,0,0,12h91.493a6,6,0,0,0,0-12Z"/><path d="M231.614,444a6,6,0,1,0,0-12H204a6,6,0,0,0,0,12Z"/><path d="M271.614,444a6,6,0,1,0,0-12H254a6,6,0,0,0,0,12Z"/><path d="M500.9,365H368a6,6,0,0,0,0,12H488.987L471.31,400.322A12.1,12.1,0,0,1,461.543,405H95.356a82.177,82.177,0,0,1-48.85-15.725L29.405,377H328a6,6,0,0,0,0-12H125V271h6v72.872a5.8,5.8,0,0,0,1.89,4.57,5.709,5.709,0,0,0,3.777,1.43,5.227,5.227,0,0,0,.905-.078l150.577-24.428a5.993,5.993,0,0,0,4.82-7.456l-65.237-246.7a6,6,0,0,0-4.305-4.277L138.051,44.955a5.536,5.536,0,0,0-4.949,1.068,5.8,5.8,0,0,0-2.1,4.742V148h-6V41.474A6.623,6.623,0,0,0,118.768,35H100.4A6.776,6.776,0,0,0,94,41.474V365H11.122a6.08,6.08,0,0,0-5.665,3.61,5.942,5.942,0,0,0,2,7.111l31.974,23.186A94.158,94.158,0,0,0,95.356,417H367.667l43.462,31.97a5.869,5.869,0,0,0,3.565,1.03H431.75a5.8,5.8,0,0,0,5.779-7.4L430.361,417h31.182a24.23,24.23,0,0,0,19.359-9.553l24.9-33.026a5.827,5.827,0,0,0,.58-6.17A6.075,6.075,0,0,0,500.9,365ZM143,58.505l74.252,19.17,13.035,48.88L143,136.076Zm0,89.642,90.278-9.859L235.427,146,143,156.076Zm0,20,95.418-10.419,18.766,70.554L143,246.821Zm0,90.83,117.155-19.039,2.1,7.521L143,266.821Zm0,20,122.226-19.861L280,314.58,143,336.82ZM125,160h6v99h-6ZM106,47h7V365h-7ZM416.67,438l-28.81-21H417.9l5.944,21Z"/></svg>
